<?xml version="1.0" encoding="UTF-8" standalone="no"?>
<!-- Created with Inkscape (http://www.inkscape.org/) -->

<svg
   version="1.1"
   id="svg823"
   xml:space="preserve"
   width="227.85602mm"
   height="145mm"
   viewBox="0 0 861.18809 548.03153"
   sodipodi:docname="conclusion_optainable.svg"
   inkscape:version="1.1.1 (3bf5ae0d25, 2021-09-20)"
   xmlns:inkscape="http://www.inkscape.org/namespaces/inkscape"
   xmlns:sodipodi="http://sodipodi.sourceforge.net/DTD/sodipodi-0.dtd"
   xmlns="http://www.w3.org/2000/svg"
   xmlns:svg="http://www.w3.org/2000/svg"><defs
     id="defs827"><linearGradient
       id="linearGradient14877"
       inkscape:swatch="solid"><stop
         style="stop-color:#000000;stop-opacity:1;"
         offset="0"
         id="stop14875" /></linearGradient><marker
       style="overflow:visible"
       id="EmptyDiamondMstart"
       refX="0"
       refY="0"
       orient="auto"
       inkscape:stockid="EmptyDiamondMstart"
       inkscape:isstock="true"><path
         transform="matrix(0.4,0,0,0.4,2.6,0)"
         style="fill:context-fill;fill-rule:evenodd;stroke:context-stroke;stroke-width:1pt"
         d="M 0,-7.0710768 -7.0710894,0 0,7.0710589 7.0710462,0 Z"
         id="path13834" /></marker><marker
       inkscape:stockid="DistanceStart"
       orient="auto"
       refY="0"
       refX="0"
       id="marker14012"
       style="overflow:visible"
       inkscape:isstock="true"><g
         id="g14010"><path
           id="path14004"
           d="M 0,0 H 2"
           style="fill:none;stroke:context-fill;stroke-width:1.15;stroke-linecap:square" /><path
           id="path14006"
           d="M 0,0 13,4 9,0 13,-4 Z"
           style="fill:context-stroke;fill-rule:evenodd;stroke:none" /><path
           id="path14008"
           d="M 0,-4 V 40"
           style="fill:none;stroke:context-stroke;stroke-width:1;stroke-linecap:square" /></g></marker><marker
       style="overflow:visible"
       id="SquareS"
       refX="0"
       refY="0"
       orient="auto"
       inkscape:stockid="SquareS"
       inkscape:isstock="true"><path
         transform="scale(0.2)"
         style="fill:context-stroke;fill-rule:evenodd;stroke:context-stroke;stroke-width:1pt"
         d="M -5,-5 V 5 H 5 V -5 Z"
         id="path13792" /></marker><marker
       inkscape:stockid="DistanceStart"
       orient="auto"
       refY="0"
       refX="0"
       id="DistanceStart"
       style="overflow:visible"
       inkscape:isstock="true"><g
         id="g2300"><path
           id="path2306"
           d="M 0,0 H 2"
           style="fill:none;stroke:context-fill;stroke-width:1.15;stroke-linecap:square" /><path
           id="path2302"
           d="M 0,0 13,4 9,0 13,-4 Z"
           style="fill:context-stroke;fill-rule:evenodd;stroke:none" /><path
           id="path2304"
           d="M 0,-4 V 40"
           style="fill:none;stroke:context-stroke;stroke-width:1;stroke-linecap:square" /></g></marker><linearGradient
       id="linearGradient8819"
       inkscape:swatch="solid"><stop
         style="stop-color:#ff5555;stop-opacity:1;"
         offset="0"
         id="stop8817" /></linearGradient><linearGradient
       id="linearGradient6595"
       inkscape:swatch="solid"><stop
         style="stop-color:#ff5555;stop-opacity:1;"
         offset="0"
         id="stop6593" /></linearGradient><mask
       maskUnits="userSpaceOnUse"
       id="mask13239"><path
         id="path13241"
         style="fill:#800000;fill-opacity:1;stroke:none;stroke-width:21.5433;stroke-linecap:butt;stroke-linejoin:miter;stroke-miterlimit:4;stroke-dasharray:none;stroke-opacity:1"
         d="m 1305.3281,62.210938 c -1.0325,0.188208 -2.0654,0.368571 -3.0976,0.5625 -9.1479,1.705619 -18.2818,3.705999 -27.4082,5.882812 -1.9626,0.471724 -3.9272,0.895628 -5.8887,1.390625 -8.3928,2.102381 -16.772,4.522879 -25.1465,7.076172 -2.3337,0.715128 -4.6716,1.324428 -7.0039,2.076172 -10.4107,3.341402 -20.8094,7.005443 -31.1914,11.132812 -18.9709,7.542568 -38.162,14.577289 -57.3301,21.648439 -14.0106,5.16855 -27.9822,10.26546 -42.0449,15.20898 -125.72632,44.19723 -252.6144,80.06417 -364.59961,115.2793 -47.21582,14.8476 -91.77947,29.61648 -132.48438,44.91406 -20.38473,7.66092 -39.79799,15.45674 -58.0957,23.45899 -18.21089,7.96436 -35.31412,16.13474 -51.1582,24.58789 -12.80649,6.83244 -24.54711,13.90983 -35.63086,21.15039 -5.63206,3.67918 -11.0134,7.42264 -16.16993,11.22265 -9.90424,7.29878 -19.17839,14.76186 -27.21679,22.5625 -6.8e-4,6.6e-4 -0.001,10e-4 -0.002,0.002 -5.11096,4.95991 -9.82859,10.02763 -14.13672,15.21484 -4.30814,5.18722 -8.20623,10.4923 -11.67383,15.92578 -2.8e-4,4.4e-4 2.7e-4,0.002 0,0.002 -3.46721,5.43301 -6.50462,10.99319 -9.09375,16.6914 -2.4e-4,5.2e-4 2.3e-4,10e-4 0,0.002 -2.58902,5.69819 -4.73104,11.53329 -6.4043,17.51563 -5.02069,17.94929 -5.83367,37.21957 -1.93164,58.06836 1.30063,6.94937 3.12479,14.07336 5.49219,21.38281 2e-4,6.3e-4 -2e-4,0.001 0,0.002 4.59603,14.19067 8.37674,28.09486 11.4375,41.72265 33.67064,149.91294 -19.66997,266.3634 -30.60742,362.46875 -2.98293,26.21045 -2.81338,50.90754 3.13671,74.35745 1.98337,7.8166 4.60977,15.4937 7.97461,23.043 2.6e-4,5e-4 -2.5e-4,0 0,0 7.30942,16.6833 21.81293,32.3756 40.80079,47.6739 18.98786,15.2982 42.45914,30.2019 67.70507,45.3027 25.24591,15.1009 52.26603,30.3992 78.34961,46.4902 13.04181,8.0455 25.84909,16.289 38.08399,24.8047 4.4e-4,3e-4 0.002,-3e-4 0.002,0 12.21666,8.503 23.85857,17.2807 34.5957,26.4004 0.0155,0.013 0.0353,0.024 0.0508,0.037 5.3756,4.5675 10.52301,9.2227 15.47266,13.9414 14.84802,14.1553 27.91372,28.8916 40.00586,43.6172 16.1228,19.634 30.51358,39.2468 45.08789,57.4336 7.2875,9.0939 14.61984,17.8304 22.23828,26.0352 3.80905,4.1021 7.68839,8.0708 11.66992,11.8847 6.6e-4,7e-4 0.001,0 0.002,0 19.90716,19.0689 42.34597,34.2613 71.05273,42.8301 11.30896,3.3757 22.29874,6.1861 33.03711,8.5351 3.14847,0.6893 6.13244,1.0759 9.23633,1.6836 7.51262,1.4691 15.03069,2.9475 22.30078,3.9668 3.25602,0.4576 6.37437,0.6537 9.58594,1.0273 6.97312,0.8085 13.95497,1.6349 20.73633,2.0743 2.84857,0.1861 5.59991,0.1767 8.41797,0.3027 7.0471,0.3107 14.08282,0.6019 20.95898,0.5664 2.16971,-0.01 4.28281,-0.1406 6.4375,-0.1816 7.53609,-0.1497 15.03696,-0.3716 22.41406,-0.8692 1.09231,-0.073 2.16457,-0.1939 3.25391,-0.2734 7.92601,-0.5861 15.78591,-1.3264 23.58211,-2.2344 3.5315,-0.4074 6.9914,-1.0612 10.5039,-1.5234 47.2987,-6.2779 93.4374,-16.7145 143.3066,-23.8731 0.8179,-0.1167 1.5959,-0.2643 2.416,-0.3789 42.5698,-5.9867 87.9083,-9.3651 140.041,-4.4453 189.1888,17.8557 374.8405,-49.7019 481.6661,-46.0723 157.163,5.3408 515.543,42.6615 728.6816,-16.1543 8.5444,-2.3581 16.7727,-4.923 24.8437,-7.5879 -40.6808,-44.8901 -58.8277,-135.6635 -55.1894,-177.1679 2.2709,-25.4635 5.984,-42.0726 15.3516,-75.75 -106.7927,-9.1474 -251.7622,-109.01923 -318.2598,-197.08989 -243.038,76.40426 -781.5044,-105.87839 -722.711,-447.95117 4.912,-28.57814 12.0698,-57.4729 22.1309,-85.21289 -157.4561,6.98906 -170.4157,-104.24329 -156.4826,-297.257818 -16.6562,1.879553 -16.3314,2.453833 -31.1015,4.863206 z"
         sodipodi:nodetypes="cccccccssssssssscsscsccssccssscsssscscssssscsccccccccccccccccsccccsccc" /></mask><pattern
       patternUnits="userSpaceOnUse"
       width="67.999998"
       height="1286"
       patternTransform="translate(925.99997,-1324)"
       id="pattern14255"><g
         id="g14253"
         transform="translate(-925.99997,1324)"><rect
           style="fill:#b3062c;fill-opacity:1;stroke:none;stroke-width:21.5433;stroke-linecap:round;stroke-linejoin:round;stroke-miterlimit:4;stroke-dasharray:none;stroke-dashoffset:0;stroke-opacity:1"
           id="rect14131"
           width="34"
           height="1286"
           x="926"
           y="-1324" /><rect
           style="fill:none;fill-opacity:1;stroke:none;stroke-width:21.5433;stroke-linecap:round;stroke-linejoin:round;stroke-miterlimit:4;stroke-dasharray:none;stroke-dashoffset:0;stroke-opacity:1"
           id="rect14231"
           width="34"
           height="1286"
           x="960"
           y="-1324" /></g></pattern><pattern
       patternUnits="userSpaceOnUse"
       width="136.00189"
       height="1286"
       patternTransform="translate(742.1522,-1370.669)"
       id="pattern14790"><g
         id="g14788"
         transform="translate(-742.1522,1370.669)"><rect
           style="opacity:0.25;fill:#b3062c;fill-opacity:1;stroke:none;stroke-width:21.5433;stroke-linecap:round;stroke-linejoin:round;stroke-miterlimit:4;stroke-dasharray:none;stroke-dashoffset:0;stroke-opacity:1"
           id="rect14563"
           width="34"
           height="1286"
           x="742.15222"
           y="-1370.6691" /><rect
           style="fill:none;fill-opacity:1;stroke:none;stroke-width:21.5433;stroke-linecap:round;stroke-linejoin:round;stroke-miterlimit:4;stroke-dasharray:none;stroke-dashoffset:0;stroke-opacity:1"
           id="rect14565"
           width="102.00189"
           height="1286"
           x="776.15222"
           y="-1370.6691" /></g></pattern><mask
       maskUnits="userSpaceOnUse"
       id="mask4743"><path
         id="path4745"
         style="fill:#b3062c;fill-opacity:1;stroke:#b3062c;stroke-width:21.5433;stroke-linecap:round;stroke-linejoin:round;stroke-miterlimit:4;stroke-dasharray:none;stroke-dashoffset:0;stroke-opacity:1"
         d="m 1320.801,-1769.914 c -0.597,0.8632 -1.1999,1.7211 -1.7926,2.5881 -5.2625,7.6746 -10.3067,15.5477 -15.2208,23.5403 -1.0542,1.7213 -2.1436,3.4102 -3.1806,5.1472 -4.448,7.4213 -8.6614,15.0578 -12.7776,22.7849 -1.1445,2.1559 -2.3668,4.2398 -3.4845,6.4206 -4.9987,9.7242 -9.7608,19.6681 -14.1835,29.9277 -8.0811,18.7479 -16.6769,37.2923 -25.2308,55.8463 -6.2522,13.5617 -12.5276,27.0452 -18.9758,40.4846 -57.6498,120.1541 -122.0115,235.2393 -176.2961,339.3257 -22.8878,43.8854 -43.9559,85.8399 -61.92161,125.4396 -8.99709,19.8313 -17.21186,39.071 -24.49185,57.6679 -7.2454,18.5087 -13.56187,36.3798 -18.78805,53.5605 -4.22429,13.88687 -7.52169,27.19321 -10.23923,40.15045 -1.3809,6.58404 -2.53905,13.03625 -3.49826,19.36948 -1.84234,12.16437 -3.12296,23.99938 -3.29108,35.19927 -10e-6,9.5e-4 0,10e-4 0,0.003 -0.10681,7.12118 0.14074,14.04047 0.76235,20.75469 0.6216,6.71423 1.61649,13.22186 3.00658,19.51587 1.1e-4,5.1e-4 0.002,0.001 10e-4,0.001 1.39003,6.2934 3.1739,12.37282 5.37235,18.23285 2e-4,5.4e-4 8.7e-4,5.5e-4 10e-4,10e-4 2.19851,5.85994 4.80992,11.50061 7.8569,16.91394 9.1419,16.24223 22.19317,30.44323 39.69464,42.4264 5.83364,3.99426 12.16093,7.74181 19.00356,11.23637 6e-4,3e-4 5e-4,8.5e-4 0,10e-4 13.2842,6.78444 25.7893,13.94282 37.5899,21.41484 129.8132,82.19572 174.4386,202.25613 234.6614,277.94682 16.4243,20.64284 34.0077,37.98643 54.7967,50.3607 6.9296,4.12471 14.2153,7.6961 21.9327,10.65496 6e-4,1.7e-4 -2e-4,1.7e-4 0,0 16.9654,6.62833 38.3171,7.46893 62.5611,4.86002 24.2439,-2.60898 51.3791,-8.66718 79.9085,-15.84086 28.5295,-7.17361 58.4532,-15.46219 88.2751,-22.52801 14.911,-3.53292 29.7961,-6.76 44.469,-9.38987 6e-4,-10e-5 0,-0.002 0,-10e-4 14.6511,-2.62595 29.0899,-4.65125 43.1308,-5.79495 0.02,-0.002 0.042,-0.008 0.062,-0.01 7.0308,-0.57141 13.9623,-0.91946 20.7989,-1.08276 20.5084,-0.48983 40.1674,0.69146 59.1304,2.5536 25.2839,2.48279 49.328,6.17532 72.4936,8.72974 11.5834,1.27731 22.9458,2.27021 34.1345,2.68482 5.5941,0.20722 11.1435,0.27041 16.6557,0.15188 9e-4,2e-5 7e-4,-7.1e-4 0,-0.001 27.5602,-0.59274 54.1695,-5.71672 80.5273,-19.9564 10.3836,-5.60967 20.1418,-11.39336 29.396,-17.32554 2.7137,-1.7389 5.0971,-3.57552 7.7216,-5.34059 6.351,-4.27341 12.7125,-8.5441 18.5739,-12.96408 2.626,-1.97878 4.9696,-4.04513 7.5047,-6.05187 5.5025,-4.35905 11.0237,-8.71161 16.1296,-13.19605 2.1458,-1.88265 4.0847,-3.83479 6.1664,-5.73836 5.2028,-4.76336 10.3837,-9.53245 15.2208,-14.41974 1.5271,-1.54128 2.929,-3.12782 4.4236,-4.68041 5.2229,-5.43467 10.3699,-10.89549 15.2345,-16.46375 0.7207,-0.824 1.3935,-1.66769 2.1075,-2.49418 5.1901,-6.019 10.2245,-12.10026 15.0952,-18.25505 2.209,-2.78523 4.1932,-5.69405 6.3501,-8.50459 29.0061,-37.88438 54.2513,-77.88916 84.4523,-118.2139 0.4958,-0.66087 0.9416,-1.31536 1.4404,-1.9763 25.8682,-34.33463 55.5384,-68.78268 95.8807,-102.16724 146.4025,-121.1508 229.9076,-300.1968 308.0112,-373.1674 114.9076,-107.3545 394.7102,-334.3777 503.8329,-526.6785 4.3744,-7.7092 8.379,-15.3412 12.2017,-22.9326 -60.5077,-2.9764 -137.526,-54.3311 -164.3014,-86.2518 -16.3996,-19.6112 -25.5185,-33.9812 -42.7081,-64.4186 -81.9821,69.0457 -255.111,100.9345 -364.4073,85.6801 -117.8279,225.8798 -627.4743,477.7396 -827.7831,194.2844 -16.7345,-23.6811 -32.1049,-49.1741 -44.6057,-75.9035 -106.3963,116.2803 -194.2133,46.791 -320.843,-99.5431 -10.4486,13.1068 -9.8129,13.2832 -18.5532,25.4309 z"
         sodipodi:nodetypes="cccccccssssssssscsscsccssccssscsssscscssssscsccccccccccccccccsccccsccc" /></mask><mask
       maskUnits="userSpaceOnUse"
       id="mask5402"><path
         id="path5404"
         style="fill:#b3062c;fill-opacity:1;stroke:#b3062c;stroke-width:21.5433;stroke-linecap:round;stroke-linejoin:miter;stroke-miterlimit:4;stroke-dasharray:none;stroke-dashoffset:0;stroke-opacity:1"
         d="m 1339.355,-1795.3414 c -26.9809,35.0416 -50.7213,72.9828 -69.1942,115.8357 -178.1244,413.2439 -485.99431,784.30482 -267.0322,896.13086 212.5575,108.55511 225.5024,313.03667 348.982,360.37862 67.8615,26.51313 205.924,-39.56139 318.4094,-48.70339 112.4854,-9.14202 199.3954,38.64941 283.7432,-6.91903 162.7432,-87.92024 178.7093,-217.09974 311.0662,-334.8898 41.2674,56.97216 120.4391,78.89501 217.137,54.29533 237.5463,-60.42885 504.8752,-373.48469 660.9251,-561.51879 60.2619,-72.613 169.5059,-164.5986 186.9554,-257.7432 5.6904,-30.3654 -26.6638,-50.3561 -44.1749,-65.7719 -58.0742,-51.1466 -122.7036,-73.9091 -194.3923,-81.9651 4.3845,-7.7249 8.395,-15.3718 12.2253,-22.9782 -60.5078,-2.9765 -137.5261,-54.3311 -164.3015,-86.2518 -17.0334,-14.4629 -68.2092,-114.3991 -42.7081,-64.4186 -81.9821,69.0457 -255.1111,100.9346 -364.4074,85.6802 -117.8278,225.8797 -627.4743,477.7397 -827.783,194.2844 -16.7345,-23.6811 -32.1049,-49.174 -44.6058,-75.9033 -106.3963,116.2803 -194.2145,46.7922 -320.8442,-99.542 z"
         sodipodi:nodetypes="ccscscccscccccccscc" /></mask></defs><sodipodi:namedview
     id="namedview825"
     pagecolor="#ffffff"
     bordercolor="#666666"
     borderopacity="1.0"
     inkscape:pageshadow="2"
     inkscape:pageopacity="0.0"
     inkscape:pagecheckerboard="0"
     showgrid="false"
     height="500px"
     inkscape:zoom="0.70710678"
     inkscape:cx="403.05087"
     inkscape:cy="62.932504"
     inkscape:window-width="2560"
     inkscape:window-height="1387"
     inkscape:window-x="1912"
     inkscape:window-y="-8"
     inkscape:window-maximized="1"
     inkscape:current-layer="g829"
     units="mm"
     inkscape:document-units="mm"
     inkscape:snap-grids="false"
     inkscape:snap-nodes="false"
     fit-margin-top="0"
     fit-margin-left="0"
     fit-margin-right="0"
     fit-margin-bottom="0" /><g
     id="g829"
     inkscape:groupmode="layer"
     inkscape:label="optainable_anal"
     transform="matrix(1.3333333,0,0,1.3333333,-351.11858,0.01886046)"><path
       d="m 471.89509,26.790606 c -99.32302,39.095768 -213.35273,49.60332 -195.35874,104.606904 17.46769,53.39479 -14.70185,89.54873 -1.91418,117.95297 6.94464,15.69267 41.23043,27.66277 61.65832,44.84675 20.42788,17.18398 26.99787,39.58186 48.81791,46.03009 43.63883,12.89646 68.17715,-7.87243 113.11564,-3.67383 44.93682,4.19888 89.0335,-11.68738 114.40711,-10.83386 46.60039,1.56781 167.82151,14.94932 203.22392,-18.69955 13.72867,-13.04947 34.44301,-13.17582 45.9421,-28.05149 24.27483,-31.40287 42.59138,-51.52221 38.90638,-93.50276 -2.81092,-32.0259 -24.87851,-16.84388 -43.87344,-41.5933 C 805.82368,77.428256 709.47126,-0.2910636 616.75986,8.8144454 604.35687,10.033258 594.23216,19.714464 582.40649,19.473336 c -37.59809,-0.766969 -74.4084,-6.892392 -110.5114,7.31727 z"
       style="fill:#cccccc;fill-opacity:1;stroke:none;stroke-width:16.1575;stroke-linecap:butt;stroke-linejoin:miter;stroke-miterlimit:4;stroke-dasharray:none;stroke-opacity:1"
       id="path16786"
       sodipodi:nodetypes="cscsccccsccccc" /><path
       d="m 631.48486,262.47963 c -18.76408,0.14207 -36.09029,7.9419 -52.48791,15.48681 -20.12462,9.26135 -43.02269,14.85026 -61.38416,26.54767 -14.27372,9.09422 -22.10113,20.20746 -24.00157,31.56057 1.53354,0.16054 3.06117,0.33424 4.60282,0.47881 44.93682,4.19888 89.0335,-11.68738 114.40711,-10.83386 37.74909,1.27022 124.4521,10.28517 174.8499,-4.22086 -4.39465,-5.15399 -9.73811,-10.10482 -16.16034,-14.98101 -18.4624,-14.01715 -41.36583,-25.95565 -64.71038,-33.80944 -13.48897,-4.53944 -28.63443,-7.91145 -43.23976,-8.51632 -9.30399,-0.38476 -17.82007,-0.84631 -26.0045,-1.50162 -1.9729,-0.15808 -3.92959,-0.22548 -5.87121,-0.21075 z"
       style="fill:#87b77b;fill-opacity:1;fill-rule:evenodd;stroke:none;stroke-width:0.999992"
       id="path833" /><path
       d="m 787.47105,321.49877 c -50.3978,14.50603 -137.10081,5.49108 -174.8499,4.22086 -25.37361,-0.85352 -69.47029,15.03274 -114.40711,10.83386 -1.54165,-0.14457 -3.06928,-0.31827 -4.60282,-0.47881 -2.74489,16.39456 6.87608,33.29018 27.32871,45.32562 50.04629,29.45252 147.52465,21.84736 205.31517,16.52903 22.31696,-2.05379 56.11414,0.81593 74.6877,-11.77069 6.05568,-4.10298 3.84972,-12.80087 3.62879,-18.28198 -0.73673,-18.33606 -5.73256,-33.0415 -17.10054,-46.37789 z"
       style="fill:#ecf4ea;fill-opacity:1;fill-rule:evenodd;stroke:none;stroke-width:0.999992"
       id="path835" /><path
       d="m 471.89509,26.790606 c -99.32302,39.095768 -213.35273,49.60332 -195.35874,104.606904 17.46769,53.39479 -14.70185,89.54873 -1.91418,117.95297 6.94464,15.69267 41.23043,27.66277 61.65832,44.84675 20.42788,17.18398 26.99787,39.58186 48.81791,46.03009 43.63883,12.89646 68.17715,-7.87243 113.11564,-3.67383 44.93682,4.19888 89.0335,-11.68738 114.40711,-10.83386 46.60039,1.56781 167.82151,14.94932 203.22392,-18.69955 13.72867,-13.04947 34.44301,-13.17582 45.9421,-28.05149 24.27483,-31.40287 42.59138,-51.52221 38.90638,-93.50276 -2.81092,-32.0259 -24.87851,-16.84388 -43.87344,-41.5933 C 805.82368,77.428256 709.47126,-0.2910636 616.75986,8.8144454 604.35687,10.033258 594.23216,19.714464 582.40649,19.473336 c -37.59809,-0.766969 -74.4084,-6.892392 -110.5114,7.31727 z"
       style="fill:none;stroke:#000000;stroke-width:14.173229;stroke-linecap:butt;stroke-linejoin:miter;stroke-miterlimit:4;stroke-dasharray:none;stroke-opacity:1"
       id="path839"
       sodipodi:nodetypes="cscsccccsccccc" /><path
       d="m 637.35607,262.69038 c -21.04124,-1.68542 -40.26574,6.951 -58.36036,15.27606 -20.12338,9.26135 -43.02145,14.84901 -61.38292,26.54767 -34.88839,22.2271 -31.28706,56.51687 3.32714,76.88619 50.04629,29.45121 147.52465,21.84736 205.31517,16.52903 22.31696,-2.05379 56.11414,0.81593 74.6889,-11.77069 6.05575,-4.10298 3.97951,-12.80689 3.62759,-18.28198 -1.62748,-25.40222 -14.69502,-43.7173 -33.26088,-61.3589 -16.7717,-15.93519 -41.36583,-25.95565 -64.71038,-33.81068 -13.48897,-4.5382 -28.63443,-7.91021 -43.23976,-8.51383 -9.30301,-0.38601 -17.82007,-0.84756 -26.0045,-1.50287 z"
       style="fill:none;stroke:#40952c;stroke-width:14.173229;stroke-linecap:butt;stroke-linejoin:miter;stroke-miterlimit:4;stroke-dasharray:none;stroke-opacity:1"
       id="path843" /><path
       d="m 829.48367,111.96767 c -9.41889,44.57121 -7.86612,95.32141 27.25175,126.36396 6.74273,5.96144 14.58528,12.51425 23.03404,17.06966 14.53926,-20.25793 23.61625,-39.26508 20.92409,-69.93546 -2.81092,-32.0259 -24.87851,-16.84388 -43.87344,-41.5933 -8.04591,-10.4836 -17.22537,-21.24628 -27.33644,-31.90486 z"
       style="fill:#e5eff3;fill-opacity:1;fill-rule:evenodd;stroke:#00608f;stroke-width:16.1575;stroke-linecap:butt;stroke-linejoin:miter;stroke-miterlimit:4;stroke-dasharray:none;stroke-opacity:1"
       id="path847" /><path
       d="m 712.42042,26.561391 c -2.09391,1.358348 -4.14751,2.857484 -6.15307,4.538176 -16.8898,14.149451 31.19605,40.207977 26.52234,61.402841 -16.64053,75.449432 57.19896,55.824902 67.87983,74.826102 10.67994,19.00086 19.33807,-0.54999 24.07308,-3.48367 -0.80577,-17.22864 1.17226,-34.97183 4.73369,-51.83422 C 797.70659,78.512238 756.7265,46.04515 712.42042,26.561391 Z"
       style="fill:#e5eff3;fill-opacity:1;fill-rule:evenodd;stroke:#00608f;stroke-width:16.1575;stroke-linecap:butt;stroke-linejoin:miter;stroke-miterlimit:4;stroke-dasharray:none;stroke-opacity:1"
       id="path851" /><path
       d="m 629.8166,8.0967036 c -4.35739,0.055189 -8.7107,0.2916123 -13.05674,0.7177418 -12.40299,1.2188126 -22.5277,10.9000186 -34.35337,10.6588906 -26.86136,-0.548731 -53.34946,-3.868091 -79.4313,-0.506087 -3.7549,51.415589 0.62956,78.203145 53.77349,67.872553 15.34589,-2.983542 46.67033,14.972558 63.80211,7.76064 37.87907,-15.943656 40.54377,-29.326452 66.43499,-46.280722 4.50193,-2.947155 10.12605,-5.097874 16.1342,-7.026906 -1.03508,-3.808199 -0.35411,-7.259884 3.14737,-10.193247 1.99913,-1.674419 4.04545,-3.170106 6.13293,-4.524692 C 685.62768,14.800332 657.66656,7.7417521 629.8166,8.0967036 Z"
       style="fill:#e5eff3;fill-opacity:1;fill-rule:evenodd;stroke:#00608f;stroke-width:14.173229;stroke-linecap:butt;stroke-linejoin:miter;stroke-miterlimit:4;stroke-dasharray:none;stroke-opacity:1"
       id="path855" /><path
       d="m 836.35761,211.79651 c -32.5193,5.09539 -55.00219,34.33248 -57.86523,66.67728 -0.86551,9.77525 3.4567,31.17833 13.15117,41.71717 9.94892,-3.27047 18.29037,-7.55373 24.20152,-13.17212 13.72867,-13.04823 34.44301,-13.17458 45.9421,-28.05025 6.53938,-8.46022 12.61869,-16.10076 17.97114,-23.57357 -8.44498,-4.55509 -16.28269,-11.10446 -23.02289,-17.06339 -8.76791,-7.75088 -15.44328,-16.73004 -20.37781,-26.53512 z"
       style="fill:#e5eff3;fill-opacity:1;fill-rule:evenodd;stroke:#00608f;stroke-width:14.173229;stroke-linecap:butt;stroke-linejoin:miter;stroke-miterlimit:4;stroke-dasharray:none;stroke-opacity:1"
       id="path859"
       sodipodi:nodetypes="cccccccc" /><path
       d="m 703.11998,41.292814 c -6.00815,1.929032 -11.63227,4.079751 -16.1342,7.026906 -25.89122,16.95427 -28.55592,30.337066 -66.43499,46.280722 -5.34473,2.250116 -12.07243,2.050377 -19.26405,0.801149 4.74499,29.941359 37.41621,42.134819 65.24642,47.493579 11.52756,2.22065 23.19362,2.38214 34.76741,4.06657 19.22542,2.79729 31.64617,1.63493 39.40151,-5.72123 -8.90904,-8.96974 -13.47203,-23.53183 -7.91239,-48.738102 3.70479,-16.799994 -25.71276,-36.651246 -29.66971,-51.209594 z"
       style="fill:#e5eff3;fill-opacity:1;fill-rule:evenodd;stroke:#00608f;stroke-width:16.1575;stroke-linecap:butt;stroke-linejoin:miter;stroke-miterlimit:4;stroke-dasharray:none;stroke-opacity:1"
       id="path863"
       sodipodi:nodetypes="ccccccccc" /><path
       d="m 740.70208,141.24051 c -16.02316,9.42081 -29.6763,6.7883 -44.09912,5.11481 -7.59863,20.97005 -2.81678,47.59181 6.35356,62.80541 13.50933,21.76054 51.6837,49.16798 79.18226,51.49992 8.04841,-24.69294 27.8277,-44.72888 54.21883,-48.86414 -5.84372,-14.89164 -10.84825,-33.37233 -11.62134,-47.94665 -4.73632,2.94685 -13.39191,22.47231 -24.06675,3.47865 -7.11305,-12.65283 -42.20957,-8.20906 -59.96744,-26.088 z"
       style="fill:#e5eff3;fill-opacity:1;fill-rule:evenodd;stroke:#00608f;stroke-width:14.173229;stroke-linecap:butt;stroke-linejoin:miter;stroke-miterlimit:4;stroke-dasharray:none;stroke-opacity:1"
       id="path867"
       sodipodi:nodetypes="cccccccc" /><path
       id="path18179"
       style="fill:#e5eff3;fill-opacity:1;fill-rule:evenodd;stroke:#00608f;stroke-width:14.173229;stroke-linecap:butt;stroke-linejoin:miter;stroke-miterlimit:4;stroke-dasharray:none;stroke-opacity:1"
       d="m 559.80604,86.514762 c -1.07658,0.03414 -2.09807,0.138705 -3.05719,0.325177 -6.18357,1.202019 -11.68124,1.880472 -16.60856,2.097115 -2.38975,6.523232 -4.08987,13.317996 -5.25661,20.038336 -13.96661,80.45045 113.96573,123.31621 171.68278,105.33203 -1.32486,-1.73779 -2.56403,-3.46244 -3.60973,-5.14681 -9.17014,-15.21326 -13.95213,-41.83428 -6.3542,-62.80412 -10.02732,-1.15728 -20.10014,-1.54073 -30.06948,-3.46121 -27.83022,-5.35875 -60.50751,-17.55139 -65.24618,-47.493728 0,-0.0066 0.0268,0.004 0.0199,0.0028 -14.42331,-2.502216 -30.72131,-9.23135 -41.50078,-8.889546 z m 137.00432,59.864218 c 0.073,0.009 0.14418,0.0162 0.21709,0.0248 -0.0723,-0.009 -0.14474,-0.0164 -0.21709,-0.0248 z"
       sodipodi:nodetypes="ccccccccssscccc" /><path
       d="m 829.48367,111.96767 c -9.41889,44.57121 -7.86612,95.32141 27.25175,126.36396 6.74273,5.96144 14.58528,12.51425 23.03404,17.06966 14.53926,-20.25793 23.61625,-39.26508 20.92409,-69.93546 -2.81092,-32.0259 -24.87851,-16.84388 -43.87344,-41.5933 -8.04591,-10.4836 -17.22537,-21.24628 -27.33644,-31.90486 z"
       style="fill:#e5eff3;fill-opacity:1;fill-rule:evenodd;stroke:#00608f;stroke-width:14.173229;stroke-linecap:butt;stroke-linejoin:miter;stroke-miterlimit:4;stroke-dasharray:none;stroke-opacity:1"
       id="path1303" /><path
       d="m 712.42042,26.561391 c -2.09391,1.358348 -4.14751,2.857484 -6.15307,4.538176 -16.8898,14.149451 31.19605,40.207977 26.52234,61.402841 -16.64053,75.449432 57.19896,55.824902 67.87983,74.826102 10.67994,19.00086 19.33807,-0.54999 24.07308,-3.48367 -0.80577,-17.22864 1.17226,-34.97183 4.73369,-51.83422 C 797.70659,78.512238 756.7265,46.04515 712.42042,26.561391 Z"
       style="fill:#e5eff3;fill-opacity:1;fill-rule:evenodd;stroke:#00608f;stroke-width:14.173229;stroke-linecap:butt;stroke-linejoin:miter;stroke-miterlimit:4;stroke-dasharray:none;stroke-opacity:1"
       id="path1305" /><path
       d="m 703.11998,41.292814 c -6.00815,1.929032 -11.63227,4.079751 -16.1342,7.026906 -25.89122,16.95427 -28.55592,30.337066 -66.43499,46.280722 -5.34473,2.250116 -12.07243,2.050377 -19.26405,0.801149 4.74499,29.941359 37.41621,42.134819 65.24642,47.493579 11.52756,2.22065 23.19362,2.38214 34.76741,4.06657 19.22542,2.79729 31.64617,1.63493 39.40151,-5.72123 -8.90904,-8.96974 -13.47203,-23.53183 -7.91239,-48.738102 3.70479,-16.799994 -25.71276,-36.651246 -29.66971,-51.209594 z"
       style="fill:#e5eff3;fill-opacity:1;fill-rule:evenodd;stroke:#00608f;stroke-width:14.173229;stroke-linecap:butt;stroke-linejoin:miter;stroke-miterlimit:4;stroke-dasharray:none;stroke-opacity:1"
       id="path1311"
       sodipodi:nodetypes="ccccccccc" /></g><g
     inkscape:groupmode="layer"
     id="layer1"
     inkscape:label="Umrandung (groß)"
     style="display:none"
     transform="translate(-351.11858,0.01885261)"><path
       id="path1199"
       style="fill:none;fill-opacity:1;stroke:#b3062c;stroke-width:16.1575;stroke-linecap:round;stroke-linejoin:miter;stroke-miterlimit:4;stroke-dasharray:none;stroke-dashoffset:0;stroke-opacity:1"
       d="m 1002.3208,43.013097 c -32.89235,4.2748 -65.60398,11.8059 -98.1269,24.7354 C 590.57348,192.4394 230.51604,225.9515 287.33351,401.3784 c 55.15562,170.2957 -46.42204,285.6035 -6.04395,376.1953 21.92826,50.0497 130.18827,88.2271 194.69093,143.0332 64.50268,54.8061 85.24845,126.2423 154.14698,146.8082 132.93435,39.6809 209.9094,-20.3596 342.56986,-12.6344 -8.32868,52.0994 22.03207,105.7129 86.35987,143.9488 158.0252,93.9307 465.8207,69.6803 648.2988,52.7182 70.4676,-6.5502 177.1857,2.6024 235.837,-37.541 19.1215,-13.0859 12.5648,-40.846 11.4536,-58.3081 -3.674,-57.9231 -25.8772,-104.2696 -59.6235,-146.5606 6.4219,-1.7715 12.6042,-3.7 18.6694,-5.7026 -30.5106,-33.6676 -44.1208,-101.7477 -41.3921,-132.876 1.9149,-25.54033 6.3849,-39.09542 11.5137,-56.8125 -80.0945,-6.8605 -188.8217,-81.7644 -238.6949,-147.8174 -182.2785,57.3032 -586.1283,-79.4088 -542.0332,-335.9634 3.684,-21.4336 9.0523,-43.1046 16.5981,-63.9096 C 1001.592,271.1983 991.87093,187.774 1002.3208,43.013097 Z"
       sodipodi:nodetypes="ccscscccscccccccscc"
       transform="matrix(1.3333333,0,0,1.3333333,0,7.8530188e-6)" /><g
       id="g4425"
       transform="rotate(45,-898.5059,-872.52884)"
       style="display:inline"
       mask="url(#mask5402)"><g
         id="g4423"
         transform="translate(88.000002,24)"><g
           id="g4235"
           transform="translate(-908.37349,-278.12837)"><rect
             style="opacity:0;fill:#b3062c;fill-opacity:1;stroke:none;stroke-width:21.5433;stroke-linecap:round;stroke-linejoin:round;stroke-miterlimit:4;stroke-dasharray:none;stroke-dashoffset:0;stroke-opacity:1"
             id="rect4233"
             width="102.00189"
             height="2394"
             x="930.8667"
             y="-2362.5857" /></g><g
           id="g4241"
           transform="translate(-772.37158,-278.1284)"><rect
             style="opacity:0;fill:#b3062c;fill-opacity:1;stroke:none;stroke-width:21.5433;stroke-linecap:round;stroke-linejoin:round;stroke-miterlimit:4;stroke-dasharray:none;stroke-dashoffset:0;stroke-opacity:1"
             id="rect4239"
             width="102.00189"
             height="2394"
             x="930.8667"
             y="-2362.5857" /></g><g
           id="g4247"
           transform="translate(-636.3697,-278.12837)"><rect
             style="opacity:0;fill:#b3062c;fill-opacity:1;stroke:none;stroke-width:21.5433;stroke-linecap:round;stroke-linejoin:round;stroke-miterlimit:4;stroke-dasharray:none;stroke-dashoffset:0;stroke-opacity:1"
             id="rect4245"
             width="102.00189"
             height="2394"
             x="930.8667"
             y="-2362.5857" /></g><g
           id="g4253"
           transform="translate(-500.36779,-278.12841)"><rect
             style="opacity:0;fill:#b3062c;fill-opacity:1;stroke:none;stroke-width:21.5433;stroke-linecap:round;stroke-linejoin:round;stroke-miterlimit:4;stroke-dasharray:none;stroke-dashoffset:0;stroke-opacity:1"
             id="rect4251"
             width="102.00189"
             height="2394"
             x="930.8667"
             y="-2362.5857" /></g><g
           id="g4259"
           transform="translate(-364.36591,-278.12829)"><rect
             style="opacity:0;fill:#b3062c;fill-opacity:1;stroke:none;stroke-width:21.5433;stroke-linecap:round;stroke-linejoin:round;stroke-miterlimit:4;stroke-dasharray:none;stroke-dashoffset:0;stroke-opacity:1"
             id="rect4257"
             width="102.00189"
             height="2394"
             x="930.8667"
             y="-2362.5857" /></g><g
           id="g4265"
           transform="translate(-228.36398,-278.1284)"><rect
             style="opacity:0;fill:#b3062c;fill-opacity:1;stroke:none;stroke-width:21.5433;stroke-linecap:round;stroke-linejoin:round;stroke-miterlimit:4;stroke-dasharray:none;stroke-dashoffset:0;stroke-opacity:1"
             id="rect4263"
             width="102.00189"
             height="2394"
             x="930.8667"
             y="-2362.5857" /></g><g
           id="g4271"
           transform="translate(-92.362103,-278.12837)"><rect
             style="opacity:0;fill:#b3062c;fill-opacity:1;stroke:none;stroke-width:21.5433;stroke-linecap:round;stroke-linejoin:round;stroke-miterlimit:4;stroke-dasharray:none;stroke-dashoffset:0;stroke-opacity:1"
             id="rect4269"
             width="102.00189"
             height="2394"
             x="930.8667"
             y="-2362.5857" /></g><g
           id="g4277"
           transform="translate(43.639768,-278.12834)"><rect
             style="fill:#b3062c;fill-opacity:1;stroke:none;stroke-width:21.5433;stroke-linecap:round;stroke-linejoin:round;stroke-miterlimit:4;stroke-dasharray:none;stroke-dashoffset:0;stroke-opacity:1"
             id="rect4273"
             width="34"
             height="2394"
             x="896.8667"
             y="-2362.5857" /><rect
             style="opacity:0;fill:#b3062c;fill-opacity:1;stroke:none;stroke-width:21.5433;stroke-linecap:round;stroke-linejoin:round;stroke-miterlimit:4;stroke-dasharray:none;stroke-dashoffset:0;stroke-opacity:1"
             id="rect4275"
             width="102.00189"
             height="2394"
             x="930.8667"
             y="-2362.5857" /></g><g
           id="g4283"
           transform="translate(179.64165,-278.12831)"><rect
             style="fill:#b3062c;fill-opacity:1;stroke:none;stroke-width:21.5433;stroke-linecap:round;stroke-linejoin:round;stroke-miterlimit:4;stroke-dasharray:none;stroke-dashoffset:0;stroke-opacity:1"
             id="rect4279"
             width="34"
             height="2394"
             x="896.8667"
             y="-2362.5857" /><rect
             style="opacity:0;fill:#b3062c;fill-opacity:1;stroke:none;stroke-width:21.5433;stroke-linecap:round;stroke-linejoin:round;stroke-miterlimit:4;stroke-dasharray:none;stroke-dashoffset:0;stroke-opacity:1"
             id="rect4281"
             width="102.00189"
             height="2394"
             x="930.8667"
             y="-2362.5857" /></g><g
           id="g4289"
           transform="translate(315.64352,-278.12828)"><rect
             style="fill:#b3062c;fill-opacity:1;stroke:none;stroke-width:21.5433;stroke-linecap:round;stroke-linejoin:round;stroke-miterlimit:4;stroke-dasharray:none;stroke-dashoffset:0;stroke-opacity:1"
             id="rect4285"
             width="34"
             height="2394"
             x="896.8667"
             y="-2362.5857" /><rect
             style="opacity:0;fill:#b3062c;fill-opacity:1;stroke:none;stroke-width:21.5433;stroke-linecap:round;stroke-linejoin:round;stroke-miterlimit:4;stroke-dasharray:none;stroke-dashoffset:0;stroke-opacity:1"
             id="rect4287"
             width="102.00189"
             height="2394"
             x="930.8667"
             y="-2362.5857" /></g><g
           id="g4295"
           transform="translate(451.6454,-278.12825)"><rect
             style="fill:#b3062c;fill-opacity:1;stroke:none;stroke-width:21.5433;stroke-linecap:round;stroke-linejoin:round;stroke-miterlimit:4;stroke-dasharray:none;stroke-dashoffset:0;stroke-opacity:1"
             id="rect4291"
             width="34"
             height="2394"
             x="896.8667"
             y="-2362.5857" /><rect
             style="opacity:0;fill:#b3062c;fill-opacity:1;stroke:none;stroke-width:21.5433;stroke-linecap:round;stroke-linejoin:round;stroke-miterlimit:4;stroke-dasharray:none;stroke-dashoffset:0;stroke-opacity:1"
             id="rect4293"
             width="102.00189"
             height="2394"
             x="930.8667"
             y="-2362.5857" /></g><g
           id="g4301"
           transform="translate(587.64737,-278.12826)"><rect
             style="fill:#b3062c;fill-opacity:1;stroke:none;stroke-width:21.5433;stroke-linecap:round;stroke-linejoin:round;stroke-miterlimit:4;stroke-dasharray:none;stroke-dashoffset:0;stroke-opacity:1"
             id="rect4297"
             width="34"
             height="2394"
             x="896.8667"
             y="-2362.5857" /><rect
             style="opacity:0;fill:#b3062c;fill-opacity:1;stroke:none;stroke-width:21.5433;stroke-linecap:round;stroke-linejoin:round;stroke-miterlimit:4;stroke-dasharray:none;stroke-dashoffset:0;stroke-opacity:1"
             id="rect4299"
             width="102.00189"
             height="2394"
             x="930.8667"
             y="-2362.5857" /></g><g
           id="g4307"
           transform="translate(723.64921,-278.12816)"><rect
             style="fill:#b3062c;fill-opacity:1;stroke:none;stroke-width:21.5433;stroke-linecap:round;stroke-linejoin:round;stroke-miterlimit:4;stroke-dasharray:none;stroke-dashoffset:0;stroke-opacity:1"
             id="rect4303"
             width="34"
             height="2394"
             x="896.8667"
             y="-2362.5857" /><rect
             style="opacity:0;fill:#b3062c;fill-opacity:1;stroke:none;stroke-width:21.5433;stroke-linecap:round;stroke-linejoin:round;stroke-miterlimit:4;stroke-dasharray:none;stroke-dashoffset:0;stroke-opacity:1"
             id="rect4305"
             width="102.00189"
             height="2394"
             x="930.8667"
             y="-2362.5857" /></g><g
           id="g4313"
           transform="translate(859.65115,-278.12827)"><rect
             style="fill:#b3062c;fill-opacity:1;stroke:none;stroke-width:21.5433;stroke-linecap:round;stroke-linejoin:round;stroke-miterlimit:4;stroke-dasharray:none;stroke-dashoffset:0;stroke-opacity:1"
             id="rect4309"
             width="34"
             height="2394"
             x="896.8667"
             y="-2362.5857" /><rect
             style="opacity:0;fill:#b3062c;fill-opacity:1;stroke:none;stroke-width:21.5433;stroke-linecap:round;stroke-linejoin:round;stroke-miterlimit:4;stroke-dasharray:none;stroke-dashoffset:0;stroke-opacity:1"
             id="rect4311"
             width="102.00189"
             height="2394"
             x="930.8667"
             y="-2362.5857" /></g><g
           id="g4319"
           transform="translate(995.653,-278.12824)"><rect
             style="fill:#b3062c;fill-opacity:1;stroke:none;stroke-width:21.5433;stroke-linecap:round;stroke-linejoin:round;stroke-miterlimit:4;stroke-dasharray:none;stroke-dashoffset:0;stroke-opacity:1"
             id="rect4315"
             width="34"
             height="2394"
             x="896.8667"
             y="-2362.5857" /><rect
             style="opacity:0;fill:#b3062c;fill-opacity:1;stroke:none;stroke-width:21.5433;stroke-linecap:round;stroke-linejoin:round;stroke-miterlimit:4;stroke-dasharray:none;stroke-dashoffset:0;stroke-opacity:1"
             id="rect4317"
             width="102.00189"
             height="2394"
             x="930.8667"
             y="-2362.5857" /></g><g
           id="g4325"
           transform="translate(1131.6549,-278.12821)"><rect
             style="fill:#b3062c;fill-opacity:1;stroke:none;stroke-width:21.5433;stroke-linecap:round;stroke-linejoin:round;stroke-miterlimit:4;stroke-dasharray:none;stroke-dashoffset:0;stroke-opacity:1"
             id="rect4321"
             width="34"
             height="2394"
             x="896.8667"
             y="-2362.5857" /><rect
             style="opacity:0;fill:#b3062c;fill-opacity:1;stroke:none;stroke-width:21.5433;stroke-linecap:round;stroke-linejoin:round;stroke-miterlimit:4;stroke-dasharray:none;stroke-dashoffset:0;stroke-opacity:1"
             id="rect4323"
             width="102.00189"
             height="2394"
             x="930.8667"
             y="-2362.5857" /></g><g
           id="g4331"
           transform="translate(1267.6568,-278.12818)"><rect
             style="fill:#b3062c;fill-opacity:1;stroke:none;stroke-width:21.5433;stroke-linecap:round;stroke-linejoin:round;stroke-miterlimit:4;stroke-dasharray:none;stroke-dashoffset:0;stroke-opacity:1"
             id="rect4327"
             width="34"
             height="2394"
             x="896.8667"
             y="-2362.5857" /><rect
             style="opacity:0;fill:#b3062c;fill-opacity:1;stroke:none;stroke-width:21.5433;stroke-linecap:round;stroke-linejoin:round;stroke-miterlimit:4;stroke-dasharray:none;stroke-dashoffset:0;stroke-opacity:1"
             id="rect4329"
             width="102.00189"
             height="2394"
             x="930.8667"
             y="-2362.5857" /></g><g
           id="g4337"
           transform="translate(1403.6587,-278.12823)"><rect
             style="fill:#b3062c;fill-opacity:1;stroke:none;stroke-width:21.5433;stroke-linecap:round;stroke-linejoin:round;stroke-miterlimit:4;stroke-dasharray:none;stroke-dashoffset:0;stroke-opacity:1"
             id="rect4333"
             width="34"
             height="2394"
             x="896.8667"
             y="-2362.5857" /><rect
             style="opacity:0;fill:#b3062c;fill-opacity:1;stroke:none;stroke-width:21.5433;stroke-linecap:round;stroke-linejoin:round;stroke-miterlimit:4;stroke-dasharray:none;stroke-dashoffset:0;stroke-opacity:1"
             id="rect4335"
             width="102.00189"
             height="2394"
             x="930.8667"
             y="-2362.5857" /></g><g
           id="g4343"
           transform="translate(1539.6606,-278.1282)"><rect
             style="fill:#b3062c;fill-opacity:1;stroke:none;stroke-width:21.5433;stroke-linecap:round;stroke-linejoin:round;stroke-miterlimit:4;stroke-dasharray:none;stroke-dashoffset:0;stroke-opacity:1"
             id="rect4339"
             width="34"
             height="2394"
             x="896.8667"
             y="-2362.5857" /><rect
             style="opacity:0;fill:#b3062c;fill-opacity:1;stroke:none;stroke-width:21.5433;stroke-linecap:round;stroke-linejoin:round;stroke-miterlimit:4;stroke-dasharray:none;stroke-dashoffset:0;stroke-opacity:1"
             id="rect4341"
             width="102.00189"
             height="2394"
             x="930.8667"
             y="-2362.5857" /></g><g
           id="g4349"
           transform="translate(1675.6625,-278.12824)"><rect
             style="fill:#b3062c;fill-opacity:1;stroke:none;stroke-width:21.5433;stroke-linecap:round;stroke-linejoin:round;stroke-miterlimit:4;stroke-dasharray:none;stroke-dashoffset:0;stroke-opacity:1"
             id="rect4345"
             width="34"
             height="2394"
             x="896.8667"
             y="-2362.5857" /><rect
             style="opacity:0;fill:#b3062c;fill-opacity:1;stroke:none;stroke-width:21.5433;stroke-linecap:round;stroke-linejoin:round;stroke-miterlimit:4;stroke-dasharray:none;stroke-dashoffset:0;stroke-opacity:1"
             id="rect4347"
             width="102.00189"
             height="2394"
             x="930.8667"
             y="-2362.5857" /></g><g
           id="g4355"
           transform="translate(1811.6644,-278.12811)"><rect
             style="fill:#b3062c;fill-opacity:1;stroke:none;stroke-width:21.5433;stroke-linecap:round;stroke-linejoin:round;stroke-miterlimit:4;stroke-dasharray:none;stroke-dashoffset:0;stroke-opacity:1"
             id="rect4351"
             width="34"
             height="2394"
             x="896.8667"
             y="-2362.5857" /><rect
             style="opacity:0;fill:#b3062c;fill-opacity:1;stroke:none;stroke-width:21.5433;stroke-linecap:round;stroke-linejoin:round;stroke-miterlimit:4;stroke-dasharray:none;stroke-dashoffset:0;stroke-opacity:1"
             id="rect4353"
             width="102.00189"
             height="2394"
             x="930.8667"
             y="-2362.5857" /></g><g
           id="g4361"
           transform="translate(1947.6663,-278.12822)"><rect
             style="fill:#b3062c;fill-opacity:1;stroke:none;stroke-width:21.5433;stroke-linecap:round;stroke-linejoin:round;stroke-miterlimit:4;stroke-dasharray:none;stroke-dashoffset:0;stroke-opacity:1"
             id="rect4357"
             width="34"
             height="2394"
             x="896.8667"
             y="-2362.5857" /><rect
             style="opacity:0;fill:#b3062c;fill-opacity:1;stroke:none;stroke-width:21.5433;stroke-linecap:round;stroke-linejoin:round;stroke-miterlimit:4;stroke-dasharray:none;stroke-dashoffset:0;stroke-opacity:1"
             id="rect4359"
             width="102.00189"
             height="2394"
             x="930.8667"
             y="-2362.5857" /></g><g
           id="g4367"
           transform="translate(2083.6682,-278.12819)"><rect
             style="fill:#b3062c;fill-opacity:1;stroke:none;stroke-width:21.5433;stroke-linecap:round;stroke-linejoin:round;stroke-miterlimit:4;stroke-dasharray:none;stroke-dashoffset:0;stroke-opacity:1"
             id="rect4363"
             width="34"
             height="2394"
             x="896.8667"
             y="-2362.5857" /><rect
             style="opacity:0;fill:#b3062c;fill-opacity:1;stroke:none;stroke-width:21.5433;stroke-linecap:round;stroke-linejoin:round;stroke-miterlimit:4;stroke-dasharray:none;stroke-dashoffset:0;stroke-opacity:1"
             id="rect4365"
             width="102.00189"
             height="2394"
             x="930.8667"
             y="-2362.5857" /></g><g
           id="g4373"
           transform="translate(2219.6701,-278.12816)"><rect
             style="fill:#b3062c;fill-opacity:1;stroke:none;stroke-width:21.5433;stroke-linecap:round;stroke-linejoin:round;stroke-miterlimit:4;stroke-dasharray:none;stroke-dashoffset:0;stroke-opacity:1"
             id="rect4369"
             width="34"
             height="2394"
             x="896.8667"
             y="-2362.5857" /><rect
             style="opacity:0;fill:#b3062c;fill-opacity:1;stroke:none;stroke-width:21.5433;stroke-linecap:round;stroke-linejoin:round;stroke-miterlimit:4;stroke-dasharray:none;stroke-dashoffset:0;stroke-opacity:1"
             id="rect4371"
             width="102.00189"
             height="2394"
             x="930.8667"
             y="-2362.5857" /></g><g
           id="g4379"
           transform="translate(2355.6719,-278.12813)"><rect
             style="opacity:0;fill:#b3062c;fill-opacity:1;stroke:none;stroke-width:21.5433;stroke-linecap:round;stroke-linejoin:round;stroke-miterlimit:4;stroke-dasharray:none;stroke-dashoffset:0;stroke-opacity:1"
             id="rect4377"
             width="102.00189"
             height="2394"
             x="930.8667"
             y="-2362.5857" /></g><g
           id="g4385"
           transform="translate(2491.6738,-278.1281)"><rect
             style="opacity:0;fill:#b3062c;fill-opacity:1;stroke:none;stroke-width:21.5433;stroke-linecap:round;stroke-linejoin:round;stroke-miterlimit:4;stroke-dasharray:none;stroke-dashoffset:0;stroke-opacity:1"
             id="rect4383"
             width="102.00189"
             height="2394"
             x="930.8667"
             y="-2362.5857" /></g><g
           id="g4391"
           transform="translate(2627.6757,-278.12807)"><rect
             style="opacity:0;fill:#b3062c;fill-opacity:1;stroke:none;stroke-width:21.5433;stroke-linecap:round;stroke-linejoin:round;stroke-miterlimit:4;stroke-dasharray:none;stroke-dashoffset:0;stroke-opacity:1"
             id="rect4389"
             width="102.00189"
             height="2394"
             x="930.8667"
             y="-2362.5857" /></g><g
           id="g4397"
           transform="translate(2763.6777,-278.12808)"><rect
             style="opacity:0;fill:#b3062c;fill-opacity:1;stroke:none;stroke-width:21.5433;stroke-linecap:round;stroke-linejoin:round;stroke-miterlimit:4;stroke-dasharray:none;stroke-dashoffset:0;stroke-opacity:1"
             id="rect4395"
             width="102.00189"
             height="2394"
             x="930.8667"
             y="-2362.5857" /></g><g
           id="g4403"
           transform="translate(2899.6795,-278.12797)"><rect
             style="opacity:0;fill:#b3062c;fill-opacity:1;stroke:none;stroke-width:21.5433;stroke-linecap:round;stroke-linejoin:round;stroke-miterlimit:4;stroke-dasharray:none;stroke-dashoffset:0;stroke-opacity:1"
             id="rect4401"
             width="102.00189"
             height="2394"
             x="930.8667"
             y="-2362.5857" /></g><g
           id="g4409"
           transform="translate(3035.6814,-278.12808)"><rect
             style="opacity:0;fill:#b3062c;fill-opacity:1;stroke:none;stroke-width:21.5433;stroke-linecap:round;stroke-linejoin:round;stroke-miterlimit:4;stroke-dasharray:none;stroke-dashoffset:0;stroke-opacity:1"
             id="rect4407"
             width="102.00189"
             height="2394"
             x="930.8667"
             y="-2362.5857" /></g><g
           id="g4415"
           transform="translate(3171.6833,-278.12806)"><rect
             style="opacity:0;fill:#b3062c;fill-opacity:1;stroke:none;stroke-width:21.5433;stroke-linecap:round;stroke-linejoin:round;stroke-miterlimit:4;stroke-dasharray:none;stroke-dashoffset:0;stroke-opacity:1"
             id="rect4413"
             width="102.00189"
             height="2394"
             x="930.8667"
             y="-2362.5857" /></g><g
           id="g4421"
           transform="translate(3307.6852,-278.12803)"><rect
             style="opacity:0;fill:#b3062c;fill-opacity:1;stroke:none;stroke-width:21.5433;stroke-linecap:round;stroke-linejoin:round;stroke-miterlimit:4;stroke-dasharray:none;stroke-dashoffset:0;stroke-opacity:1"
             id="rect4419"
             width="102.00189"
             height="2394"
             x="930.8667"
             y="-2362.5857" /></g></g></g></g><g
     inkscape:groupmode="layer"
     id="layer2"
     inkscape:label="Umrandung (klein)"
     style="display:inline"
     transform="translate(-351.11858,0.01885261)" /><g
     inkscape:groupmode="layer"
     id="layer3"
     inkscape:label="Schrift"
     transform="translate(-351.11858,0.01885261)" /></svg>
