<?xml version="1.0" encoding="UTF-8" standalone="no"?>
<!-- Created with Inkscape (http://www.inkscape.org/) -->

<svg
   width="200mm"
   height="200mm"
   viewBox="0 0 200 200"
   version="1.1"
   id="svg3546"
   inkscape:version="1.1.1 (3bf5ae0d25, 2021-09-20)"
   sodipodi:docname="nowater.svg"
   xmlns:inkscape="http://www.inkscape.org/namespaces/inkscape"
   xmlns:sodipodi="http://sodipodi.sourceforge.net/DTD/sodipodi-0.dtd"
   xmlns="http://www.w3.org/2000/svg"
   xmlns:svg="http://www.w3.org/2000/svg">
  <sodipodi:namedview
     id="namedview3548"
     pagecolor="#ffffff"
     bordercolor="#666666"
     borderopacity="1.0"
     inkscape:pageshadow="2"
     inkscape:pageopacity="0.0"
     inkscape:pagecheckerboard="0"
     inkscape:document-units="mm"
     showgrid="false"
     inkscape:zoom="1.3273709"
     inkscape:cx="424.14671"
     inkscape:cy="312.27142"
     inkscape:window-width="2560"
     inkscape:window-height="1387"
     inkscape:window-x="1912"
     inkscape:window-y="-8"
     inkscape:window-maximized="1"
     inkscape:current-layer="layer1" />
  <defs
     id="defs3543" />
  <g
     inkscape:label="Ebene 1"
     inkscape:groupmode="layer"
     id="layer1">
    <g
       id="g5248"
       style="fill:#ffffff;fill-opacity:1;stroke:#00608f;stroke-opacity:1">
      <path
         id="path1928"
         style="fill:none;fill-opacity:1;stroke:#00608f;stroke-width:5.69999981;stroke-linecap:round;stroke-linejoin:round;stroke-dashoffset:170;stroke-miterlimit:4;stroke-dasharray:317, 92, 300;stroke-opacity:1"
         d="m 52.296096,90.74186 c -13.233999,18.81215 -13.72535,39.59975 -4.510297,56.20452 9.215054,16.60478 26.527095,25.98806 44.954412,25.98806 18.427379,0 35.739519,-9.38328 44.954619,-25.98806 9.21511,-16.60477 8.72375,-37.39237 -4.51032,-56.20452 C 119.95043,71.929709 100.00262,54.364034 92.740211,21.846752 85.477802,54.364034 65.530095,71.929709 52.296096,90.74186 Z"
         sodipodi:nodetypes="zscszcz" />
      <path
         style="fill:#ffffff;fill-opacity:1;fill-rule:evenodd;stroke:#00608f;stroke-width:5.7;stroke-linecap:round;stroke-linejoin:miter;stroke-miterlimit:4;stroke-dasharray:none;stroke-opacity:1"
         d="m 57.556206,123.63372 c 0.467856,-8.97641 2.910923,-17.83189 9.866781,-26.41107"
         id="path5031"
         sodipodi:nodetypes="cc" />
    </g>
    <g
       id="g5336"
       transform="matrix(0.58945021,0,0,0.59638663,80.928263,50.037309)"
       style="fill:#ffffff;fill-opacity:1;stroke-width:1.6866;stroke:#00608f;stroke-opacity:1">
      <path
         id="path5332"
         style="fill:none;fill-opacity:1;stroke:#00608f;stroke-width:9.61362825;stroke-linecap:round;stroke-linejoin:round;stroke-dashoffset:60.56585799;stroke-miterlimit:4;stroke-dasharray:199.9999575, 17, 0.06249998, 17, 300;stroke-opacity:1"
         d="m 52.296096,90.74186 c -13.233999,18.81215 -13.72535,39.59975 -4.510297,56.20452 9.215054,16.60478 26.527095,25.98806 44.954412,25.98806 18.427379,0 35.739519,-9.38328 44.954619,-25.98806 9.21511,-16.60477 8.72375,-37.39237 -4.51032,-56.20452 C 119.95043,71.929709 100.00262,54.364034 92.740211,21.846752 85.477802,54.364034 65.530095,71.929709 52.296096,90.74186 Z"
         sodipodi:nodetypes="zscszcz" />
      <path
         style="fill:#ffffff;fill-opacity:1;fill-rule:evenodd;stroke:#00608f;stroke-width:9.61363;stroke-linecap:round;stroke-linejoin:miter;stroke-miterlimit:4;stroke-dasharray:none;stroke-opacity:1"
         d="m 57.556206,123.63372 c 0.467856,-8.97641 2.910923,-17.83189 9.866781,-26.41107"
         id="path5334"
         sodipodi:nodetypes="cc" />
    </g>
    <g
       id="g3798"
       transform="translate(-149.55972,0.33557892)">
      <circle
         style="fill:none;fill-opacity:1;stroke:#b3062c;stroke-width:10;stroke-linecap:round;stroke-miterlimit:4;stroke-dasharray:none;stroke-dashoffset:111.84;stroke-opacity:1"
         id="path1272"
         cx="249.55972"
         cy="99.664429"
         r="95.000008" />
      <path
         style="fill:none;fill-rule:evenodd;stroke:#b3062c;stroke-width:10;stroke-linecap:butt;stroke-linejoin:miter;stroke-miterlimit:4;stroke-dasharray:none;stroke-opacity:1"
         d="M 183.98403,165.2401 318.31591,30.90823"
         id="path2409"
         sodipodi:nodetypes="cc" />
    </g>
  </g>
</svg>
