<?xml version="1.0" encoding="UTF-8" standalone="no"?>
<!-- Created with Inkscape (http://www.inkscape.org/) -->

<svg
   width="200mm"
   height="200mm"
   viewBox="0 0 200 200"
   version="1.1"
   id="svg3546"
   inkscape:version="1.1.1 (3bf5ae0d25, 2021-09-20)"
   sodipodi:docname="nowater.svg"
   xmlns:inkscape="http://www.inkscape.org/namespaces/inkscape"
   xmlns:sodipodi="http://sodipodi.sourceforge.net/DTD/sodipodi-0.dtd"
   xmlns="http://www.w3.org/2000/svg"
   xmlns:svg="http://www.w3.org/2000/svg">
  <sodipodi:namedview
     id="namedview3548"
     pagecolor="#ffffff"
     bordercolor="#666666"
     borderopacity="1.0"
     inkscape:pageshadow="2"
     inkscape:pageopacity="0.0"
     inkscape:pagecheckerboard="0"
     inkscape:document-units="mm"
     showgrid="false"
     inkscape:zoom="0.93859299"
     inkscape:cx="284.46835"
     inkscape:cy="228.53356"
     inkscape:window-width="2560"
     inkscape:window-height="1387"
     inkscape:window-x="1912"
     inkscape:window-y="-8"
     inkscape:window-maximized="1"
     inkscape:current-layer="layer1" />
  <defs
     id="defs3543" />
  <g
     inkscape:label="Ebene 1"
     inkscape:groupmode="layer"
     id="layer1">
    <g
       id="Layer_2"
       transform="matrix(0.36075546,0,0,0.36075546,11.755077,6.3875701)"
       style="fill:#00608f;fill-opacity:1;stroke-width:1.38598041;stroke:#00608f;stroke-opacity:1;stroke-miterlimit:4;stroke-dasharray:none">
      <g
         id="g13"
         style="fill:#00608f;fill-opacity:1;stroke-width:1.38598041;stroke:#00608f;stroke-opacity:1;stroke-miterlimit:4;stroke-dasharray:none">
        <path
           class="st1"
           d="m 147.88,249.38 c -16.39,22.35 -27.3,43.26 -27.3,72.68 0,3.87 3.13,7 7,7 3.87,0 7,-3.13 7,-7 0,-25.7 9.41,-43.7 24.59,-64.4 2.29,-3.12 1.61,-7.5 -1.5,-9.78 -3.13,-2.3 -7.51,-1.62 -9.79,1.5 z"
           id="path5"
           style="fill:#00608f;fill-opacity:1;stroke-width:1.38598041;stroke:#00608f;stroke-opacity:1;stroke-miterlimit:4;stroke-dasharray:none" />
        <path
           class="st1"
           d="m 415.37,368.12 c -0.26,-0.38 -0.55,-0.74 -0.87,-1.06 -1.63,-1.63 -4.05,-2.37 -6.32,-1.92 -0.45,0.09 -0.89,0.23 -1.31,0.4 -0.42,0.18 -0.83,0.4 -1.21,0.65 -0.38,0.25 -0.74,0.54 -1.06,0.87 -0.33,0.32 -0.62,0.68 -0.87,1.06 -0.26,0.38 -0.47,0.79 -0.65,1.21 -0.17,0.42 -0.31,0.86 -0.4,1.31 -0.09,0.45 -0.13,0.91 -0.13,1.37 0,0.45 0.04,0.91 0.13,1.36 0.09,0.45 0.23,0.89 0.4,1.31 0.18,0.43 0.39,0.83 0.65,1.21 0.25,0.38 0.54,0.74 0.87,1.07 0.32,0.32 0.68,0.61 1.06,0.87 0.38,0.25 0.79,0.47 1.21,0.64 0.42,0.18 0.86,0.31 1.31,0.4 0.45,0.09 0.91,0.14 1.36,0.14 0.46,0 0.92,-0.05 1.37,-0.14 0.45,-0.09 0.89,-0.22 1.31,-0.4 0.43,-0.17 0.83,-0.39 1.21,-0.64 0.38,-0.26 0.74,-0.55 1.07,-0.87 0.32,-0.33 0.61,-0.69 0.87,-1.07 0.25,-0.38 0.46,-0.78 0.64,-1.21 0.18,-0.42 0.31,-0.86 0.4,-1.31 0.09,-0.45 0.14,-0.91 0.14,-1.36 0,-0.46 -0.05,-0.92 -0.14,-1.37 -0.09,-0.45 -0.22,-0.89 -0.4,-1.31 -0.18,-0.42 -0.39,-0.83 -0.64,-1.21 z"
           id="path7"
           style="fill:#00608f;fill-opacity:1;stroke-width:1.38598041;stroke:#00608f;stroke-opacity:1;stroke-miterlimit:4;stroke-dasharray:none" />
        <path
           class="st1"
           d="m 418.81,359.04 c 3.51,1.6 7.67,0.06 9.27,-3.46 5.53,-12.12 8.33,-25.1 8.33,-38.58 0,-35.57 -16.86,-57.91 -46.67,-94.35 -12.71,-15.52 -27.12,-33.12 -40.38,-53.9 -1.29,-2.01 -3.51,-3.23 -5.9,-3.23 0,0 0,0 -0.01,0 -2.39,0 -4.62,1.23 -5.9,3.25 -7.74,12.19 -15.8,23.08 -22.33,31.52 -2.6,-3.21 -5.25,-6.45 -7.99,-9.79 -29.42,-35.95 -62.76,-76.69 -78.42,-141.62 -0.76,-3.14 -3.57,-5.36 -6.81,-5.36 -3.24,0 -6.05,2.22 -6.8,5.36 -15.81,65.72 -49.24,106.45 -78.74,142.39 -31.31,38.15 -60.89,74.19 -60.89,130.8 0,29.93 8.96,58.7 25.92,83.2 27.38,39.6 72.43,63.24 120.52,63.24 32.79,0 63.78,-10.59 89.63,-30.62 3.06,-2.37 3.61,-6.77 1.25,-9.82 -2.37,-3.06 -6.77,-3.61 -9.82,-1.25 -23.37,18.11 -51.4,27.69 -81.05,27.69 -43.49,0 -84.24,-21.38 -109,-57.2 -15.33,-22.15 -23.44,-48.17 -23.44,-75.24 0,-51.61 26.75,-84.19 57.71,-121.92 26.76,-32.6 56.65,-69.01 74.74,-124.06 17.98,54.37 47.74,90.72 74.37,123.27 3.42,4.18 6.7,8.18 9.91,12.17 -0.07,0.08 -0.13,0.16 -0.2,0.25 -1.37,1.7 -2.73,3.37 -4.08,5.02 -0.44,0.54 -0.89,1.08 -1.33,1.62 -1.29,1.58 -2.57,3.14 -3.84,4.69 l -0.26,0.32 c -29.58,36.04 -46.32,58.16 -46.32,93.57 0,19.02 5.69,37.3 16.46,52.86 2.47,3.57 5.16,6.94 8.06,10.1 15.04,16.39 35.43,26.89 57.76,29.49 0.86,0.1 1.73,0.19 2.59,0.27 2.71,0.24 5.46,0.36 8.2,0.36 19.39,0 38,-5.94 53.84,-17.16 3.15,-2.24 3.9,-6.61 1.66,-9.76 -2.24,-3.15 -6.61,-3.89 -9.76,-1.66 -13.45,9.54 -29.27,14.58 -45.74,14.58 -2.33,0 -4.68,-0.1 -6.97,-0.3 -23.5,-2.08 -44.68,-14.43 -58.12,-33.87 -9.14,-13.21 -13.98,-28.73 -13.98,-44.9 0,-30.76 14,-49.19 43.14,-84.69 l 0.26,-0.32 c 4.21,-5.13 8.56,-10.43 13.01,-16.01 0.02,-0.02 0.04,-0.05 0.06,-0.07 v 0 c 0,0 0,0 0,0 5.92,-7.44 14.22,-18.12 22.71,-30.65 11.95,17.58 24.33,32.7 35.44,46.27 29.38,35.91 43.5,54.55 43.5,85.48 0,11.46 -2.38,22.49 -7.07,32.77 -1.59,3.49 -0.04,7.64 3.48,9.25 z"
           id="path9"
           style="fill:#00608f;fill-opacity:1;stroke-width:1.38598041;stroke:#00608f;stroke-opacity:1;stroke-miterlimit:4;stroke-dasharray:none" />
        <path
           class="st1"
           d="m 301.91,281.72 c -3.35,-1.94 -7.63,-0.79 -9.56,2.55 -6.43,11.12 -9.06,20.6 -9.06,32.71 0,5.34 0.7,10.63 2.07,15.72 0.84,3.12 3.67,5.18 6.75,5.18 0.6,0 1.22,-0.08 1.83,-0.24 3.73,-1.01 5.94,-4.85 4.93,-8.58 -1.05,-3.91 -1.59,-7.97 -1.59,-12.07 0,-9.69 1.95,-16.66 7.18,-25.7 1.94,-3.35 0.8,-7.63 -2.55,-9.57 z"
           id="path11"
           style="fill:#00608f;fill-opacity:1;stroke-width:1.38598041;stroke:#00608f;stroke-opacity:1;stroke-miterlimit:4;stroke-dasharray:none" />
      </g>
    </g>
    <g
       id="g3798"
       transform="translate(-149.55972,0.33557892)">
      <circle
         style="fill:none;fill-opacity:1;stroke:#b3062c;stroke-width:10;stroke-linecap:round;stroke-miterlimit:4;stroke-dasharray:none;stroke-dashoffset:111.84;stroke-opacity:1"
         id="path1272"
         cx="249.55972"
         cy="99.664429"
         r="95.000008" />
      <path
         style="fill:none;fill-rule:evenodd;stroke:#b3062c;stroke-width:10;stroke-linecap:butt;stroke-linejoin:miter;stroke-miterlimit:4;stroke-dasharray:none;stroke-opacity:1"
         d="M 183.98403,165.2401 318.31591,30.90823"
         id="path2409"
         sodipodi:nodetypes="cc" />
    </g>
  </g>
</svg>
