<?xml version="1.0" encoding="UTF-8" standalone="no"?>
<!-- Created with Inkscape (http://www.inkscape.org/) -->

<svg
   version="1.1"
   id="svg823"
   xml:space="preserve"
   width="800mm"
   height="450mm"
   viewBox="0 0 3023.622 1700.7875"
   sodipodi:docname="optainable_anal.svg"
   inkscape:version="1.1.1 (3bf5ae0d25, 2021-09-20)"
   xmlns:inkscape="http://www.inkscape.org/namespaces/inkscape"
   xmlns:sodipodi="http://sodipodi.sourceforge.net/DTD/sodipodi-0.dtd"
   xmlns="http://www.w3.org/2000/svg"
   xmlns:svg="http://www.w3.org/2000/svg"><defs
     id="defs827" /><sodipodi:namedview
     id="namedview825"
     pagecolor="#ffffff"
     bordercolor="#666666"
     borderopacity="1.0"
     inkscape:pageshadow="2"
     inkscape:pageopacity="0.0"
     inkscape:pagecheckerboard="0"
     showgrid="false"
     height="500px"
     inkscape:zoom="0.5"
     inkscape:cx="1258"
     inkscape:cy="711"
     inkscape:window-width="2560"
     inkscape:window-height="1387"
     inkscape:window-x="1912"
     inkscape:window-y="-8"
     inkscape:window-maximized="1"
     inkscape:current-layer="g829"
     units="mm"
     inkscape:document-units="mm" /><g
     id="g829"
     inkscape:groupmode="layer"
     inkscape:label="optainable_anal"
     transform="matrix(1.3333333,0,0,1.3333333,0,7.853019e-6)"><path
       d="M 904.1944,67.747511 C 590.57399,192.43841 230.51606,225.95089 287.33353,401.37771 c 55.15562,170.29578 -46.42228,285.60409 -6.04418,376.19578 21.92826,50.04971 130.18838,88.22679 194.69107,143.03288 64.50268,54.80609 85.24794,126.24123 154.14647,146.80703 137.79312,41.1316 215.27481,-25.1081 357.17171,-11.7172 141.8916,13.3918 281.1304,-37.2754 361.2496,-34.5532 147.1445,5.0003 529.9099,47.6789 641.6958,-59.6398 43.3494,-41.6196 108.7566,-42.02257 145.0659,-89.46661 76.6497,-100.15539 134.4857,-164.32343 122.85,-298.21497 C 2249.2842,471.67914 2179.604,520.10023 2119.626,441.16519 1958.6007,229.24975 1654.3602,-18.625973 1361.6165,10.414871 1322.4531,14.302117 1290.4835,45.179073 1253.143,44.410027 1134.424,41.963874 1018.1925,22.427631 904.1944,67.747511 Z"
       style="fill:#333333;stroke:none;stroke-width:16.1575;stroke-linecap:butt;stroke-linejoin:miter;stroke-miterlimit:4;stroke-dasharray:none;stroke-opacity:1;fill-opacity:1"
       id="path16786"
       sodipodi:nodetypes="cscsccccsccccc" /><path
       d="m 1408.1119,819.44721 c -59.2491,0.45308 -113.958,25.32964 -165.7348,49.39313 -63.5451,29.53792 -135.8476,47.36301 -193.8254,84.67041 -45.0704,29.00481 -69.7861,64.44905 -75.7869,100.65835 4.8423,0.512 9.6659,1.066 14.5338,1.5271 141.8916,13.3918 281.1304,-37.2754 361.2496,-34.5532 119.1958,4.0512 392.9675,32.8032 552.1026,-13.4619 -13.8765,-16.43796 -30.7489,-32.228 -51.0276,-47.78 -58.2965,-44.70587 -130.6159,-82.7822 -204.3282,-107.83083 -42.5925,-14.47795 -90.4155,-25.23256 -136.533,-27.16169 -29.3781,-1.22713 -56.2683,-2.69919 -82.1113,-4.78925 -6.2296,-0.50416 -12.408,-0.71913 -18.5388,-0.67212 z"
       style="fill:#87b77b;fill-opacity:1;fill-rule:evenodd;stroke:none;stroke-width:0.99999"
       id="path833" /><path
       d="m 1900.6508,1007.6811 c -159.1351,46.2651 -432.9068,17.5131 -552.1026,13.4619 -80.1192,-2.7222 -219.358,47.945 -361.2496,34.5532 -4.8679,-0.4611 -9.6915,-1.0151 -14.5338,-1.5271 -8.6672,52.2883 21.7118,106.1747 86.2926,144.5602 158.0252,93.935 465.8209,69.6793 648.2991,52.7172 70.4676,-6.5503 177.1849,2.6023 235.8324,-37.5411 19.1213,-13.0859 12.1558,-40.8267 11.4582,-58.308 -2.3263,-58.4805 -18.101,-105.3816 -53.9963,-147.9163 z"
       style="fill:#ecf4ea;fill-opacity:1;fill-rule:evenodd;stroke:none;stroke-width:0.99999"
       id="path835" /><path
       d="M 904.1944,67.747511 C 590.57399,192.43841 230.51606,225.95089 287.33353,401.37771 c 55.15562,170.29578 -46.42228,285.60409 -6.04418,376.19578 21.92826,50.04971 130.18838,88.22679 194.69107,143.03288 64.50268,54.80609 85.24794,126.24123 154.14647,146.80703 137.79312,41.1316 215.27481,-25.1081 357.17171,-11.7172 141.8916,13.3918 281.1304,-37.2754 361.2496,-34.5532 147.1445,5.0003 529.9099,47.6789 641.6958,-59.6398 43.3494,-41.6196 108.7566,-42.02257 145.0659,-89.46661 76.6497,-100.15539 134.4857,-164.32343 122.85,-298.21497 C 2249.2842,471.67914 2179.604,520.10023 2119.626,441.16519 1958.6007,229.24975 1654.3602,-18.625973 1361.6165,10.414871 1322.4531,14.302117 1290.4835,45.179073 1253.143,44.410027 1134.424,41.963874 1018.1925,22.427631 904.1944,67.747511 Z"
       style="fill:none;stroke:#000000;stroke-width:16.1575;stroke-linecap:butt;stroke-linejoin:miter;stroke-miterlimit:4;stroke-dasharray:none;stroke-opacity:1"
       id="path839"
       sodipodi:nodetypes="cscsccccsccccc" /><path
       d="m 1426.6507,820.11933 c -66.4394,-5.37542 -127.1423,22.16934 -184.2775,48.72101 -63.5412,29.53792 -135.8437,47.35902 -193.8215,84.67041 -110.1629,70.89045 -98.7914,180.25325 10.5057,245.21855 158.0252,93.9308 465.8209,69.6793 648.2991,52.7172 70.4676,-6.5503 177.1849,2.6023 235.8362,-37.5411 19.1215,-13.0859 12.5656,-40.8459 11.4544,-58.308 -5.1389,-81.0171 -46.4007,-139.4307 -105.0239,-195.6963 -52.958,-50.82319 -130.6159,-82.7822 -204.3282,-107.8348 -42.5925,-14.47398 -90.4155,-25.22859 -136.533,-27.15375 -29.375,-1.2311 -56.2683,-2.70316 -82.1113,-4.79322 z"
       style="fill:none;stroke:#40952c;stroke-width:16.1575;stroke-linecap:butt;stroke-linejoin:miter;stroke-miterlimit:4;stroke-dasharray:none;stroke-opacity:1"
       id="path843" /><path
       d="m 2033.309,339.40877 c -29.7409,142.15408 -24.8379,304.01529 86.0496,403.02152 21.2907,19.0132 46.0542,39.91254 72.7318,54.44145 45.9089,-64.61006 74.5702,-125.23089 66.0695,-223.05012 -8.8757,-102.14248 -78.5559,-53.72139 -138.5339,-132.65643 -25.4056,-33.43611 -54.3905,-67.76228 -86.317,-101.75642 z"
       style="fill:#e5eff3;fill-opacity:1;fill-rule:evenodd;stroke:#00608f;stroke-width:16.1575;stroke-linecap:butt;stroke-linejoin:miter;stroke-miterlimit:4;stroke-dasharray:none;stroke-opacity:1"
       id="path847" /><path
       d="m 1663.6724,67.01646 c -6.6117,4.332274 -13.0961,9.113576 -19.4288,14.473924 -53.3309,45.127846 98.504,128.238146 83.7464,195.836426 -52.5438,240.63623 180.6103,178.04631 214.336,238.64816 33.7228,60.60082 61.0615,-1.75412 76.0127,-11.11068 -2.5443,-54.94856 3.7015,-111.53813 14.947,-165.31854 C 1932.9703,232.70697 1803.5724,129.15739 1663.6724,67.01646 Z"
       style="fill:#e5eff3;fill-opacity:1;fill-rule:evenodd;stroke:#00608f;stroke-width:16.1575;stroke-linecap:butt;stroke-linejoin:miter;stroke-miterlimit:4;stroke-dasharray:none;stroke-opacity:1"
       id="path851" /><path
       d="m 1402.8442,8.1257263 c -13.7588,0.1760184 -27.5047,0.9300599 -41.2277,2.2891447 -39.1634,3.887246 -71.133,34.764202 -108.4735,33.995156 -84.8169,-1.750107 -168.4552,-12.33678 -250.8107,-1.614102 -11.8564,163.983375 1.9879,249.418825 169.7941,216.470735 48.4559,-9.51562 147.3653,47.75304 201.4603,24.75156 119.6062,-50.85023 128.0202,-93.53293 209.7738,-147.60638 14.2152,-9.39957 31.9738,-16.25901 50.945,-22.41141 -3.2683,-12.14576 -1.1181,-23.154462 9.9381,-32.510046 6.3124,-5.340343 12.7738,-10.11064 19.3652,-14.43092 C 1579.0722,29.506082 1490.7827,6.9936546 1402.8442,8.1257263 Z"
       style="fill:#e5eff3;fill-opacity:1;fill-rule:evenodd;stroke:#00608f;stroke-width:16.1575;stroke-linecap:butt;stroke-linejoin:miter;stroke-miterlimit:4;stroke-dasharray:none;stroke-opacity:1"
       id="path855" /><path
       d="m 2055.014,657.79994 c -102.6823,16.25109 -173.6738,109.499 -182.7141,212.65854 -2.7329,31.17692 10.9148,99.43927 41.5259,133.05152 31.4145,-10.43073 57.7533,-24.09164 76.4182,-42.01077 43.3494,-41.61563 108.7566,-42.0186 145.0659,-89.46264 20.6486,-26.98278 39.8445,-51.35129 56.7453,-75.18483 -26.6657,-14.5279 -51.4139,-35.41627 -72.6966,-54.42147 -27.6854,-24.72047 -48.7634,-53.35831 -64.3446,-84.63035 z"
       style="fill:#e5eff3;fill-opacity:1;fill-rule:evenodd;stroke:#00608f;stroke-width:16.1575;stroke-linecap:butt;stroke-linejoin:miter;stroke-miterlimit:4;stroke-dasharray:none;stroke-opacity:1"
       id="path859"
       sodipodi:nodetypes="cccccccc" /><path
       d="m 1634.3055,114.00043 c -18.9712,6.1524 -36.7298,13.01184 -50.945,22.41141 -81.7536,54.07345 -90.1676,96.75615 -209.7738,147.60638 -16.8764,7.17645 -38.1197,6.53941 -60.8278,2.55516 14.9827,95.49408 118.1447,134.38357 206.0208,151.47461 36.3992,7.0825 73.2357,7.59755 109.7809,12.96982 60.7058,8.92157 99.9253,5.21441 124.4134,-18.24712 -28.131,-28.60783 -42.539,-75.05174 -24.984,-155.44388 11.6982,-53.58141 -81.1901,-116.89441 -93.6845,-163.32638 z"
       style="fill:#e5eff3;fill-opacity:1;fill-rule:evenodd;stroke:#00608f;stroke-width:16.1575;stroke-linecap:butt;stroke-linejoin:miter;stroke-miterlimit:4;stroke-dasharray:none;stroke-opacity:1"
       id="path863"
       sodipodi:nodetypes="ccccccccc" /><path
       d="m 1752.974,432.77069 c -50.5944,30.04647 -93.7053,21.6504 -139.2465,16.313 -23.9933,66.88128 -8.8942,151.78796 20.0619,200.30976 42.6568,69.40241 163.1954,156.81492 250.0243,164.25235 25.4135,-78.75495 87.8682,-142.657 171.2003,-155.84586 -18.452,-47.49497 -34.2542,-106.43672 -36.6953,-152.91964 -14.9553,9.39856 -42.286,71.67252 -75.9927,11.09467 -22.46,-40.35454 -133.2801,-26.18171 -189.352,-83.20428 z"
       style="fill:#e5eff3;fill-opacity:1;fill-rule:evenodd;stroke:#00608f;stroke-width:16.1575;stroke-linecap:butt;stroke-linejoin:miter;stroke-miterlimit:4;stroke-dasharray:none;stroke-opacity:1"
       id="path867"
       sodipodi:nodetypes="cccccccc" /><path
       id="path18179"
       style="fill:#e5eff3;fill-opacity:1;fill-rule:evenodd;stroke:#00608f;stroke-width:21.5433;stroke-linecap:butt;stroke-linejoin:miter;stroke-miterlimit:4;stroke-dasharray:none;stroke-opacity:1"
       d="m 1575.707,344.30664 c -4.5325,0.14517 -8.8331,0.58984 -12.8711,1.38281 -26.0335,5.11158 -49.1793,7.9967 -69.9238,8.91797 -10.0611,27.74001 -17.2188,56.63471 -22.1309,85.21289 -58.8009,342.11505 479.8079,524.40149 722.8028,447.92383 -5.5778,-7.38991 -10.7948,-14.72397 -15.1973,-21.88672 -38.6073,-64.69433 -58.74,-177.90007 -26.7519,-267.07422 -42.2161,-4.9213 -84.6237,-6.55188 -126.5957,-14.71875 -117.1682,-22.78805 -254.7165,-74.64136 -274.6934,-201.96679 0.028,0.005 0.055,0.007 0.084,0.0117 -60.7238,-10.64029 -129.34,-39.25626 -174.7227,-37.80274 z m 576.8028,254.57227 c 0.3072,0.0362 0.607,0.0691 0.914,0.10547 -0.3046,-0.0362 -0.6094,-0.0696 -0.914,-0.10547 z"
       transform="matrix(0.75000002,0,0,0.75000002,0,-5.8897644e-6)"
       sodipodi:nodetypes="scccccccccsccc" /><text
       xml:space="preserve"
       style="font-size:9.99998px;line-height:80%;font-family:sans-serif;-inkscape-font-specification:'sans-serif, Normal';text-align:center;letter-spacing:0px;word-spacing:0px;writing-mode:lr-tb;text-anchor:middle;fill:#000000;stroke:none;stroke-width:0.75px;stroke-linecap:butt;stroke-linejoin:miter;stroke-opacity:1"
       x="75.721077"
       y="318.84766"
       id="text3143"><tspan
         sodipodi:role="line"
         id="tspan3141"
         style="fill:#000000;stroke:none;stroke-width:0.75px"
         x="75.721077"
         y="318.84766">\boldmath\(\attopt{1}\)</tspan></text><text
       xml:space="preserve"
       style="font-size:9.99998px;line-height:80%;font-family:sans-serif;-inkscape-font-specification:'sans-serif, Normal';text-align:center;letter-spacing:0px;word-spacing:0px;writing-mode:lr-tb;text-anchor:middle;fill:#40952c;fill-opacity:1;stroke:none;stroke-width:0.75px;stroke-linecap:butt;stroke-linejoin:miter;stroke-opacity:1"
       x="60.601913"
       y="506.34766"
       id="text4998"><tspan
         sodipodi:role="line"
         id="tspan4996"
         style="fill:#40952c;fill-opacity:1;stroke:none;stroke-width:0.75px"
         x="60.601917"
         y="506.34766">\boldmath\(\alloc[\phaseii]\)</tspan></text><text
       xml:space="preserve"
       style="font-size:9.99998px;line-height:80%;font-family:sans-serif;-inkscape-font-specification:'sans-serif, Normal';text-align:center;letter-spacing:0px;word-spacing:0px;writing-mode:lr-tb;text-anchor:middle;fill:#00608f;fill-opacity:1;stroke:none;stroke-width:0.75px;stroke-linecap:butt;stroke-linejoin:miter;stroke-opacity:1"
       x="58.906132"
       y="693.84766"
       id="text8938"><tspan
         sodipodi:role="line"
         id="tspan8936"
         style="fill:#00608f;fill-opacity:1;stroke:none;stroke-width:0.75px"
         x="58.906132"
         y="693.84766">\boldmath\(\lostset{l}\)</tspan></text><text
       xml:space="preserve"
       style="font-size:9.99998px;line-height:80%;font-family:sans-serif;-inkscape-font-specification:'sans-serif, Normal';text-align:center;letter-spacing:0px;word-spacing:0px;writing-mode:lr-tb;text-anchor:middle;fill:#808080;stroke:none;stroke-width:0.75px;stroke-linecap:butt;stroke-linejoin:miter;stroke-opacity:1"
       x="65.595589"
       y="881.34766"
       id="text12324"><tspan
         sodipodi:role="line"
         id="tspan12322"
         style="fill:#808080;stroke:none;stroke-width:0.75px"
         x="65.595589"
         y="881.34766">\boldmath\(\attopt{r}\)</tspan></text></g></svg>
