<?xml version="1.0" encoding="UTF-8" standalone="no"?>
<!-- Uploaded to: SVG Repo, www.svgrepo.com, Generator: SVG Repo Mixer Tools -->

<svg
   fill="#000000"
   height="1209.413"
   width="959.00781"
   version="1.1"
   id="Layer_1"
   viewBox="0 0 613.765 774.0243"
   xml:space="preserve"
   sodipodi:docname="river.svg"
   inkscape:version="1.1.1 (3bf5ae0d25, 2021-09-20)"
   xmlns:inkscape="http://www.inkscape.org/namespaces/inkscape"
   xmlns:sodipodi="http://sodipodi.sourceforge.net/DTD/sodipodi-0.dtd"
   xmlns="http://www.w3.org/2000/svg"
   xmlns:svg="http://www.w3.org/2000/svg"><defs
   id="defs23" /><sodipodi:namedview
   id="namedview21"
   pagecolor="#ffffff"
   bordercolor="#666666"
   borderopacity="1.0"
   inkscape:pageshadow="2"
   inkscape:pageopacity="0.0"
   inkscape:pagecheckerboard="0"
   showgrid="false"
   inkscape:snap-page="false"
   inkscape:snap-grids="true"
   inkscape:snap-to-guides="true"
   inkscape:snap-object-midpoints="true"
   inkscape:snap-center="false"
   fit-margin-top="0"
   fit-margin-left="0"
   fit-margin-right="0"
   fit-margin-bottom="0"
   inkscape:zoom="2.8284271"
   inkscape:cx="585.83797"
   inkscape:cy="711.87975"
   inkscape:window-width="2560"
   inkscape:window-height="1387"
   inkscape:window-x="1912"
   inkscape:window-y="-8"
   inkscape:window-maximized="1"
   inkscape:current-layer="Layer_1" />
<g
   id="g6"
   style="fill:#00608f;fill-opacity:1"
   transform="translate(64.32,260.6739)">
	<g
   id="g4"
   style="fill:#00608f;fill-opacity:1">
		<path
   d="m 539.823,188.271 h -43.29 v -10.177 c 28.931,-3.928 51.307,-28.776 51.307,-58.767 0,-29.759 -47.134,-106.71 -52.508,-115.386 -3.078,-4.97 -10.552,-4.97 -13.631,0 -5.374,8.676 -52.508,85.627 -52.508,115.386 0,29.991 22.376,54.84 51.307,58.767 v 10.177 H 204.159 v -10.177 c 28.931,-3.928 51.307,-28.776 51.307,-58.767 0,-29.759 -47.134,-106.71 -52.508,-115.386 -3.079,-4.962 -10.551,-4.962 -13.63,0 -5.374,8.676 -52.508,85.627 -52.508,115.386 0,29.991 22.376,54.84 51.307,58.767 v 10.177 H 75.27121 c -4.428,0 -8.017,3.589 -8.017,8.017 0,4.428 3.588,8.017 8.017,8.017 396.91919,0 -30.561352,-0.001 464.55679,-0.001 4.428,0 8.017,-3.589 8.017,-8.017 0,-4.428 -3.593,-8.016 -8.022,-8.016 z M 496.533,37.563 c 5.948,10.526 12.394,22.45 18.13,34.074 l -18.13,9.064 z m 0,61.065 24.954,-12.477 c 6.101,13.732 10.319,25.884 10.319,33.176 0,21.13 -15.221,38.762 -35.273,42.533 z M 204.159,37.563 c 11.776,20.84 25.508,47.17 31.802,65.763 -0.404,0.159 -0.803,0.345 -1.188,0.576 l -30.614,18.368 z m 0,103.405 35.262,-21.157 c -0.232,20.914 -15.364,38.307 -35.262,42.049 z m -16.034,20.893 c -20.052,-3.771 -35.273,-21.404 -35.273,-42.533 0,-7.289 4.219,-19.441 10.321,-33.175 l 24.952,12.476 z m 0,-81.159 -18.127,-9.063 c 5.736,-11.623 12.18,-23.545 18.127,-34.071 z m 292.375,81.16 c -20.052,-3.772 -35.273,-21.405 -35.273,-42.534 0,-1.89 0.296,-4.121 0.822,-6.606 l 34.451,27.561 z m 0,-42.112 -29.237,-23.39 C 458.251,78.527 470.129,55.924 480.5,37.568 Z"
   id="path2"
   style="fill:#00608f;fill-opacity:1;stroke:#ffffff;stroke-width:3.2;stroke-miterlimit:4;stroke-dasharray:none;stroke-opacity:1"
   sodipodi:nodetypes="sccsccsccccsccsccssccssccccccsccccccccccccsccccccccsccccccc" />
	</g>
</g>
<g
   id="g12"
   style="fill:#00608f;fill-opacity:1"
   transform="translate(1.6,260.6739)">
	<g
   id="g10"
   style="fill:#00608f;fill-opacity:1">
		<path
   d="M 85.834341,188.271 H 67.34 v -10.177 c 28.931,-3.928 51.307,-28.776 51.307,-58.767 0,-29.759 -47.134,-106.71 -52.508,-115.386 -3.078,-4.97 -10.552,-4.97 -13.631,0 C 47.134,12.618 0,89.568 0,119.327 c 0,29.991 22.376,54.84 51.307,58.767 v 10.177 H 8.017 c -4.428,0 -8.017,3.589 -8.017,8.017 0,4.428 3.588,8.017 8.017,8.017 h 77.818341 c 4.427996,0 8.016996,-3.589 8.016996,-8.017 0,-4.428 -3.589,-8.017 -8.017996,-8.017 z M 67.34,37.563 c 5.948,10.526 12.394,22.45 18.13,34.074 l -18.13,9.064 z m 0,61.065 24.954,-12.477 c 6.101,13.732 10.319,25.884 10.319,33.176 0,21.13 -15.221,38.762 -35.273,42.533 z M 51.307,161.861 C 31.255,158.09 16.034,140.457 16.034,119.328 c 0,-2.105 0.367,-4.632 1.012,-7.466 l 34.261,20.556 z m 0,-48.142 L 22.128,96.212 C 29.124,78.401 40.963,55.874 51.307,37.568 Z"
   id="path8"
   style="fill:#00608f;fill-opacity:1;stroke:#ffffff;stroke-width:3.2;stroke-miterlimit:4;stroke-dasharray:none;stroke-opacity:1"
   sodipodi:nodetypes="sccsccsccssssssccccccscccsccccccc" />
	</g>
</g>
<g
   id="g18"
   style="fill:#00608f;fill-opacity:1"
   transform="translate(64.32,260.6739)">
	<g
   id="g16"
   style="fill:#00608f;fill-opacity:1">
		<path
   d="m 444.368,502.518 c -4.945,-31.218 -21.28114,-40.04873 -54.02014,-59.20573 -6.159,-3.603 -12.526,-7.328 -18.56,-11.05 -3.717,-2.295 -8.739,-1.102 -11.031,2.616 -2.293,3.719 -1.103,8.739 2.616,11.032 6.192,3.819 12.641,7.592 18.878,11.243 29.519,17.272 42.52514,24.15373 46.28314,47.87473 0.692,4.37 4.964,7.415 9.32,6.637 4.242,-0.758 7.189,-4.885 6.514,-9.147 z"
   id="path14"
   style="fill:#48a9da;fill-opacity:1;stroke-width:3.20000001;stroke-miterlimit:4;stroke-dasharray:none;stroke:#ffffff;stroke-opacity:1"
   sodipodi:nodetypes="ccccccccc" />
	</g>
</g>
<circle
   style="opacity:0.99;fill:#00608f;fill-opacity:1;stroke-width:0.64;stroke-miterlimit:4;stroke-dasharray:none"
   id="path1452-9"
   cx="114.17713"
   cy="457.02612"
   r="6.4204102" /><ellipse
   style="fill:none;fill-opacity:1;stroke:#00608f;stroke-width:12.80000003;stroke-linecap:round;stroke-miterlimit:4;stroke-dasharray:307.20000846,24.9999997,0.1,24.9999997,307.20000846;stroke-dashoffset:230;stroke-opacity:1;paint-order:normal"
   id="path1829"
   cx="-315.43704"
   cy="281.77512"
   inkscape:transform-center-x="0.95950344"
   inkscape:transform-center-y="0.39427817"
   transform="matrix(-0.51173935,-0.85914076,0.85909392,-0.51181797,0,0)"
   rx="54.615726"
   ry="54.612915" /><path
   style="fill:none;fill-rule:evenodd;stroke:#00608f;stroke-width:14.08;stroke-linecap:round;stroke-linejoin:miter;stroke-miterlimit:4;stroke-dasharray:none;stroke-opacity:1"
   d="m 483.25332,134.06791 49.53185,6.53631"
   id="path2066"
   inkscape:transform-center-x="-109.98184"
   inkscape:transform-center-y="11.665472"
   sodipodi:nodetypes="cc" /><path
   style="fill:none;fill-rule:evenodd;stroke:#00608f;stroke-width:14.08;stroke-linecap:round;stroke-linejoin:miter;stroke-miterlimit:4;stroke-dasharray:none;stroke-opacity:1"
   d="m 452.93195,185.50145 46.89673,61.14266"
   id="path2498"
   inkscape:transform-center-x="-67.418342"
   inkscape:transform-center-y="84.283356"
   sodipodi:nodetypes="cc" /><path
   style="fill:none;fill-rule:evenodd;stroke:#00608f;stroke-width:14.08;stroke-linecap:round;stroke-linejoin:miter;stroke-miterlimit:4;stroke-dasharray:none;stroke-opacity:1"
   d="m 396.12988,201.26412 -13.8285,104.79933"
   id="path2500"
   inkscape:transform-center-x="13.022607"
   inkscape:transform-center-y="106.37158"
   sodipodi:nodetypes="cc" /><path
   style="fill:none;fill-rule:evenodd;stroke:#00608f;stroke-width:14.08;stroke-linecap:round;stroke-linejoin:miter;stroke-miterlimit:4;stroke-dasharray:none;stroke-opacity:1"
   d="m 343.79862,171.42267 -67.35839,51.64352"
   id="path2508"
   inkscape:transform-center-x="86.544398"
   inkscape:transform-center-y="64.2902"
   sodipodi:nodetypes="cc" /><path
   style="fill:none;fill-rule:evenodd;stroke:#00608f;stroke-width:14.08;stroke-linecap:round;stroke-linejoin:miter;stroke-miterlimit:4;stroke-dasharray:none;stroke-opacity:1"
   d="m 328.91612,114.15277 -51.44341,-6.78856"
   id="path2510"
   inkscape:transform-center-x="107.75347"
   inkscape:transform-center-y="-16.615793"
   sodipodi:nodetypes="cc" /><path
   style="fill:none;fill-rule:evenodd;stroke:#00608f;stroke-width:14.08;stroke-linecap:round;stroke-linejoin:miter;stroke-miterlimit:4;stroke-dasharray:none;stroke-opacity:1"
   d="M 359.98314,64.02791 316.27312,7.04"
   id="path3725"
   inkscape:transform-center-x="64.444317"
   inkscape:transform-center-y="-87.925004"
   sodipodi:nodetypes="cc" /><path
   style="fill:none;fill-rule:evenodd;stroke:#00608f;stroke-width:14.08;stroke-linecap:round;stroke-linejoin:miter;stroke-miterlimit:4;stroke-dasharray:none;stroke-opacity:1"
   d="M 417.40104,50.54585 422.09383,14.9816"
   id="path3727"
   inkscape:transform-center-x="-16.612479"
   inkscape:transform-center-y="-107.73262"
   sodipodi:nodetypes="cc" /><path
   style="fill:none;fill-rule:evenodd;stroke:#00608f;stroke-width:14.08;stroke-linecap:round;stroke-linejoin:miter;stroke-miterlimit:4;stroke-dasharray:none;stroke-opacity:1"
   d="M 467.54064,81.60712 518.28562,42.70105"
   id="path3731"
   inkscape:transform-center-x="-87.942608"
   inkscape:transform-center-y="-64.431411" /><circle
   style="opacity:0.99;fill:#48a9da;fill-opacity:1;stroke-width:0.64;stroke-miterlimit:4;stroke-dasharray:none"
   id="path1452-9-3"
   cx="408.45099"
   cy="685.18658"
   r="6.4204102" /><g
   id="g2616"
   style="fill:#00608f;fill-opacity:1"
   transform="translate(6464.3202,260.6739)">
	<g
   id="g2614"
   style="fill:#00608f;fill-opacity:1">
		<path
   d="m 539.823,188.271 h -43.29 v -10.177 c 28.931,-3.928 51.307,-28.776 51.307,-58.767 0,-29.759 -47.134,-106.71 -52.508,-115.386 -3.078,-4.97 -10.552,-4.97 -13.631,0 -5.374,8.676 -52.508,85.627 -52.508,115.386 0,29.991 22.376,54.84 51.307,58.767 v 10.177 H 204.159 v -10.177 c 28.931,-3.928 51.307,-28.776 51.307,-58.767 0,-29.759 -47.134,-106.71 -52.508,-115.386 -3.079,-4.962 -10.551,-4.962 -13.63,0 -5.374,8.676 -52.508,85.627 -52.508,115.386 0,29.991 22.376,54.84 51.307,58.767 v 10.177 H 75.27121 c -4.428,0 -8.017,3.589 -8.017,8.017 0,4.428 3.588,8.017 8.017,8.017 396.91919,0 -30.561352,-0.001 464.55679,-0.001 4.428,0 8.017,-3.589 8.017,-8.017 0,-4.428 -3.593,-8.016 -8.022,-8.016 z M 496.533,37.563 c 5.948,10.526 12.394,22.45 18.13,34.074 l -18.13,9.064 z m 0,61.065 24.954,-12.477 c 6.101,13.732 10.319,25.884 10.319,33.176 0,21.13 -15.221,38.762 -35.273,42.533 z M 204.159,37.563 c 11.776,20.84 25.508,47.17 31.802,65.763 -0.404,0.159 -0.803,0.345 -1.188,0.576 l -30.614,18.368 z m 0,103.405 35.262,-21.157 c -0.232,20.914 -15.364,38.307 -35.262,42.049 z m -16.034,20.893 c -20.052,-3.771 -35.273,-21.404 -35.273,-42.533 0,-7.289 4.219,-19.441 10.321,-33.175 l 24.952,12.476 z m 0,-81.159 -18.127,-9.063 c 5.736,-11.623 12.18,-23.545 18.127,-34.071 z m 292.375,81.16 c -20.052,-3.772 -35.273,-21.405 -35.273,-42.534 0,-1.89 0.296,-4.121 0.822,-6.606 l 34.451,27.561 z m 0,-42.112 -29.237,-23.39 C 458.251,78.527 470.129,55.924 480.5,37.568 Z"
   id="path2610"
   style="fill:#00608f;fill-opacity:1;stroke:#ffffff;stroke-width:3.2;stroke-miterlimit:4;stroke-dasharray:none;stroke-opacity:1"
   sodipodi:nodetypes="sccsccsccccsccsccssccssccccccsccccccccccccsccccccccsccccccc" />
	<path
   d="m 305.23633,204.305 c 5.887,3.49 25.945,17.361 19.949,41.346 -4.256,17.03 -35.277,29.327 -68.118,42.346 -50.185,19.895 -112.642,44.655 -128.514,102.857 -12.292,45.067 -2.355,86.031 28.735,118.465 3.269,3.411 8.94,3.2 11.958,-0.43 2.572,-3.093 2.398,-7.764 -0.384,-10.665 -27.366,-28.548 -35.722,-63.253 -24.841,-103.151 13.765,-50.471 69.649,-72.625 118.955,-92.172 38.372,-15.211 71.511,-28.349 77.765,-53.363 3.828,-15.314 0.319,-28.229 -5.897,-38.291 19.331,6.973 41.40901,20.319 41.40901,44.898 0,14.795 -12.246,23.16 -32.22701,35.581 -21.722,13.504 -48.755,30.312 -53.222,66.038 -2.675,21.4 3.64029,38.09372 25.49429,56.15572 3.411,2.82 8.466,2.34 11.288,-1.072 2.821,-3.413 2.34,-8.466 -1.072,-11.287 -17.767,-14.685 -21.79329,-25.85572 -19.79929,-41.80772 3.517,-28.136 25.001,-41.493 45.778,-54.41 19.56501,-12.163 39.79501,-24.741 39.79501,-49.198 0,-21.56 -11.695,-39.325 -33.95201,-51.841 -7.38971,-4.00068 -38.79576,-13.16659 -53.1,0.001 z"
   id="path2612"
   style="fill:#48a9da;fill-opacity:1;stroke:#ffffff;stroke-width:3.2;stroke-miterlimit:4;stroke-dasharray:none;stroke-opacity:1"
   sodipodi:nodetypes="cccccccccccscccccscscc" /></g>
</g><g
   id="g2624"
   style="fill:#00608f;fill-opacity:1"
   transform="translate(64.320004,260.6739)">
	<g
   id="g2622"
   style="fill:#00608f;fill-opacity:1">
		
	<path
   d="m 305.23633,201.665 c 5.887,3.49 25.945,20.001 19.949,43.986 -4.256,17.03 -35.277,29.327 -68.118,42.346 -50.185,19.895 -112.642,44.655 -128.514,102.857 -12.292,45.067 -2.355,86.031 28.735,118.465 3.269,3.411 8.94,3.2 11.958,-0.43 2.572,-3.093 2.398,-7.764 -0.384,-10.665 -27.366,-28.548 -35.722,-63.253 -24.841,-103.151 13.765,-50.471 69.649,-72.625 118.955,-92.172 38.372,-15.211 71.511,-28.349 77.765,-53.363 3.828,-15.314 0.319,-28.229 -5.897,-38.291 19.331,6.973 41.40901,20.319 41.40901,44.898 0,14.795 -12.246,23.16 -32.22701,35.581 -21.722,13.504 -48.755,30.312 -53.222,66.038 -2.675,21.4 3.64029,38.09372 25.49429,56.15572 3.411,2.82 8.466,2.34 11.288,-1.072 2.821,-3.413 2.34,-8.466 -1.072,-11.287 -17.767,-14.685 -21.79329,-25.85572 -19.79929,-41.80772 3.517,-28.136 25.001,-41.493 45.778,-54.41 19.56501,-12.163 39.79501,-24.741 39.79501,-49.198 0,-21.56 -11.695,-39.325 -33.95201,-51.841 -7.38971,-4.00068 -38.79576,-15.80659 -53.1,-2.639 z"
   id="path2620"
   style="fill:#48a9da;fill-opacity:1;stroke:#ffffff;stroke-width:3.2;stroke-miterlimit:4;stroke-dasharray:none;stroke-opacity:1"
   sodipodi:nodetypes="cccccccccccscccccscscc" /></g>
</g><rect
   style="fill:#00608f;fill-opacity:1;stroke:none;stroke-width:3.20001;stroke-linecap:round;stroke-miterlimit:4;stroke-dasharray:none;stroke-dashoffset:422.702;stroke-opacity:1"
   id="rect3268"
   width="79.033554"
   height="11.064924"
   x="357.36914"
   y="452.3139" /></svg>
