<?xml version="1.0" encoding="UTF-8" standalone="no"?>
<!-- Uploaded to: SVG Repo, www.svgrepo.com, Generator: SVG Repo Mixer Tools -->

<svg
   fill="#000000"
   height="300"
   width="250"
   version="1.1"
   id="Layer_1"
   viewBox="0 0 160 192"
   xml:space="preserve"
   sodipodi:docname="river.svg"
   inkscape:version="1.1.1 (3bf5ae0d25, 2021-09-20)"
   xmlns:inkscape="http://www.inkscape.org/namespaces/inkscape"
   xmlns:sodipodi="http://sodipodi.sourceforge.net/DTD/sodipodi-0.dtd"
   xmlns:xlink="http://www.w3.org/1999/xlink"
   xmlns="http://www.w3.org/2000/svg"
   xmlns:svg="http://www.w3.org/2000/svg"><defs
   id="defs23" /><sodipodi:namedview
   id="namedview21"
   pagecolor="#ffffff"
   bordercolor="#666666"
   borderopacity="1.0"
   inkscape:pageshadow="2"
   inkscape:pageopacity="0.0"
   inkscape:pagecheckerboard="0"
   showgrid="false"
   inkscape:snap-page="false"
   inkscape:snap-grids="true"
   inkscape:snap-to-guides="true"
   inkscape:snap-object-midpoints="true"
   inkscape:snap-center="false"
   fit-margin-top="0"
   fit-margin-left="0"
   fit-margin-right="0"
   fit-margin-bottom="0"
   inkscape:zoom="2"
   inkscape:cx="48"
   inkscape:cy="119.75"
   inkscape:window-width="2560"
   inkscape:window-height="1387"
   inkscape:window-x="1912"
   inkscape:window-y="-8"
   inkscape:window-maximized="1"
   inkscape:current-layer="layer1" />



<g
   id="g2616"
   style="fill:#00608f;fill-opacity:1"
   transform="translate(6464.3202,260.6739)">
	<g
   id="g2614"
   style="fill:#00608f;fill-opacity:1">
		<path
   d="m 539.823,188.271 h -43.29 v -10.177 c 28.931,-3.928 51.307,-28.776 51.307,-58.767 0,-29.759 -47.134,-106.71 -52.508,-115.386 -3.078,-4.97 -10.552,-4.97 -13.631,0 -5.374,8.676 -52.508,85.627 -52.508,115.386 0,29.991 22.376,54.84 51.307,58.767 v 10.177 H 204.159 v -10.177 c 28.931,-3.928 51.307,-28.776 51.307,-58.767 0,-29.759 -47.134,-106.71 -52.508,-115.386 -3.079,-4.962 -10.551,-4.962 -13.63,0 -5.374,8.676 -52.508,85.627 -52.508,115.386 0,29.991 22.376,54.84 51.307,58.767 v 10.177 H 75.27121 c -4.428,0 -8.017,3.589 -8.017,8.017 0,4.428 3.588,8.017 8.017,8.017 396.91919,0 -30.561352,-0.001 464.55679,-0.001 4.428,0 8.017,-3.589 8.017,-8.017 0,-4.428 -3.593,-8.016 -8.022,-8.016 z M 496.533,37.563 c 5.948,10.526 12.394,22.45 18.13,34.074 l -18.13,9.064 z m 0,61.065 24.954,-12.477 c 6.101,13.732 10.319,25.884 10.319,33.176 0,21.13 -15.221,38.762 -35.273,42.533 z M 204.159,37.563 c 11.776,20.84 25.508,47.17 31.802,65.763 -0.404,0.159 -0.803,0.345 -1.188,0.576 l -30.614,18.368 z m 0,103.405 35.262,-21.157 c -0.232,20.914 -15.364,38.307 -35.262,42.049 z m -16.034,20.893 c -20.052,-3.771 -35.273,-21.404 -35.273,-42.533 0,-7.289 4.219,-19.441 10.321,-33.175 l 24.952,12.476 z m 0,-81.159 -18.127,-9.063 c 5.736,-11.623 12.18,-23.545 18.127,-34.071 z m 292.375,81.16 c -20.052,-3.772 -35.273,-21.405 -35.273,-42.534 0,-1.89 0.296,-4.121 0.822,-6.606 l 34.451,27.561 z m 0,-42.112 -29.237,-23.39 C 458.251,78.527 470.129,55.924 480.5,37.568 Z"
   id="path2610"
   style="fill:#00608f;fill-opacity:1;stroke:#ffffff;stroke-width:3.2;stroke-miterlimit:4;stroke-dasharray:none;stroke-opacity:1"
   sodipodi:nodetypes="sccsccsccccsccsccssccssccccccsccccccccccccsccccccccsccccccc" />
	<path
   d="m 305.23633,204.305 c 5.887,3.49 25.945,17.361 19.949,41.346 -4.256,17.03 -35.277,29.327 -68.118,42.346 -50.185,19.895 -112.642,44.655 -128.514,102.857 -12.292,45.067 -2.355,86.031 28.735,118.465 3.269,3.411 8.94,3.2 11.958,-0.43 2.572,-3.093 2.398,-7.764 -0.384,-10.665 -27.366,-28.548 -35.722,-63.253 -24.841,-103.151 13.765,-50.471 69.649,-72.625 118.955,-92.172 38.372,-15.211 71.511,-28.349 77.765,-53.363 3.828,-15.314 0.319,-28.229 -5.897,-38.291 19.331,6.973 41.40901,20.319 41.40901,44.898 0,14.795 -12.246,23.16 -32.22701,35.581 -21.722,13.504 -48.755,30.312 -53.222,66.038 -2.675,21.4 3.64029,38.09372 25.49429,56.15572 3.411,2.82 8.466,2.34 11.288,-1.072 2.821,-3.413 2.34,-8.466 -1.072,-11.287 -17.767,-14.685 -21.79329,-25.85572 -19.79929,-41.80772 3.517,-28.136 25.001,-41.493 45.778,-54.41 19.56501,-12.163 39.79501,-24.741 39.79501,-49.198 0,-21.56 -11.695,-39.325 -33.95201,-51.841 -7.38971,-4.00068 -38.79576,-13.16659 -53.1,0.001 z"
   id="path2612"
   style="fill:#48a9da;fill-opacity:1;stroke:#ffffff;stroke-width:3.2;stroke-miterlimit:4;stroke-dasharray:none;stroke-opacity:1"
   sodipodi:nodetypes="cccccccccccscccccscscc" /></g>
</g><g
   id="g2624"
   style="fill:#00608f;fill-opacity:1;stroke-width:4.1035"
   transform="matrix(0.24301862,0,0,0.24437299,17.630961,65.646993)">
	<g
   id="g2622"
   style="fill:#00608f;fill-opacity:1;stroke-width:4.1035">
		
	</g>
</g><g
   inkscape:groupmode="layer"
   id="layer1"
   inkscape:label="Layer 1"
   style="display:inline"><path
     style="fill:none;fill-rule:evenodd;stroke:#48a9da;stroke-width:3.64799988;stroke-linecap:round;stroke-linejoin:round;stroke-miterlimit:4;stroke-dasharray:199.99944421,7.1249802,0.06249983,7.1249802,299.99916632;stroke-opacity:1;stroke-dashoffset:21.88799927"
     d="m 57.421301,190.176 c -36.113246,-58.04992 66.472019,-44.64515 35.981973,-76.77241 31.562736,14.46964 15.980316,19.82121 5.107772,29.1918 C 70.224415,166.97446 113.47635,160.47668 124.16,190.176"
     id="Fluss"
     sodipodi:nodetypes="ccsc" /><path
     style="fill:none;fill-rule:evenodd;stroke:#00608f;stroke-width:3.64799988;stroke-linecap:round;stroke-linejoin:miter;stroke-miterlimit:4;stroke-dasharray:149.9999949,7.12501978,0.0285002,7.12501978,87.55239571;stroke-opacity:1;stroke-dashoffset:33.56159888"
     d="M 158.19139,113.13708 H 1.8086143"
     id="Boden" /><ellipse
     style="fill:none;fill-opacity:1;stroke:#00608f;stroke-width:3.64802;stroke-linecap:round;stroke-miterlimit:4;stroke-dasharray:87.5524, 7.12502, 0.0285002, 7.12502, 87.5524;stroke-dashoffset:36.4802;stroke-opacity:1;paint-order:normal"
     id="Sonne"
     cx="21.433729"
     cy="-102.93168"
     inkscape:transform-center-x="-0.24505799"
     inkscape:transform-center-y="0.06000356"
     transform="matrix(-0.09703757,0.9952807,-0.99575149,-0.09208121,0,0)"
     rx="13.327277"
     ry="13.29137" /><path
     style="fill:none;fill-rule:evenodd;stroke:#00608f;stroke-width:3.648;stroke-linecap:round;stroke-linejoin:miter;stroke-miterlimit:4;stroke-dasharray:none;stroke-opacity:1"
     d="m 119.43956,32.866191 12.03716,1.597298"
     id="path2066"
     inkscape:transform-center-x="-26.727637"
     inkscape:transform-center-y="2.8507269"
     sodipodi:nodetypes="cc" /><path
     style="fill:none;fill-rule:evenodd;stroke:#00608f;stroke-width:3.648;stroke-linecap:round;stroke-linejoin:miter;stroke-miterlimit:4;stroke-dasharray:none;stroke-opacity:1"
     d="m 112.0709,45.435159 11.39678,14.941615"
     id="path2498"
     inkscape:transform-center-x="-16.383914"
     inkscape:transform-center-y="20.596576"
     sodipodi:nodetypes="cc" /><path
     style="fill:none;fill-rule:evenodd;stroke:#00608f;stroke-width:3.648;stroke-linecap:round;stroke-linejoin:miter;stroke-miterlimit:4;stroke-dasharray:none;stroke-opacity:1"
     d="M 98.26694,49.287129 94.906357,74.897255"
     id="path2500"
     inkscape:transform-center-x="3.1647345"
     inkscape:transform-center-y="25.994341"
     sodipodi:nodetypes="cc" /><path
     style="fill:none;fill-rule:evenodd;stroke:#00608f;stroke-width:3.648;stroke-linecap:round;stroke-linejoin:miter;stroke-miterlimit:4;stroke-dasharray:none;stroke-opacity:1"
     d="M 85.549469,41.994685 69.180126,54.614966"
     id="path2508"
     inkscape:transform-center-x="21.031899"
     inkscape:transform-center-y="15.710788"
     sodipodi:nodetypes="cc" /><path
     style="fill:none;fill-rule:evenodd;stroke:#00608f;stroke-width:3.648;stroke-linecap:round;stroke-linejoin:miter;stroke-miterlimit:4;stroke-dasharray:none;stroke-opacity:1"
     d="M 81.932744,27.999468 69.431038,26.340528"
     id="path2510"
     inkscape:transform-center-x="26.186099"
     inkscape:transform-center-y="-4.0604509"
     sodipodi:nodetypes="cc" /><path
     style="fill:none;fill-rule:evenodd;stroke:#00608f;stroke-width:3.648;stroke-linecap:round;stroke-linejoin:miter;stroke-miterlimit:4;stroke-dasharray:none;stroke-opacity:1"
     d="M 89.482608,15.750306 78.86026,1.824"
     id="path3725"
     inkscape:transform-center-x="15.661168"
     inkscape:transform-center-y="-21.486497"
     sodipodi:nodetypes="cc" /><path
     style="fill:none;fill-rule:evenodd;stroke:#00608f;stroke-width:3.648;stroke-linecap:round;stroke-linejoin:miter;stroke-miterlimit:4;stroke-dasharray:none;stroke-opacity:1"
     d="m 103.43623,12.455654 1.14043,-8.6909415"
     id="path3727"
     inkscape:transform-center-x="-4.0371426"
     inkscape:transform-center-y="-26.326943"
     sodipodi:nodetypes="cc" /><path
     style="fill:none;fill-rule:evenodd;stroke:#00608f;stroke-width:3.648;stroke-linecap:round;stroke-linejoin:miter;stroke-miterlimit:4;stroke-dasharray:none;stroke-opacity:1"
     d="m 115.62109,20.046191 12.33197,-9.507594"
     id="path3731"
     inkscape:transform-center-x="-21.371696"
     inkscape:transform-center-y="-15.745296" /><g
     id="g7754"><path
       id="path5035"
       style="fill:none;stroke:#00608f;stroke-width:3.648;stroke-linecap:round;stroke-linejoin:round;stroke-miterlimit:4;stroke-dasharray:none;stroke-dashoffset:57"
       d="m 136.36,67.655977 c 0,0 12.31619,16.93027 11.8,26.623701 -0.20916,3.927769 -2.24907,8.111232 -5.9,10.219102 -3.65094,2.10787 -8.14907,2.10787 -11.80001,0 -3.65093,-2.10787 -5.69083,-6.291335 -5.89999,-10.219102 -0.51618,-9.693431 11.8,-26.623701 11.8,-26.623701 z"
       sodipodi:nodetypes="cassac" /><path
       style="fill:none;fill-rule:evenodd;stroke:#00608f;stroke-width:3.648;stroke-linecap:butt;stroke-linejoin:miter;stroke-miterlimit:4;stroke-dasharray:none;stroke-opacity:1"
       d="M 136.36,69.935974 V 112.68454"
       id="path5911"
       sodipodi:nodetypes="cc" /><path
       style="fill:none;fill-rule:evenodd;stroke:#00608f;stroke-width:3.648;stroke-linecap:butt;stroke-linejoin:miter;stroke-miterlimit:4;stroke-dasharray:none;stroke-opacity:1"
       d="m 137.12,88.4 8.21329,-4.741948"
       id="path6044"
       sodipodi:nodetypes="cc" /><path
       style="fill:none;fill-rule:evenodd;stroke:#00608f;stroke-width:3.648;stroke-linecap:butt;stroke-linejoin:miter;stroke-miterlimit:4;stroke-dasharray:none;stroke-opacity:1"
       d="m 135.78,98.64 -9.82,-9.82"
       id="path6274"
       sodipodi:nodetypes="cc" /></g><use
     x="0"
     y="0"
     xlink:href="#g7754"
     id="use7756"
     transform="matrix(-1,0,0,1,206.16,0)"
     width="100%"
     height="100%" /><use
     x="0"
     y="0"
     xlink:href="#g7754"
     id="use7840"
     transform="translate(-120.32)"
     width="100%"
     height="100%" /></g></svg>
