<?xml version="1.0" encoding="UTF-8" standalone="no"?>
<!-- Created with Inkscape (http://www.inkscape.org/) -->

<svg
   width="400mm"
   height="300mm"
   viewBox="0 0 400.00001 300"
   version="1.1"
   id="svg848"
   inkscape:version="1.1.1 (3bf5ae0d25, 2021-09-20)"
   sodipodi:docname="satellites.svg"
   xmlns:inkscape="http://www.inkscape.org/namespaces/inkscape"
   xmlns:sodipodi="http://sodipodi.sourceforge.net/DTD/sodipodi-0.dtd"
   xmlns:xlink="http://www.w3.org/1999/xlink"
   xmlns="http://www.w3.org/2000/svg"
   xmlns:svg="http://www.w3.org/2000/svg">
  <sodipodi:namedview
     id="namedview850"
     pagecolor="#ffffff"
     bordercolor="#666666"
     borderopacity="1.0"
     inkscape:pageshadow="2"
     inkscape:pageopacity="0.0"
     inkscape:pagecheckerboard="0"
     inkscape:document-units="mm"
     showgrid="false"
     fit-margin-top="0"
     fit-margin-left="0"
     fit-margin-right="0"
     fit-margin-bottom="0"
     inkscape:zoom="0.4692965"
     inkscape:cx="796.93754"
     inkscape:cy="636.05844"
     inkscape:window-width="2560"
     inkscape:window-height="1387"
     inkscape:window-x="1912"
     inkscape:window-y="-8"
     inkscape:window-maximized="1"
     inkscape:current-layer="layer2" />
  <defs
     id="defs845" />
  <g
     inkscape:groupmode="layer"
     id="layer2"
     inkscape:label="Ebene 2">
    <g
       id="g3680"
       transform="translate(-24.680213,-22.964985)"
       inkscape:transform-center-x="0.12259743"
       inkscape:transform-center-y="-0.6996148">
      <path
         style="display:inline;fill:none;fill-rule:evenodd;stroke:#00608f;stroke-width:5.7;stroke-linecap:round;stroke-linejoin:round;stroke-miterlimit:4;stroke-dasharray:none;stroke-opacity:1"
         d="m 226.74219,235.0565 c -2.69542,-5.93228 -3.75808,-5.54383 -10.14817,-6.34261 -6.49184,-0.81147 -15.49891,0.56904 -20.57823,-4.51029 -11.97228,-11.97227 2.08076,-32.18962 13.81278,-38.05563 5.94497,-2.97248 13.26088,-0.63782 19.59161,-2.53704 4.87934,-1.4638 8.7164,-5.22246 13.81278,-3.52367"
         id="path1163"
         sodipodi:nodetypes="cssssc"
         transform="translate(17.800486,55.434817)" />
      <path
         style="display:inline;fill:none;fill-rule:evenodd;stroke:#00608f;stroke-width:5.7;stroke-linecap:round;stroke-linejoin:round;stroke-miterlimit:4;stroke-dasharray:none;stroke-opacity:1"
         d="m 236.74941,161.76418 c -2.69392,-0.21862 -9.90816,-3.07989 -12.96711,-1.55041 -0.11467,0.0573 -0.01,2.63859 0,2.81893 0.20517,3.69295 9.20926,7.93964 4.79219,10.14817 -6.3746,3.1873 -21.884,-12.22512 -25.37042,-8.7387 -4.43717,4.43718 4.17959,9.48675 6.06071,13.249 0.17954,0.35906 -5.37303,0.86273 -5.91976,1.40946 -1.54239,1.54239 -1.22437,5.63787 -5.21503,5.63787 -2.93,0 2.34076,-6.69235 1.69136,-8.31585 -1.17861,-2.94653 -5.36069,-8.45681 -8.87965,-8.45681 -0.82041,0 -6.78153,8.89186 -6.6245,10.14817 0.90491,7.23922 5.0389,10.34943 1.12758,17.05456 -0.54938,0.94179 -1.55936,3.4127 -2.81894,3.66461 -3.50581,0.70117 -5.21452,-5.63736 -7.18828,-7.61112 -2.21397,-2.21397 -5.89789,-2.23327 -7.89302,-4.22841 -2.40635,-2.40634 12.77084,-16.04826 13.38994,-21.00107 0.25381,-2.03048 0.88982,-7.47872 0.28189,-9.30249 -0.6846,-2.05381 -6.21804,-5.8706 -5.63787,-7.61112 5.64446,-1.58228 4.78561,-7.08762 7.5445,-10.76614 0.96714,-1.28951 3.11951,-1.53982 4.08624,-2.98993 0.71781,-1.07671 0.76708,-4.53642 0.49833,-5.8802 -0.42362,-2.1181 -2.47901,-2.95213 -3.0896,-4.78389 -0.52733,-1.582 -0.23926,-5.62853 1.49497,-6.27886 6.16761,-2.31286 7.39826,11.03965 14.15234,4.28557 1.32909,-1.32909 2.10123,-1.86588 2.69094,-3.43843"
         id="path1198"
         sodipodi:nodetypes="cscsssssssssssssscssssssc"
         transform="translate(17.800486,55.434817)" />
      <path
         style="display:inline;fill:none;fill-rule:evenodd;stroke:#00608f;stroke-width:5.7;stroke-linecap:butt;stroke-linejoin:round;stroke-miterlimit:4;stroke-dasharray:none;stroke-opacity:1"
         d="m 164.02087,147.81045 c 16.80639,-12.86542 -1.36319,-14.00107 -8.59776,-17.61835 -14.49023,-7.24512 -2.96106,8.05055 1.69136,12.12142 2.26033,1.97779 4.57142,3.82909 6.9064,5.49693 z"
         id="path1389"
         transform="translate(17.800486,55.434817)" />
      <path
         style="display:inline;fill:none;fill-rule:evenodd;stroke:#00608f;stroke-width:5.7;stroke-linecap:butt;stroke-linejoin:miter;stroke-miterlimit:4;stroke-dasharray:none;stroke-opacity:1"
         d="m 147.2482,146.11909 c -2.36702,1.06507 -3.65729,3.57008 -3.24178,6.20165 1.64788,10.43654 16.94926,-1.06135 3.24178,-6.20165 z"
         id="path2111"
         transform="translate(17.800486,55.434817)" />
      <path
         style="display:inline;fill:none;fill-rule:evenodd;stroke:#00608f;stroke-width:5.7;stroke-linecap:round;stroke-linejoin:round;stroke-miterlimit:4;stroke-dasharray:none;stroke-opacity:1"
         d="m 95.91662,213.65914 c 7.0421,-8.36148 0.0021,-5.51012 4.88356,-14.05269 1.04887,-1.83552 0.8289,-4.03273 1.69429,-5.97986 0.0439,-0.0987 7.19325,-8.88754 7.37517,-9.06947 2.76205,-2.76204 8.87013,7.35007 8.87013,-3.38859 0,-5.91022 -3.75704,-16.2453 -11.16241,-16.2453 -1.35572,0 -2.40431,1.08176 -3.68758,1.29564 -2.701,0.45016 -4.710686,-0.91229 -7.375166,0.49832 -1.60367,0.849 -2.59094,3.0396 -3.88691,3.68758"
         id="path2179"
         sodipodi:nodetypes="csscssssc"
         transform="translate(17.800486,55.434817)" />
      <path
         style="display:inline;fill:none;fill-rule:evenodd;stroke:#00608f;stroke-width:5.7;stroke-linecap:round;stroke-linejoin:round;stroke-miterlimit:4;stroke-dasharray:none;stroke-opacity:1"
         d="m 169.68987,318.32949 c 3.25067,-0.0593 11.83231,-5.81383 14.49835,-7.43444 3.68796,-2.24182 7.685,-4.12772 11.17575,-3.10501 7.38387,2.16329 5.37706,3.55531 10.14943,8.64441"
         id="path2703"
         sodipodi:nodetypes="cssc" />
      <circle
         style="display:inline;fill:none;stroke:#00608f;stroke-width:5.7;stroke-linecap:round;stroke-miterlimit:4;stroke-dasharray:400,10,0.0625,10;stroke-dashoffset:232"
         id="path890"
         cx="167.42339"
         cy="187.34058"
         r="77.339592"
         transform="translate(17.800486,55.434817)" />
    </g>
    <rect
       style="fill:none;stroke:#48a9da;stroke-width:5.7;stroke-linecap:round;stroke-linejoin:round;stroke-miterlimit:4;stroke-dasharray:none;stroke-dashoffset:215.433;stroke-opacity:1"
       id="rect3858"
       width="62.447399"
       height="152.65448"
       x="-255.8627"
       y="193.78505"
       transform="matrix(-0.8660254,0.5,0.5,0.8660254,0,0)"
       inkscape:transform-center-x="-172.87888"
       inkscape:transform-center-y="-100.28285" />
    <path
       style="fill:none;fill-rule:evenodd;stroke:#48a9da;stroke-width:5.7;stroke-linecap:butt;stroke-linejoin:miter;stroke-miterlimit:4;stroke-dasharray:none;stroke-opacity:1"
       d="M 291.87629,56.266475 367.28284,186.87445"
       id="path3893"
       inkscape:transform-center-x="-172.85915"
       inkscape:transform-center-y="-100.31702" />
    <path
       style="fill:#550000;fill-rule:evenodd;stroke:#48a9da;stroke-width:5.7;stroke-linecap:butt;stroke-linejoin:miter;stroke-miterlimit:4;stroke-dasharray:none;stroke-opacity:1"
       d="M 334.35851,66.775126 279.80937,98.268973"
       id="path4134"
       inkscape:transform-center-x="-150.36353"
       inkscape:transform-center-y="-139.36536" />
    <use
       x="0"
       y="0"
       xlink:href="#path4134"
       id="use4386"
       transform="translate(45.12922,78.166107)"
       width="100%"
       height="100%"
       style="stroke:#48a9da;stroke-opacity:1"
       inkscape:transform-center-x="-327.8159"
       inkscape:transform-center-y="15.197545" />
    <path
       id="path6359"
       style="fill:#ffffff;fill-opacity:1;stroke:#48a9da;stroke-width:5.7;stroke-linejoin:round;stroke-dashoffset:215.433;stroke-opacity:1"
       d="m 361.78219,87.036016 -72.33643,41.763474 c -4.2208,2.43689 -6.80149,6.97414 -6.76995,11.90254 0.0315,4.92843 2.67054,9.49929 6.9229,11.99083 4.25234,2.49157 9.47206,2.52518 13.69285,0.0883 l 72.33643,-41.76359 z"
       sodipodi:nodetypes="csssscc"
       inkscape:transform-center-x="-172.43135"
       inkscape:transform-center-y="-101.07673" />
    <path
       style="fill:none;fill-rule:evenodd;stroke:#48a9da;stroke-width:5.7;stroke-linecap:round;stroke-linejoin:miter;stroke-miterlimit:4;stroke-dasharray:none;stroke-opacity:1"
       d="m 330.90061,120.85323 -29.17344,16.84338"
       id="path7861"
       inkscape:transform-center-x="-159.59349"
       inkscape:transform-center-y="-92.612534" />
    <path
       style="fill:none;fill-rule:evenodd;stroke:#48a9da;stroke-width:5.7;stroke-linecap:butt;stroke-linejoin:miter;stroke-miterlimit:4;stroke-dasharray:none;stroke-opacity:1"
       d="m 377.69181,93.838297 -9.49043,5.47928"
       id="path8222"
       inkscape:transform-center-x="-216.22618"
       inkscape:transform-center-y="-125.30943" />
    <path
       style="fill:none;fill-rule:evenodd;stroke:#48a9da;stroke-width:5.7;stroke-linecap:butt;stroke-linejoin:miter;stroke-miterlimit:4;stroke-dasharray:none;stroke-opacity:1"
       d="m 284.17591,147.82984 -5.50811,3.18012"
       id="path8391"
       inkscape:transform-center-x="-124.70145"
       inkscape:transform-center-y="-72.467604" />
    <path
       style="fill:none;fill-rule:evenodd;stroke:#48a9da;stroke-width:5.7;stroke-linecap:round;stroke-linejoin:miter;stroke-miterlimit:4;stroke-dasharray:none;stroke-opacity:1"
       d="m 263.26215,159.90441 -8.75805,5.05646"
       id="path8524"
       inkscape:transform-center-x="-102.16272"
       inkscape:transform-center-y="-59.454862" />
    <path
       style="fill:none;fill-opacity:1;stroke:#48a9da;stroke-width:5.7;stroke-linecap:round;stroke-linejoin:round;stroke-miterlimit:4;stroke-dasharray:none;stroke-dashoffset:215.433;stroke-opacity:1"
       id="path8694"
       sodipodi:type="arc"
       sodipodi:cx="270.11185"
       sodipodi:cy="148.40356"
       sodipodi:rx="17.774357"
       sodipodi:ry="17.29213"
       sodipodi:start="0"
       sodipodi:end="3.1415927"
       sodipodi:arc-type="chord"
       sodipodi:open="true"
       transform="matrix(0.5,0.8660254,0.8660254,-0.5,0,0)"
       d="m 287.8862,148.40356 a 17.774357,17.29213 0 0 1 -8.88717,14.97543 17.774357,17.29213 0 0 1 -17.77436,0 17.774357,17.29213 0 0 1 -8.88718,-14.97543 z"
       inkscape:transform-center-x="-111.12042"
       inkscape:transform-center-y="-63.296128" />
    <rect
       style="fill:none;fill-opacity:1;stroke:#48a9da;stroke-width:5.7;stroke-linecap:round;stroke-linejoin:round;stroke-miterlimit:4;stroke-dasharray:100, 10, 0.0625, 10;stroke-dashoffset:26.22;stroke-opacity:1"
       id="Hinterteil"
       width="10.553389"
       height="41.61454"
       x="-290.61914"
       y="249.31802"
       transform="matrix(-0.8660254,0.5,0.5,0.8660254,0,0)"
       inkscape:transform-center-x="-225.45631"
       inkscape:transform-center-y="-130.62297" />
    <rect
       style="fill:none;stroke:#48a9da;stroke-width:5.7;stroke-linecap:round;stroke-linejoin:round;stroke-miterlimit:4;stroke-dasharray:none;stroke-dashoffset:215.433;stroke-opacity:1"
       id="rect1275"
       width="46.822971"
       height="114.46011"
       x="54.970913"
       y="-86.01342"
       transform="rotate(60)"
       inkscape:transform-center-x="84.77807"
       inkscape:transform-center-y="-148.00218" />
    <path
       style="fill:none;fill-rule:evenodd;stroke:#48a9da;stroke-width:5.7;stroke-linecap:butt;stroke-linejoin:miter;stroke-miterlimit:4;stroke-dasharray:none;stroke-opacity:1"
       d="M 113.10875,25.204817 15.179098,81.744529"
       id="path1277"
       inkscape:transform-center-x="84.752464"
       inkscape:transform-center-y="-148.01699" />
    <path
       style="fill:#550000;fill-rule:evenodd;stroke:#48a9da;stroke-width:5.7;stroke-linecap:butt;stroke-linejoin:miter;stroke-miterlimit:4;stroke-dasharray:none;stroke-opacity:1"
       d="M 81.583468,16.102002 105.19759,57.00287"
       id="path1279"
       inkscape:transform-center-x="55.505858"
       inkscape:transform-center-y="-164.93924" />
    <use
       x="0"
       y="0"
       xlink:href="#path4134"
       id="use1281"
       transform="matrix(-0.64934464,-0.3748993,-0.3748993,0.64934464,265.12245,131.93055)"
       width="100%"
       height="100%"
       style="stroke:#48a9da;stroke-width:1.33369;stroke-opacity:1"
       inkscape:transform-center-x="-0.4497416"
       inkscape:transform-center-y="-131.10139" />
    <path
       id="path1283"
       style="fill:#ffffff;fill-opacity:1;stroke:#48a9da;stroke-width:5.7;stroke-linejoin:round;stroke-dashoffset:215.433;stroke-opacity:1"
       d="m 56.180248,18.977217 31.31417,54.237737 c 1.82718,3.164756 1.80193,7.078469 -0.0662,10.266871 -1.86819,3.188387 -5.29537,5.167127 -8.99069,5.190787 -3.69532,0.0237 -7.09739,-1.91106 -8.92448,-5.076106 L 38.198868,29.35876 Z"
       sodipodi:nodetypes="csssscc"
       inkscape:transform-center-x="85.373316"
       inkscape:transform-center-y="-147.66663" />
    <path
       style="fill:none;fill-rule:evenodd;stroke:#48a9da;stroke-width:5.7;stroke-linecap:round;stroke-linejoin:miter;stroke-miterlimit:4;stroke-dasharray:none;stroke-opacity:1"
       d="m 63.554978,52.513733 12.62907,21.874204"
       id="path1285"
       inkscape:transform-center-x="79.026878"
       inkscape:transform-center-y="-138.04083" />
    <path
       style="fill:none;fill-rule:evenodd;stroke:#48a9da;stroke-width:5.7;stroke-linecap:butt;stroke-linejoin:miter;stroke-miterlimit:4;stroke-dasharray:none;stroke-opacity:1"
       d="m 43.299228,17.429757 4.10837,7.115917"
       id="path1287"
       inkscape:transform-center-x="103.54298"
       inkscape:transform-center-y="-180.50395" />
    <path
       style="fill:none;fill-rule:evenodd;stroke:#48a9da;stroke-width:5.7;stroke-linecap:butt;stroke-linejoin:miter;stroke-miterlimit:4;stroke-dasharray:none;stroke-opacity:1"
       d="m 83.781928,87.547852 2.38443,4.12998"
       id="path1289"
       inkscape:transform-center-x="63.922239"
       inkscape:transform-center-y="-111.87882" />
    <path
       style="fill:none;fill-rule:evenodd;stroke:#48a9da;stroke-width:5.7;stroke-linecap:round;stroke-linejoin:miter;stroke-miterlimit:4;stroke-dasharray:none;stroke-opacity:1"
       d="m 93.538788,104.90094 3.79133,6.56678"
       id="path1291"
       inkscape:transform-center-x="54.165298"
       inkscape:transform-center-y="-94.979325" />
    <path
       style="fill:none;fill-opacity:1;stroke:#48a9da;stroke-width:5.7;stroke-linecap:round;stroke-linejoin:round;stroke-miterlimit:4;stroke-dasharray:none;stroke-dashoffset:215.433;stroke-opacity:1"
       id="path1293"
       sodipodi:type="arc"
       sodipodi:cx="-28.556486"
       sodipodi:cy="-137.34331"
       sodipodi:rx="13.327188"
       sodipodi:ry="12.965614"
       sodipodi:start="0"
       sodipodi:end="3.1415927"
       sodipodi:arc-type="chord"
       sodipodi:open="true"
       transform="rotate(150)"
       d="m -15.229299,-137.34331 a 13.327188,12.965614 0 0 1 -6.663594,11.22855 13.327188,12.965614 0 0 1 -13.327187,0 13.327188,12.965614 0 0 1 -6.663594,-11.22855 z"
       inkscape:transform-center-x="57.045474"
       inkscape:transform-center-y="-101.69579" />
    <rect
       style="fill:none;fill-opacity:1;stroke:#48a9da;stroke-width:5.7;stroke-linecap:round;stroke-linejoin:round;stroke-miterlimit:4;stroke-dasharray:100, 10, 0.0625, 10;stroke-dashoffset:47.88;stroke-opacity:1"
       id="rect1295"
       width="7.9129157"
       height="31.202524"
       x="28.910549"
       y="-44.374538"
       transform="rotate(60)"
       inkscape:transform-center-x="107.54449"
       inkscape:transform-center-y="-187.41462" />
  </g>
</svg>
