<?xml version="1.0" encoding="iso-8859-1"?>
<!-- Uploaded to: SVG Repo, www.svgrepo.com, Generator: SVG Repo Mixer Tools -->
<svg fill="#000000" height="800px" width="800px" version="1.1" id="Layer_1" xmlns="http://www.w3.org/2000/svg" xmlns:xlink="http://www.w3.org/1999/xlink" 
	 viewBox="0 0 512 512" xml:space="preserve">
<g>
	<g>
		<path d="M256,120.447c-75.148,0-136.284,61.136-136.284,136.284S180.853,393.015,256,393.015s136.284-61.136,136.284-136.284
			S331.148,120.447,256,120.447z M256.001,136.483c35.751-0.002,67.903,15.687,89.948,40.536l-3.021,7.552l-14.259,21.389h-21.363
			c-5.375,0-9.309,5.442-7.605,10.552l7.311,21.935l-8.257,12.385l-10.432-15.648c-1.487-2.23-3.989-3.57-6.67-3.57h-29.249
			l-12.806-25.612l14.522-21.782c2.638-3.956,1.159-9.495-3.085-11.617l-33.93-16.965l-12.596-7.557
			C220.127,140.649,237.586,136.483,256.001,136.483z M197.523,320.174l7.065,14.132l-8.823,26.468
			c-35.855-20.838-60.016-59.67-60.016-104.043c0-0.703,0.015-1.405,0.027-2.106l13.163,8.776c1.316,0.878,2.865,1.347,4.447,1.347
			h22.333l23.305,23.305c1.504,1.504,3.542,2.348,5.669,2.348h29.249l9.086,18.171h-38.336
			C198.846,308.573,194.901,314.935,197.523,320.174z M256,376.983c-16.18-0.001-31.619-3.221-45.723-9.041l10.572-31.716
			c1.385-4.155-1.4-8.05-3.185-11.621H256c5.847,0,9.792-6.362,7.17-11.602l-17.102-34.205c-1.359-2.716-4.133-4.432-7.17-4.432
			h-30.885l-23.305-23.305c-1.504-1.504-3.542-2.348-5.669-2.348h-23.226l-18.35-12.233c5.597-32.865,24.571-61.229,51.108-79.267
			c0.002,0.001,0.004,0.002,0.005,0.004l20.543,12.325c0.175,0.106,0.356,0.204,0.539,0.296l26.082,13.042l-12.065,18.097
			c-1.596,2.393-1.787,5.459-0.5,8.032l17.102,34.205c1.359,2.716,4.133,4.432,7.17,4.432h29.914l14.722,22.083
			c3.118,4.677,10.222,4.679,13.34,0l17.102-25.653c1.372-2.059,1.717-4.635,0.935-6.982l-5.034-15.101h14.534
			c2.681,0,5.184-1.339,6.67-3.57l17.102-25.653c0.187-0.28,0.349-0.575,0.499-0.877c11.479,17.859,18.363,38.94,18.972,61.558
			l-27.275,3.896c-2.019,0.289-3.852,1.336-5.126,2.929l-34.205,42.756c-2.181,2.726-2.346,6.55-0.41,9.454l16.223,24.334
			l3.148,15.739C308.376,367.877,283.232,376.983,256,376.983z M342.444,340.232l-1.623-8.113c-0.205-1.027-0.609-2.004-1.191-2.874
			l-13.851-20.776l28.56-35.699l21.206-3.029C372.6,296.981,360.523,321.522,342.444,340.232z"/>
	</g>
</g>
<g>
	<g>
		<path d="M443.158,431.388C487.613,383.83,512,322.121,512,256.731c0-68.38-26.628-132.668-74.98-181.019
			c-3.132-3.131-8.207-3.131-11.338,0l-36.344,36.345c-3.131,3.131-3.131,8.207,0,11.337c35.674,35.675,55.322,83.03,55.322,133.338
			c0,13.799-1.504,27.571-4.472,40.932c-0.96,4.322,1.765,8.604,6.087,9.564c4.325,0.96,8.605-1.767,9.563-6.088
			c3.222-14.501,4.854-29.442,4.854-44.408c0-51.919-19.276-100.93-54.457-138.898l25.023-25.023
			c41.791,44.607,64.709,102.504,64.709,163.921c0,63.798-24.763,123.856-69.728,169.112c-3.114,3.134-3.105,8.195,0.018,11.319
			l17.206,17.205l-79.835,7.284l7.284-79.835l19,19.001c3.098,3.097,8.276,3.087,11.361-0.023
			c18.794-18.949,33.509-40.981,43.734-65.483c1.706-4.086-0.224-8.781-4.31-10.486c-4.085-1.704-8.78,0.224-10.487,4.311
			c-8.394,20.112-20.073,38.423-34.771,54.534l-25.287-25.288c-4.715-4.714-13.047-1.685-13.652,4.94l-9.714,106.46
			c-0.448,4.908,3.801,9.165,8.711,8.711l106.46-9.714c6.625-0.604,9.654-8.937,4.94-13.652L443.158,431.388z"/>
	</g>
</g>
<g>
	<g>
		<path d="M410.064,52.281c-3.536-2.664-8.563-1.957-11.228,1.578l-30.932,41.049c-2.664,3.536-1.957,8.563,1.579,11.227
			c3.49,2.631,8.599,1.909,11.228-1.578l30.932-41.049C414.306,59.971,413.6,54.944,410.064,52.281z"/>
	</g>
</g>
<g>
	<g>
		<path d="M380.11,32.829c-3.87-2.146-8.752-0.748-10.897,3.124l-24.919,44.954c-2.145,3.873-0.747,8.752,3.125,10.898
			c3.823,2.121,8.782,0.694,10.897-3.124l24.919-44.954C385.382,39.855,383.983,34.975,380.11,32.829z"/>
	</g>
</g>
<g>
	<g>
		<path d="M142.517,407.328c-3.535-2.665-8.562-1.957-11.228,1.578l-30.932,41.049c-2.423,3.216-2.036,7.885,0.895,10.65
			c3.43,3.236,9.074,2.763,11.911-1.002l30.932-41.049C146.759,415.019,146.053,409.992,142.517,407.328z"/>
	</g>
</g>
<g>
	<g>
		<path d="M164.581,421.656c-3.868-2.147-8.752-0.749-10.897,3.124l-24.919,44.954c-1.981,3.575-0.884,8.201,2.491,10.506
			c3.849,2.629,9.277,1.338,11.532-2.732l24.919-44.954C169.851,428.681,168.453,423.802,164.581,421.656z"/>
	</g>
</g>
<g>
	<g>
		<path d="M152.658,31.123l-106.46,9.714c-6.625,0.604-9.654,8.937-4.94,13.652l27.585,27.584
			c-16.451,17.597-30.256,37.238-41.1,58.49c-2.013,3.944-0.447,8.772,3.496,10.785c3.942,2.012,8.773,0.447,10.785-3.496
			c11.285-22.114,26-42.38,43.738-60.231c3.114-3.134,3.105-8.195-0.018-11.319L64.693,55.25l79.835-7.285l-7.284,79.835
			l-15.155-15.155c-3.098-3.097-8.276-3.087-11.361,0.024c-38.318,38.636-59.42,89.799-59.42,144.062
			c0,51.919,19.276,100.93,54.457,138.898l-25.023,25.023c-41.789-44.607-64.708-102.504-64.708-163.921
			c0-25.128,3.832-49.837,11.388-73.443c1.351-4.217-0.974-8.73-5.189-10.08c-4.217-1.348-8.729,0.975-10.08,5.191
			C4.089,203.588,0,229.943,0,256.731c0,68.38,26.628,132.668,74.98,181.019c3.089,3.088,8.249,3.088,11.338,0l36.344-36.345
			c3.132-3.131,3.132-8.207,0.001-11.338C86.988,354.393,67.34,307.04,67.34,256.731c0-47.32,17.421-92.088,49.221-126.939
			l21.442,21.442c4.715,4.714,13.047,1.685,13.652-4.94l9.714-106.46C161.817,34.927,157.569,30.67,152.658,31.123z"/>
	</g>
</g>
<g>
	<g>
		<path d="M238.898,469.975c4.428,0,8.017-3.589,8.017-8.017v-34.205c0-4.427-3.588-8.017-8.017-8.017h-34.205
			c-4.428,0-8.017,3.589-8.017,8.017s3.588,8.017,8.017,8.017h26.188v18.171h-26.188c-4.428,0-8.017,3.589-8.017,8.017v34.205
			c0,4.427,3.588,8.017,8.017,8.017h34.205c4.428,0,8.017-3.589,8.017-8.017s-3.588-8.017-8.017-8.017H212.71v-18.171H238.898z"/>
	</g>
</g>
<g>
	<g>
		<path d="M307.307,469.975c4.428,0,8.017-3.589,8.017-8.017v-34.205c0-4.427-3.588-8.017-8.017-8.017h-34.205
			c-4.428,0-8.017,3.589-8.017,8.017s3.588,8.017,8.017,8.017h26.188v18.171h-26.188c-4.428,0-8.017,3.589-8.017,8.017v34.205
			c0,4.427,3.588,8.017,8.017,8.017h34.205c4.428,0,8.017-3.589,8.017-8.017s-3.588-8.017-8.017-8.017h-26.188v-18.171H307.307z"/>
	</g>
</g>
<g>
	<g>
		<path d="M298.294,11.446c-6.962-3.679-21.381-7.605-42.294,4.889c-20.915-12.494-35.331-8.567-42.294-4.889
			c-10.663,5.633-17.03,17.411-17.03,31.507c0,37.582,54.245,57.98,56.554,58.83c1.775,0.653,3.763,0.653,5.539,0
			c2.309-0.85,56.554-21.247,56.554-58.83C315.324,28.857,308.957,17.079,298.294,11.446z M256.001,85.644
			c-14.265-5.921-43.291-22.205-43.291-42.692c0-8.165,3.093-14.481,8.485-17.33c2.231-1.179,4.82-1.758,7.684-1.758
			c6.449,0,14.298,2.939,22.603,8.608c2.727,1.859,6.311,1.859,9.037,0c11.995-8.185,23.035-10.68,30.287-6.849
			c5.391,2.849,8.485,9.165,8.485,17.329C299.291,63.44,270.258,79.727,256.001,85.644z"/>
	</g>
</g>
</svg>