<?xml version="1.0" ?>
<!-- Uploaded to: SVG Repo, www.svgrepo.com, Generator: SVG Repo Mixer Tools -->
<svg width="800px" height="800px" viewBox="0 0 512 512" version="1.1" xml:space="preserve" xmlns="http://www.w3.org/2000/svg" xmlns:xlink="http://www.w3.org/1999/xlink">
<style type="text/css">
	.st0{display:none;}
	.st1{fill:#474747;}
</style>
<g class="st0" id="Layer_1"/>
<g id="Layer_2">
<g>
<path class="st1" d="M147.88,249.38c-16.39,22.35-27.3,43.26-27.3,72.68c0,3.87,3.13,7,7,7s7-3.13,7-7    c0-25.7,9.41-43.7,24.59-64.4c2.29-3.12,1.61-7.5-1.5-9.78C154.54,245.58,150.16,246.26,147.88,249.38z"/>
<path class="st1" d="M415.37,368.12c-0.26-0.38-0.55-0.74-0.87-1.06c-1.63-1.63-4.05-2.37-6.32-1.92    c-0.45,0.09-0.89,0.23-1.31,0.4c-0.42,0.18-0.83,0.4-1.21,0.65s-0.74,0.54-1.06,0.87c-0.33,0.32-0.62,0.68-0.87,1.06    c-0.26,0.38-0.47,0.79-0.65,1.21c-0.17,0.42-0.31,0.86-0.4,1.31s-0.13,0.91-0.13,1.37c0,0.45,0.04,0.91,0.13,1.36    c0.09,0.45,0.23,0.89,0.4,1.31c0.18,0.43,0.39,0.83,0.65,1.21c0.25,0.38,0.54,0.74,0.87,1.07c0.32,0.32,0.68,0.61,1.06,0.87    c0.38,0.25,0.79,0.47,1.21,0.64c0.42,0.18,0.86,0.31,1.31,0.4s0.91,0.14,1.36,0.14c0.46,0,0.92-0.05,1.37-0.14    c0.45-0.09,0.89-0.22,1.31-0.4c0.43-0.17,0.83-0.39,1.21-0.64c0.38-0.26,0.74-0.55,1.07-0.87c0.32-0.33,0.61-0.69,0.87-1.07    c0.25-0.38,0.46-0.78,0.64-1.21c0.18-0.42,0.31-0.86,0.4-1.31c0.09-0.45,0.14-0.91,0.14-1.36c0-0.46-0.05-0.92-0.14-1.37    c-0.09-0.45-0.22-0.89-0.4-1.31S415.62,368.5,415.37,368.12z"/>
<path class="st1" d="M418.81,359.04c3.51,1.6,7.67,0.06,9.27-3.46c5.53-12.12,8.33-25.1,8.33-38.58    c0-35.57-16.86-57.91-46.67-94.35c-12.71-15.52-27.12-33.12-40.38-53.9c-1.29-2.01-3.51-3.23-5.9-3.23c0,0,0,0-0.01,0    c-2.39,0-4.62,1.23-5.9,3.25c-7.74,12.19-15.8,23.08-22.33,31.52c-2.6-3.21-5.25-6.45-7.99-9.79    c-29.42-35.95-62.76-76.69-78.42-141.62c-0.76-3.14-3.57-5.36-6.81-5.36s-6.05,2.22-6.8,5.36    c-15.81,65.72-49.24,106.45-78.74,142.39c-31.31,38.15-60.89,74.19-60.89,130.8c0,29.93,8.96,58.7,25.92,83.2    c27.38,39.6,72.43,63.24,120.52,63.24c32.79,0,63.78-10.59,89.63-30.62c3.06-2.37,3.61-6.77,1.25-9.82    c-2.37-3.06-6.77-3.61-9.82-1.25c-23.37,18.11-51.4,27.69-81.05,27.69c-43.49,0-84.24-21.38-109-57.2    c-15.33-22.15-23.44-48.17-23.44-75.24c0-51.61,26.75-84.19,57.71-121.92c26.76-32.6,56.65-69.01,74.74-124.06    c17.98,54.37,47.74,90.72,74.37,123.27c3.42,4.18,6.7,8.18,9.91,12.17c-0.07,0.08-0.13,0.16-0.2,0.25    c-1.37,1.7-2.73,3.37-4.08,5.02c-0.44,0.54-0.89,1.08-1.33,1.62c-1.29,1.58-2.57,3.14-3.84,4.69l-0.26,0.32    c-29.58,36.04-46.32,58.16-46.32,93.57c0,19.02,5.69,37.3,16.46,52.86c2.47,3.57,5.16,6.94,8.06,10.1    c15.04,16.39,35.43,26.89,57.76,29.49c0.86,0.1,1.73,0.19,2.59,0.27c2.71,0.24,5.46,0.36,8.2,0.36c19.39,0,38-5.94,53.84-17.16    c3.15-2.24,3.9-6.61,1.66-9.76c-2.24-3.15-6.61-3.89-9.76-1.66c-13.45,9.54-29.27,14.58-45.74,14.58c-2.33,0-4.68-0.1-6.97-0.3    c-23.5-2.08-44.68-14.43-58.12-33.87c-9.14-13.21-13.98-28.73-13.98-44.9c0-30.76,14-49.19,43.14-84.69l0.26-0.32    c4.21-5.13,8.56-10.43,13.01-16.01c0.02-0.02,0.04-0.05,0.06-0.07v0c0,0,0,0,0,0c5.92-7.44,14.22-18.12,22.71-30.65    c11.95,17.58,24.33,32.7,35.44,46.27c29.38,35.91,43.5,54.55,43.5,85.48c0,11.46-2.38,22.49-7.07,32.77    C413.74,353.28,415.29,357.43,418.81,359.04z"/>
<path class="st1" d="M301.91,281.72c-3.35-1.94-7.63-0.79-9.56,2.55c-6.43,11.12-9.06,20.6-9.06,32.71    c0,5.34,0.7,10.63,2.07,15.72c0.84,3.12,3.67,5.18,6.75,5.18c0.6,0,1.22-0.08,1.83-0.24c3.73-1.01,5.94-4.85,4.93-8.58    c-1.05-3.91-1.59-7.97-1.59-12.07c0-9.69,1.95-16.66,7.18-25.7C306.4,287.94,305.26,283.66,301.91,281.72z"/>
</g>
</g>
</svg>