<?xml version="1.0" encoding="UTF-8" standalone="no"?>
<!-- Created with Inkscape (http://www.inkscape.org/) -->

<svg
   width="208.60977mm"
   height="208.14116mm"
   viewBox="0 0 208.60977 208.14116"
   version="1.1"
   id="svg5937"
   inkscape:version="1.1.1 (3bf5ae0d25, 2021-09-20)"
   sodipodi:docname="river_sun.svg"
   xmlns:inkscape="http://www.inkscape.org/namespaces/inkscape"
   xmlns:sodipodi="http://sodipodi.sourceforge.net/DTD/sodipodi-0.dtd"
   xmlns="http://www.w3.org/2000/svg"
   xmlns:svg="http://www.w3.org/2000/svg">
  <sodipodi:namedview
     id="namedview5939"
     pagecolor="#ffffff"
     bordercolor="#666666"
     borderopacity="1.0"
     inkscape:pageshadow="2"
     inkscape:pageopacity="0.0"
     inkscape:pagecheckerboard="0"
     inkscape:document-units="mm"
     showgrid="false"
     fit-margin-top="0"
     fit-margin-left="0"
     fit-margin-right="0"
     fit-margin-bottom="0"
     inkscape:zoom="0.85409097"
     inkscape:cx="320.80892"
     inkscape:cy="328.41935"
     inkscape:window-width="2560"
     inkscape:window-height="1387"
     inkscape:window-x="1912"
     inkscape:window-y="-8"
     inkscape:window-maximized="1"
     inkscape:current-layer="layer1" />
  <defs
     id="defs5934" />
  <g
     inkscape:label="Ebene 1"
     inkscape:groupmode="layer"
     id="layer1"
     transform="translate(0.39104887,-43.863809)">
    <g
       id="g6"
       transform="matrix(0.49185457,0,0,0.49185457,-0.98572633,65.534543)"
       style="fill:#00608e;fill-opacity:1">
      <path
         d="m 119.889,233.546 c 0,-11.498 -3.432,-27.447 -8.744,-40.631 C 106.285,180.85 93.015807,165.68095 86.254202,162.02729 81.990529,164.67799 76.201,169.14 72.371,173.141 67.238,162.593 56.106695,154.04161 50.042281,149.2417 42.133429,155.97591 29.509,167.349 24.65,179.414 c -6.223645,12.72618 -8.741,29.133 -8.741,40.634 0,25.203 17.402,29.245 28.488,29.894 v 34.151 c 0,3.038 2.462,5.5 5.5,5.5 3.038,0 5.5,-2.462 5.5,-5.5 v -34.148 c 5.649,10.766 16.973,13.029 24.998,13.498 v 34.149 c 0,3.038 2.462,5.5 5.5,5.5 3.038,0 5.5,-2.462 5.5,-5.5 v -34.148 c 11.089,-0.65 28.494,-4.692 28.494,-29.898 z M 26.91,220.047 c 0,-10.049 3.192,-24.727 7.944,-36.524 4.52053,-11.99586 12.450764,-17.7082 15.045,-19.556 1.387875,1.57457 9.645,6.114 15.079,19.67 -1.665,3.062 -3.108,6.243 -4.33,9.278 -5.312,13.184 -8.744,29.133 -8.744,40.631 0,1.956 0.11,3.779 0.308,5.489 -0.742,0.021 -1.511,0.032 -2.313,0.032 -17.188,-0.001 -22.989,-4.8 -22.989,-19.02 z m 59.061,32.52 c -0.025,0 -0.049,-0.004 -0.074,-0.004 -0.025,0 -0.049,0.003 -0.074,0.004 -17.132,-0.014 -22.918,-4.82 -22.918,-19.021 0,-10.046 3.114272,-25.43056 7.868272,-37.22956 5.815,-14.435 12.998655,-19.557 15.359913,-21.21029 1.81016,1.57457 8.993815,7.48385 14.808815,21.91885 4.753,11.799 7.947,26.475 7.947,36.521 0,14.201 -5.786,19.007 -22.918,19.021 z"
         id="path2"
         sodipodi:nodetypes="scccccscsssccssscssccccsccssscscccss"
         style="fill:#00608e;fill-opacity:1" />
      <path
         d="m 425.33802,119.23502 c 0,0 -11.86402,-0.34702 -17.64202,0.093 v -7.686 c 6.106,-1.256 11.627,-5.118 11.627,-14.985 0,-8.435 -9.27887,-26.18529 -16.48224,-33.349338 C 393.12998,70.041867 385.07,88.222 385.07,96.657 c 0,9.867 5.521,13.729 11.626,14.985 v 8.891 c -17.97,2.562 -35.997,8.026 -53.985,16.395 l -34.779,-5.509 c -1.038,-0.414 -1.989,-0.762 -2.664,-1.021 C 265.844,115.297 224.592,105.126 182.597,100.115 179.301,86.719 166.0488,71.432387 161.38923,68.499058 155.35258,72.826957 145.136,84.447 141.554,96.886 131.49,96.496 121.426,96.417 111.375,96.616 v -4.155 c 6.106,-1.256 11.627,-5.118 11.627,-14.985 0,-8.435 -9.85099,-27.044976 -16.83944,-32.346371 C 96.308495,51.577272 88.748,69.041 88.748,77.476 c 0,9.866 5.521,13.729 11.626,14.985 v 4.48 c -9.01,0.371 -18.005,0.981 -26.976,1.825 V 95.144 C 79.504,93.888 85.024,90.025 85.024,80.159 85.024,71.724 76.032695,52.254338 68.184562,47.239505 59.190181,54.976676 50.772,71.724 50.772,80.159 c 0,9.867 5.521,13.729 11.626,14.985 v 4.785 c -18.156,2.103 -36.198,5.161 -54.042,9.201 0.2002323,1.80538 2.007605,8.97064 2.428,10.729 42.05,-9.521 85.208,-13.563 128.386,-12.057 -0.428,2.895 -0.648,5.534 -0.648,7.689 0,15.875 10.267,19.551 17.62,20.404 v 19.203 c 0,3.038 2.462,5.5 5.5,5.5 3.038,0 5.5,-2.462 5.5,-5.5 v -19.203 c 7.353,-0.853 17.621,-4.528 17.621,-20.404 0,-1.215 -0.069,-2.582 -0.205,-4.062 31.959,4.026 63.456,11.121 93.997,21.154 -21.388,2.483 -47.797,7.408 -72.651,14.965 -30.424,9.25 -69.055,25.797 -80.319,52.092 -3.712,8.666 -3.549,16.374 0.483,22.91 12.076,19.576 56.489,22.271 103.51,25.125 34.977,2.123 74.619,4.529 84.071,15.325 1.371,1.566 1.919,3.148 1.776,5.13 -0.849,11.761 -38.901,21.727 -55.224,25.466 -34.25,7.846 -78.637,13.915 -121.563,19.784 -40.420825,7.51601 -84.582028,8.31587 -122.364281,22.28695 -7.3602127,2.60556 -15.36977945,8.51644 -15.055719,9.06605 -9.149e-4,-0.0348 4.0200708,4.53204 8.563,6.905 2.032,-2.519 10.354,-7.698 43.259,-14.08 24,-4.654 54.645,-8.844 87.088,-13.28 111.201,-15.204 184.242,-27.271 186.267,-55.358 0.356,-4.941 -1.147,-9.371 -4.471,-13.166 -12.478,-14.252 -49.182,-16.479 -91.681,-19.059 -40.188,-2.439 -85.736,-5.203 -94.815,-19.92 -2.072,-3.359 -1.985,-7.547 0.267,-12.804 7.597,-17.736 32.981,-33.607 73.408,-45.899 34.332,-10.438 71.613,-15.715 93.587,-16.345 l 7.159,1.134 c -16.974,2.469 -36.649,5.958 -55.962,10.47 -38.253,8.936 -64.234,19.26 -77.221,30.685 -2.941,2.587 -10.754,9.459 -7.783,16.624 3.963,9.56 21.42,8.822 64.057,6.063 55.177,-3.571 138.563,-8.968 166.881,25.061 10.263,12.333 14.535,24.782 13.062,38.058 -3.722,33.54 -43.116,63.846 -69.184,83.901 -16.302,12.541 -24.81539,21.65724 -24.81539,21.65724 L 330.833,379.117 c 0,0 11.07,-10.135 19.572,-16.676 27.545,-21.191 69.172,-53.215 73.409,-91.406 1.796,-16.178 -3.433,-31.758 -15.539,-46.307 -31.898,-38.332 -115.214,-32.94 -176.047,-29.002 -20.318,1.315 -45.22,2.927 -52.28,0.646 0.646,-0.865 1.829,-2.202 3.982,-4.096 21.342,-18.774 84.632,-32.284 128.776,-38.685 -2.486,1.606 -7.453,4.983 -7.453,4.983 l 6.256,9.049 c 13.92373,-8.41637 62.21664,-42.99488 113.50702,-37.39098 v 0 z M 402.196,77.385 c 2.41,2.473 6.127,12.274 6.127,19.272 0,3.187 0,4.506 -6.127,4.506 -3.186,0 -4.537,-0.469 -5.111,-0.862 -0.839,-0.575 -1.015,-2.299 -1.015,-3.645 0,-6.996 3.717,-16.798 6.126,-19.271 z m -334.298,7.28 c -3.186,0 -4.538,-0.469 -5.111,-0.862 -0.839,-0.575 -1.015,-2.3 -1.015,-3.645 0,-6.997 3.717,-16.798 6.126,-19.272 2.41,2.474 6.126,12.275 6.126,19.272 0,3.188 0,4.507 -6.126,4.507 z m 37.977,-2.682 c -3.186,0 -4.538,-0.469 -5.111,-0.862 -0.839,-0.575 -1.015,-2.3 -1.015,-3.645 0,-6.997 3.717,-16.798 6.126,-19.272 2.409,2.474 6.126,12.275 6.126,19.272 0,3.188 0,4.507 -6.126,4.507 z m 55.809,43.172 c -0.014,0 -0.027,-0.002 -0.041,-0.002 -0.014,0 -0.027,0.002 -0.041,0.002 -9.48,-0.006 -12.079,-2.089 -12.079,-9.664 0,-5.876 1.958,-14.841 4.763,-21.801 3.313,-8.225 6.91471,-10.104971 7.358,-10.78 0.23222,0.456136 4.044,2.555 7.358,10.78 2.804,6.96 4.763,15.925 4.763,21.801 -10e-4,7.576 -2.601,9.658 -12.081,9.664 z"
         id="path4"
         sodipodi:nodetypes="cccscsccccccccccscsccccscscccccscssscscccccssccccccccccccccccccccccccccccccccccccccsscscscscssscscsssscsccccs"
         style="fill:#00608e;fill-opacity:1" />
    </g>
    <g
       id="g5900"
       transform="matrix(0.45250062,0,0,0.45250062,74.997345,41.510806)"
       style="fill:#00608e;fill-opacity:1">
      <path
         d="m 149.803,99.635 c 17.645,0 32,-14.355 32,-32 0,-17.645 -14.355,-32 -32,-32 -17.645,0 -32,14.355 -32,32 0,17.645 14.355,32 32,32 z m 0,-53 c 11.58,0 21,9.42 21,21 0,11.58 -9.42,21 -21,21 -11.58,0 -21,-9.42 -21,-21 0,-11.58 9.42,-21 21,-21 z"
         id="path2-8"
         style="fill:#00608e;fill-opacity:1" />
      <path
         d="m 144.301,109.779 v 30.66 h 11 v -30.66 z"
         id="path4-5"
         sodipodi:nodetypes="ccccc"
         style="fill:#00608e;fill-opacity:1" />
      <path
         d="M 155.301,25.499 V 8.439 h -11 v 17.06 z"
         id="path6"
         sodipodi:nodetypes="ccccc"
         style="fill:#00608e;fill-opacity:1" />
      <path
         d="m 116.114,93.547 -9.903,9.903 7.778,7.778 9.903,-9.903 z"
         id="path8"
         sodipodi:nodetypes="ccccc"
         style="fill:#00608e;fill-opacity:1" />
      <path
         d="M 183.487,41.73 212.24,12.978 204.462,5.2 175.709,33.952 Z"
         id="path10"
         sodipodi:nodetypes="ccccc"
         style="fill:#00608e;fill-opacity:1" />
      <path
         d="m 81.701,73.138 h 25.96 v -11 h -25.96 z"
         id="path12"
         sodipodi:nodetypes="ccccc"
         style="fill:#00608e;fill-opacity:1" />
      <path
         d="m 191.941,62.138 v 11 h 20.26 v -11 z"
         id="path14"
         sodipodi:nodetypes="ccccc"
         style="fill:#00608e;fill-opacity:1" />
      <path
         d="m 116.114,41.73 7.778,-7.778 -8.854,-8.854 -7.778,7.778 z"
         id="path16"
         sodipodi:nodetypes="ccccc"
         style="fill:#00608e;fill-opacity:1" />
      <path
         d="m 175.709,101.325 37.024,37.024 7.778,-7.778 -37.024,-37.024 z"
         id="path18"
         sodipodi:nodetypes="ccccc"
         style="fill:#00608e;fill-opacity:1" />
    </g>
  </g>
</svg>
