<!DOCTYPE svg PUBLIC "-//W3C//DTD SVG 1.1//EN" "http://www.w3.org/Graphics/SVG/1.1/DTD/svg11.dtd">
<!-- Uploaded to: SVG Repo, www.svgrepo.com, Transformed by: SVG Repo Mixer Tools -->
<svg fill="#00608f" height="800px" width="800px" version="1.1" id="Layer_1" xmlns="http://www.w3.org/2000/svg" xmlns:xlink="http://www.w3.org/1999/xlink" viewBox="0 0 512.001 512.001" xml:space="preserve">
<g id="SVGRepo_bgCarrier" stroke-width="0"/>
<g id="SVGRepo_tracerCarrier" stroke-linecap="round" stroke-linejoin="round"/>
<g id="SVGRepo_iconCarrier"> <g> <g> <path d="M255.778,498.7c-0.134-0.713-0.356-1.416-0.634-2.082c-0.278-0.679-0.623-1.325-1.024-1.924 c-0.401-0.613-0.868-1.181-1.38-1.693c-0.512-0.512-1.08-0.979-1.692-1.38c-0.601-0.4-1.247-0.746-1.926-1.024 c-0.668-0.278-1.369-0.489-2.081-0.633c-3.606-0.735-7.457,0.455-10.04,3.037c-0.512,0.512-0.979,1.08-1.38,1.693 c-0.412,0.6-0.746,1.245-1.024,1.924c-0.278,0.668-0.501,1.369-0.646,2.081c-0.145,0.712-0.211,1.447-0.211,2.17 c0,0.722,0.067,1.458,0.211,2.17c0.145,0.712,0.367,1.414,0.646,2.093c0.278,0.668,0.612,1.313,1.024,1.914 c0.401,0.612,0.868,1.18,1.38,1.692c2.07,2.07,4.942,3.262,7.869,3.262c0.724,0,1.458-0.068,2.17-0.211 c0.712-0.145,1.414-0.356,2.081-0.634c0.679-0.278,1.325-0.623,1.926-1.024c0.612-0.411,1.18-0.879,1.692-1.391 c0.512-0.512,0.979-1.08,1.38-1.692c0.401-0.601,0.746-1.247,1.024-1.914c0.278-0.679,0.501-1.38,0.634-2.093 c0.145-0.713,0.223-1.448,0.223-2.17C256.001,500.147,255.923,499.411,255.778,498.7z"/> </g> </g> <g> <g> <path d="M500.87,178.087H400.696h-89.044v-11.13c0-26.876-19.15-49.362-44.522-54.532v-2.066 c31.543-5.316,55.652-32.807,55.652-65.837c0-6.146-4.983-11.13-11.13-11.13h-44.522V11.13c0-6.146-4.983-11.13-11.13-11.13 c-6.147,0-11.13,4.984-11.13,11.13v22.261h-44.522c-6.147,0-11.13,4.984-11.13,11.13c0,33.031,24.11,60.521,55.652,65.837v2.065 c-25.372,5.171-44.522,27.657-44.522,54.532v11.13h-89.043H11.131c-6.147,0-11.13,4.984-11.13,11.13v89.043v111.304 c0,6.146,4.983,11.13,11.13,11.13h100.174h89.043v33.391c0,6.146,4.983,11.13,11.13,11.13h33.391v11.13h-55.652 c-6.147,0-11.13,4.984-11.13,11.13v33.391c0,6.146,4.983,11.13,11.13,11.13h22.261c6.147,0,11.13-4.984,11.13-11.13 s-4.983-11.13-11.13-11.13h-11.13v-11.13h111.304v11.13h-33.391c-6.147,0-11.13,4.984-11.13,11.13s4.983,11.13,11.13,11.13h44.522 c6.147,0,11.13-4.984,11.13-11.13v-33.391c0-6.146-4.983-11.13-11.13-11.13h-55.652v-11.13h33.391 c6.147,0,11.13-4.984,11.13-11.13v-33.391h89.044H500.87c6.147,0,11.13-4.984,11.13-11.13V278.261v-89.043 C512.001,183.071,507.017,178.087,500.87,178.087z M100.174,378.435H22.261v-89.043h77.913V378.435z M100.174,267.13H22.261 v-66.783h77.913V267.13z M200.348,378.435h-77.913v-89.043h77.913V378.435z M200.348,267.13h-77.913v-66.783h77.913V267.13z M212.888,55.652h86.226c-4.954,19.181-22.406,33.391-43.113,33.391C235.295,89.044,217.842,74.833,212.888,55.652z M289.392,189.217v89.043v111.304v33.391h-66.783v-33.391V278.261v-89.043v-22.261c0-18.412,14.979-33.391,33.391-33.391 c18.412,0,33.391,14.979,33.391,33.391V189.217z M389.566,378.435h-77.913v-89.043h77.913V378.435z M389.566,267.13h-77.913 v-66.783h77.913V267.13z M489.74,378.435h-77.913v-89.043h77.913V378.435z M489.74,267.13h-77.913v-66.783h77.913V267.13z"/> </g> </g> <g> <g> <path d="M256.001,178.087c-6.147,0-11.13,4.984-11.13,11.13v89.043c0,6.146,4.983,11.13,11.13,11.13 c6.147,0,11.13-4.984,11.13-11.13v-89.043C267.131,183.071,262.148,178.087,256.001,178.087z"/> </g> </g> </g>
</svg>