<?xml version="1.0" encoding="iso-8859-1"?>
<!-- Uploaded to: SVG Repo, www.svgrepo.com, Generator: SVG Repo Mixer Tools -->
<svg fill="#000000" height="800px" width="800px" version="1.1" id="Layer_1" xmlns="http://www.w3.org/2000/svg" xmlns:xlink="http://www.w3.org/1999/xlink" 
	 viewBox="0 0 512 512" xml:space="preserve">
<g>
	<g>
		<path d="M486.429,24.475H25.571C11.471,24.475,0,35.983,0,50.125v85.234c0,14.142,11.471,25.65,25.571,25.65h460.858
			c14.1,0,25.571-11.508,25.571-25.65V50.125C512,35.983,500.529,24.475,486.429,24.475z M494.933,135.358
			c0,4.733-3.817,8.583-8.504,8.583H25.571c-4.687,0-8.504-3.85-8.504-8.583V50.125c0-4.733,3.817-8.583,8.504-8.583h460.858
			c4.687,0,8.504,3.85,8.504,8.583V135.358z"/>
	</g>
</g>
<g>
	<g>
		<path d="M486.429,169.542H25.571C11.471,169.542,0,181.05,0,195.192v85.233c0,14.142,11.471,25.65,25.571,25.65h460.858
			c14.1,0,25.571-11.508,25.571-25.65v-85.233C512,181.05,500.529,169.542,486.429,169.542z M494.933,280.425
			c0,4.733-3.817,8.583-8.504,8.583H25.571c-4.687,0-8.504-3.85-8.504-8.583v-85.233c0-4.733,3.817-8.583,8.504-8.583h460.858
			c4.687,0,8.504,3.85,8.504,8.583V280.425z"/>
	</g>
</g>
<g>
	<g>
		<path d="M68.267,67.142c-14.117,0-25.6,11.483-25.6,25.6s11.483,25.6,25.6,25.6s25.6-11.483,25.6-25.6
			S82.383,67.142,68.267,67.142z M68.267,101.275c-4.704,0-8.533-3.825-8.533-8.533s3.829-8.533,8.533-8.533
			s8.533,3.825,8.533,8.533S72.971,101.275,68.267,101.275z"/>
	</g>
</g>
<g>
	<g>
		<path d="M68.267,212.208c-14.117,0-25.6,11.483-25.6,25.6s11.483,25.6,25.6,25.6s25.6-11.483,25.6-25.6
			S82.383,212.208,68.267,212.208z M68.267,246.342c-4.704,0-8.533-3.825-8.533-8.533c0-4.708,3.829-8.533,8.533-8.533
			s8.533,3.825,8.533,8.533C76.8,242.517,72.971,246.342,68.267,246.342z"/>
	</g>
</g>
<g>
	<g>
		<path d="M128,67.142c-14.117,0-25.6,11.483-25.6,25.6s11.483,25.6,25.6,25.6s25.6-11.483,25.6-25.6S142.117,67.142,128,67.142z
			 M128,101.275c-4.704,0-8.533-3.825-8.533-8.533s3.829-8.533,8.533-8.533s8.533,3.825,8.533,8.533S132.704,101.275,128,101.275z"
			/>
	</g>
</g>
<g>
	<g>
		<path d="M128,212.208c-14.117,0-25.6,11.483-25.6,25.6s11.483,25.6,25.6,25.6s25.6-11.483,25.6-25.6S142.117,212.208,128,212.208z
			 M128,246.342c-4.704,0-8.533-3.825-8.533-8.533c0-4.708,3.829-8.533,8.533-8.533s8.533,3.825,8.533,8.533
			C136.533,242.517,132.704,246.342,128,246.342z"/>
	</g>
</g>
<g>
	<g>
		<path d="M187.733,67.142c-14.117,0-25.6,11.483-25.6,25.6s11.483,25.6,25.6,25.6s25.6-11.483,25.6-25.6
			S201.85,67.142,187.733,67.142z M187.733,101.275c-4.704,0-8.533-3.825-8.533-8.533s3.829-8.533,8.533-8.533
			s8.533,3.825,8.533,8.533S192.438,101.275,187.733,101.275z"/>
	</g>
</g>
<g>
	<g>
		<path d="M187.733,212.208c-14.117,0-25.6,11.483-25.6,25.6s11.483,25.6,25.6,25.6s25.6-11.483,25.6-25.6
			S201.85,212.208,187.733,212.208z M187.733,246.342c-4.704,0-8.533-3.825-8.533-8.533c0-4.708,3.829-8.533,8.533-8.533
			s8.533,3.825,8.533,8.533C196.267,242.517,192.438,246.342,187.733,246.342z"/>
	</g>
</g>
<g>
	<g>
		<path d="M443.733,58.608c-18.821,0-34.133,15.308-34.133,34.133s15.312,34.133,34.133,34.133
			c18.821,0,34.133-15.308,34.133-34.133S462.554,58.608,443.733,58.608z M443.733,109.808c-9.412,0-17.067-7.658-17.067-17.067
			s7.654-17.067,17.067-17.067S460.8,83.333,460.8,92.742S453.146,109.808,443.733,109.808z"/>
	</g>
</g>
<g>
	<g>
		<path d="M443.733,203.675c-18.821,0-34.133,15.308-34.133,34.133c0,18.825,15.312,34.133,34.133,34.133
			c18.821,0,34.133-15.308,34.133-34.133C477.867,218.983,462.554,203.675,443.733,203.675z M443.733,254.875
			c-9.412,0-17.067-7.658-17.067-17.067c0-9.408,7.654-17.067,17.067-17.067S460.8,228.4,460.8,237.808
			C460.8,247.217,453.146,254.875,443.733,254.875z"/>
	</g>
</g>
<g>
	<g>
		<path d="M486.429,314.608H25.571c-14.1,0-25.571,11.508-25.571,25.65v85.234c0,14.142,11.483,25.65,25.596,25.65h306.7
			c4.713,0,8.533-3.817,8.533-8.533s-3.821-8.533-8.533-8.533h-306.7c-4.704,0-8.529-3.85-8.529-8.583v-85.233
			c0-4.733,3.817-8.583,8.504-8.583h460.858c4.687,0,8.504,3.8,8.504,8.467v9.141c0,4.717,3.821,8.533,8.533,8.533
			S512,354,512,349.283v-9.141C512,326.067,500.529,314.608,486.429,314.608z"/>
	</g>
</g>
<g>
	<g>
		<path d="M479.083,424.683l24.133-24.133c3.333-3.333,3.333-8.733,0-12.067l-24.137-24.142c-3.2-3.2-8.867-3.2-12.067,0
			l-24.137,24.142l-24.138-24.142c-3.2-3.2-8.867-3.2-12.067,0l-24.133,24.142c-3.333,3.333-3.333,8.733,0,12.067l24.133,24.133
			l-24.133,24.133c-3.333,3.333-3.333,8.733,0,12.067l24.133,24.142c1.6,1.6,3.771,2.5,6.033,2.5c2.262,0,4.433-0.9,6.033-2.5
			l24.138-24.142l24.137,24.142c1.6,1.6,3.771,2.5,6.033,2.5c2.263,0,4.434-0.9,6.034-2.5l24.137-24.142
			c3.333-3.333,3.333-8.733,0-12.067L479.083,424.683z M473.046,466.925l-24.137-24.142c-1.6-1.6-3.771-2.5-6.033-2.5
			c-2.263,0-4.434,0.9-6.034,2.5l-24.137,24.142l-12.067-12.075l24.138-24.133c1.6-1.6,2.5-3.767,2.5-6.033s-0.9-4.433-2.5-6.034
			l-24.138-24.133l12.067-12.075l24.137,24.142c3.2,3.2,8.867,3.2,12.067,0l24.137-24.142l12.071,12.075l-24.137,24.133
			c-1.6,1.6-2.5,3.767-2.5,6.034s0.9,4.433,2.5,6.033l24.137,24.133L473.046,466.925z"/>
	</g>
</g>
<g>
	<g>
		<path d="M68.267,357.275c-14.117,0-25.6,11.483-25.6,25.6s11.483,25.6,25.6,25.6s25.6-11.483,25.6-25.6
			S82.383,357.275,68.267,357.275z M68.267,391.408c-4.704,0-8.533-3.825-8.533-8.533s3.829-8.533,8.533-8.533
			s8.533,3.825,8.533,8.533S72.971,391.408,68.267,391.408z"/>
	</g>
</g>
<g>
	<g>
		<path d="M128,357.275c-14.117,0-25.6,11.483-25.6,25.6s11.483,25.6,25.6,25.6s25.6-11.483,25.6-25.6S142.117,357.275,128,357.275z
			 M128,391.408c-4.704,0-8.533-3.825-8.533-8.533s3.829-8.533,8.533-8.533s8.533,3.825,8.533,8.533S132.704,391.408,128,391.408z"
			/>
	</g>
</g>
<g>
	<g>
		<path d="M187.733,357.275c-14.117,0-25.6,11.483-25.6,25.6s11.483,25.6,25.6,25.6s25.6-11.483,25.6-25.6
			S201.85,357.275,187.733,357.275z M187.733,391.408c-4.704,0-8.533-3.825-8.533-8.533s3.829-8.533,8.533-8.533
			s8.533,3.825,8.533,8.533S192.438,391.408,187.733,391.408z"/>
	</g>
</g>
</svg>