<?xml version="1.0" encoding="iso-8859-1"?>
<!-- Uploaded to: SVG Repo, www.svgrepo.com, Generator: SVG Repo Mixer Tools -->
<svg fill="#000000" version="1.1" id="Layer_1" xmlns="http://www.w3.org/2000/svg" xmlns:xlink="http://www.w3.org/1999/xlink" 
	 viewBox="0 0 512 512" xml:space="preserve">
<g>
	<g>
		<path d="M357.517,344.276c-46.241,0-83.862,37.621-83.862,83.862c0,46.241,37.621,83.862,83.862,83.862
			c46.241,0,83.862-37.621,83.862-83.862C441.379,381.897,403.759,344.276,357.517,344.276z M357.517,494.345
			c-36.509,0-66.207-29.698-66.207-66.207c0-36.509,29.698-66.207,66.207-66.207c36.509,0,66.207,29.698,66.207,66.207
			C423.724,464.647,394.026,494.345,357.517,494.345z"/>
	</g>
</g>
<g>
	<g>
		<path d="M361.931,370.759c-19.474,0-35.31,15.836-35.31,35.31c0,4.879,3.948,8.828,8.828,8.828c4.879,0,8.828-3.948,8.828-8.828
			c0-9.733,7.922-17.655,17.655-17.655s17.655,7.922,17.655,17.655s-7.922,17.655-17.655,17.655c-4.879,0-8.828,3.948-8.828,8.828
			v17.655c0,4.879,3.948,8.828,8.828,8.828c4.879,0,8.828-3.948,8.828-8.828v-9.948c15.215-3.923,26.483-17.767,26.483-34.19
			C397.241,386.595,381.405,370.759,361.931,370.759z"/>
	</g>
</g>
<g>
	<g>
		<path d="M370.052,473.336c-0.44-1.06-1.06-2.035-1.854-2.914c-3.267-3.267-9.267-3.267-12.534,0
			c-0.793,0.879-1.414,1.767-1.854,2.914c-0.44,1.06-0.707,2.207-0.707,3.353c0,2.379,0.879,4.586,2.56,6.267
			c1.672,1.673,3.879,2.56,6.267,2.56c1.146,0,2.293-0.267,3.353-0.707c1.06-0.44,2.026-1.06,2.914-1.854
			c1.673-1.681,2.56-3.888,2.56-6.267C370.759,475.543,370.491,474.396,370.052,473.336z"/>
	</g>
</g>
<g>
	<g>
		<path d="M300.172,0H105.897C86.448,0,70.621,15.845,70.621,35.328v44.121v361.871c0,19.5,15.853,35.371,35.336,35.371h143.155
			c4.879,0,8.828-3.948,8.828-8.828c0-4.879-3.948-8.828-8.828-8.828H105.957c-9.75,0-17.681-7.948-17.681-17.715V88.276h229.517
			v239.983c0,4.879,3.948,8.828,8.828,8.828c4.879,0,8.828-3.948,8.828-8.828V79.448V35.328C335.448,15.845,319.621,0,300.172,0z
			 M317.793,70.621H88.276V35.328c0-9.741,7.905-17.672,17.621-17.672h194.276c9.716,0,17.621,7.931,17.621,17.672V70.621z"/>
	</g>
</g>
<g>
	<g>
		<path d="M203.034,370.759c-19.474,0-35.31,15.836-35.31,35.31s15.836,35.31,35.31,35.31s35.31-15.836,35.31-35.31
			S222.509,370.759,203.034,370.759z M203.034,423.724c-9.733,0-17.655-7.922-17.655-17.655s7.922-17.655,17.655-17.655
			s17.655,7.922,17.655,17.655S212.767,423.724,203.034,423.724z"/>
	</g>
</g>
<g>
	<g>
		<rect x="158.897" y="35.31" width="52.966" height="17.655"/>
	</g>
</g>
</svg>