<?xml version="1.0" encoding="iso-8859-1"?>
<!-- Uploaded to: SVG Repo, www.svgrepo.com, Generator: SVG Repo Mixer Tools -->
<!DOCTYPE svg PUBLIC "-//W3C//DTD SVG 1.1//EN" "http://www.w3.org/Graphics/SVG/1.1/DTD/svg11.dtd">
<svg fill="#000000" height="800px" width="800px" version="1.1" id="Capa_1" xmlns="http://www.w3.org/2000/svg" xmlns:xlink="http://www.w3.org/1999/xlink" 
	 viewBox="0 0 467.771 467.771" xml:space="preserve">
<g>
	<path d="M149.803,99.635c17.645,0,32-14.355,32-32s-14.355-32-32-32s-32,14.355-32,32S132.158,99.635,149.803,99.635z
		 M149.803,46.635c11.58,0,21,9.42,21,21s-9.42,21-21,21s-21-9.42-21-21S138.223,46.635,149.803,46.635z"/>
	<path d="M144.301,109.779v30.66c0,3.038,2.462,5.5,5.5,5.5s5.5-2.462,5.5-5.5v-30.66c0-3.038-2.462-5.5-5.5-5.5
		S144.301,106.741,144.301,109.779z"/>
	<path d="M149.801,30.999c3.038,0,5.5-2.462,5.5-5.5V8.439c0-3.038-2.462-5.5-5.5-5.5s-5.5,2.462-5.5,5.5v17.06
		C144.301,28.536,146.763,30.999,149.801,30.999z"/>
	<path d="M116.114,93.547l-9.903,9.903c-2.148,2.148-2.148,5.63,0,7.778c1.074,1.074,2.481,1.611,3.889,1.611
		s2.815-0.537,3.889-1.611l9.903-9.903c2.148-2.148,2.148-5.63,0-7.778C121.744,91.399,118.263,91.399,116.114,93.547z"/>
	<path d="M179.598,43.341c1.407,0,2.815-0.537,3.889-1.611l28.753-28.752c2.148-2.148,2.148-5.63,0-7.778s-5.63-2.148-7.778,0
		l-28.753,28.752c-2.148,2.148-2.148,5.63,0,7.778C176.783,42.804,178.191,43.341,179.598,43.341z"/>
	<path d="M81.701,73.138h25.96c3.038,0,5.5-2.462,5.5-5.5s-2.462-5.5-5.5-5.5h-25.96c-3.038,0-5.5,2.462-5.5,5.5
		S78.663,73.138,81.701,73.138z"/>
	<path d="M191.941,62.138c-3.038,0-5.5,2.462-5.5,5.5s2.462,5.5,5.5,5.5h20.26c3.038,0,5.5-2.462,5.5-5.5s-2.462-5.5-5.5-5.5
		H191.941z"/>
	<path d="M116.114,41.73c1.074,1.074,2.481,1.611,3.889,1.611s2.815-0.537,3.889-1.611c2.148-2.148,2.148-5.63,0-7.778l-8.854-8.854
		c-2.148-2.147-5.63-2.147-7.778,0c-2.148,2.148-2.148,5.63,0,7.778L116.114,41.73z"/>
	<path d="M175.709,93.547c-2.148,2.148-2.148,5.63,0,7.778l37.024,37.024c1.074,1.074,2.481,1.611,3.889,1.611
		s2.815-0.537,3.889-1.611c2.148-2.148,2.148-5.63,0-7.778l-37.024-37.024C181.339,91.399,177.858,91.399,175.709,93.547z"/>
	<path d="M463.467,290.793c-30.613-6.824-61.674-10.899-92.893-12.25v-59.963l29.292-24.785c2.319-1.962,2.608-5.433,0.646-7.751
		c-1.961-2.318-5.432-2.608-7.751-0.646l-22.186,18.773v-21.568l20.303-16.496l16.993,4.147c0.438,0.107,0.877,0.158,1.309,0.158
		c2.476,0,4.726-1.685,5.339-4.197c0.72-2.951-1.088-5.927-4.039-6.647l-8.885-2.168l5.181-4.21
		c6.757-1.042,12.708-4.646,16.761-10.155c4.063-5.522,5.732-12.297,4.7-19.075c-0.199-1.311-0.912-2.489-1.98-3.275
		c-1.067-0.786-2.404-1.114-3.715-0.916c-6.778,1.032-12.749,4.642-16.812,10.164c-3.062,4.161-4.762,9.033-4.974,14.082
		c-0.24,0.141-0.48,0.281-0.702,0.462l-29.479,23.952v-8.743l14.495-28.266c1.386-2.703,0.318-6.018-2.384-7.404
		c-2.702-1.386-6.018-0.318-7.404,2.384l-11.598,22.617l-10.959-11.313l6.539-14.307c1.263-2.763,0.047-6.026-2.716-7.289
		c-2.764-1.262-6.026-0.046-7.289,2.716l-4.752,10.397l-11.907-12.291c1.359-12.678-6.921-24.717-19.647-27.706
		c-2.688-0.631-5.379,1.036-6.011,3.724c-1.568,6.674-0.443,13.56,3.168,19.388c3.098,5,7.711,8.704,13.173,10.646
		c0.177,0.262,0.368,0.519,0.596,0.754l35.697,36.848v18.093l-23.667-17.531c-2.442-1.809-5.885-1.294-7.693,1.146
		c-1.808,2.441-1.295,5.885,1.146,7.693l30.214,22.381v85.816c-1.406-0.032-7.696-0.124-9.31-0.133
		c-32.898-19.538-68.825-33.674-106.121-41.91v-18.674l10.621-5.712c2.675-1.438,3.678-4.773,2.239-7.449
		c-1.439-2.675-4.774-3.679-7.449-2.239l-5.411,2.91v-9.355l10.384-5.584c2.432-1.308,3.343-4.34,2.035-6.771
		c-1.308-2.432-4.34-3.344-6.771-2.035l-5.647,3.037v-5.141l9.389-8.512c2.046-1.855,2.201-5.017,0.346-7.063
		c-1.855-2.045-5.016-2.2-7.063-0.346l-6.14,5.566l-5.026-10.091c-1.231-2.472-4.233-3.477-6.705-2.247
		c-2.472,1.231-3.478,4.233-2.247,6.705l7.445,14.947v4.408l-7.416-4.44c-2.371-1.418-5.44-0.648-6.858,1.722
		c-1.418,2.369-0.647,5.44,1.722,6.858l12.553,7.515v3.25l-8.695-2.321c-2.667-0.71-5.408,0.874-6.121,3.542
		c-0.712,2.668,0.874,5.408,3.542,6.121l11.274,3.01v26.331c-14.829-2.838-29.847-4.748-44.954-5.698v-32.632l11.274-3.01
		c2.668-0.712,4.253-3.453,3.542-6.121c-0.712-2.668-3.452-4.254-6.121-3.542l-8.695,2.321v-4.59l10.714-6.127
		c2.397-1.371,3.229-4.425,1.858-6.822c-1.37-2.397-4.424-3.23-6.822-1.858l-5.75,3.288v-2.533l10.783-12.596
		c1.796-2.098,1.551-5.254-0.547-7.05c-2.097-1.796-5.253-1.551-7.05,0.547l-8.349,9.753l-10.199-10.916
		c-1.885-2.018-5.049-2.125-7.067-0.24c-2.018,1.885-2.125,5.049-0.24,7.067l12.668,13.559v9.661l-5.647-3.037
		c-2.433-1.308-5.464-0.396-6.771,2.035c-1.308,2.432-0.397,5.464,2.035,6.771l10.383,5.584v39.997
		c-36.639-1.276-73.361,3.073-108.62,12.733l-0.192-2.117l33.952-25.585l19.397,5.29c0.485,0.132,0.971,0.195,1.451,0.195
		c2.418,0,4.636-1.608,5.303-4.054c0.799-2.931-0.929-5.954-3.859-6.753l-17.777-4.848l0.647-16.176
		c14.309-0.46,26.85-10.912,29.383-25.559c0.518-2.993-1.489-5.839-4.482-6.357c-8.117-1.403-16.291,0.437-23.022,5.183
		c-6.731,4.746-11.211,11.829-12.614,19.944c-0.09,0.52-0.974,24.295-0.974,24.295l-28.575,21.532L65.914,189.3l26.767-22.152
		c2.34-1.937,2.667-5.404,0.73-7.744c-1.938-2.34-5.404-2.666-7.744-0.73l-4.097,3.39l-3.437-14.802
		c13.32-6.595,20.293-22.1,15.759-36.744c-0.898-2.902-3.978-4.523-6.881-3.627c-7.867,2.436-14.315,7.791-18.155,15.076
		c-2.663,5.052-3.851,10.613-3.517,16.17c0.148,2.458,1.93,10.967,1.93,10.967l4.829,20.799l-10.233,8.469L48.031,152.33
		c-1.425-2.683-4.754-3.704-7.438-2.276c-2.682,1.425-3.702,4.755-2.276,7.438l16.28,30.645l-1.176,21.09l-18.335-11.705
		l-4.174-20.035c1.523-7.806,0.022-15.763-4.276-22.488c-4.435-6.94-11.307-11.737-19.35-13.508c-2.966-0.655-5.9,1.221-6.554,4.188
		c-1.771,8.043-0.304,16.294,4.13,23.234c3.731,5.838,9.191,10.152,15.617,12.431l2.845,13.654l-9.828-0.578
		c-3.02-0.173-5.635,2.136-5.813,5.168c-0.178,3.032,2.135,5.635,5.168,5.813l15.571,0.916l24.296,15.51l-0.534,9.57l-25.946-4.702
		l-16.076-10.402c-2.552-1.651-5.956-0.92-7.605,1.63s-0.92,5.955,1.63,7.605l10.378,6.715l-5.69,4.267
		c-2.43,1.822-2.923,5.27-1.1,7.7c1.081,1.441,2.732,2.201,4.404,2.201c1.148,0,2.306-0.358,3.295-1.101l10.081-7.56l26.013,4.714
		l-0.223,4c-13.71,4.585-27.148,9.988-40.215,16.196c-2.744,1.303-3.911,4.584-2.607,7.328s4.584,3.912,7.328,2.607
		c11.346-5.39,22.98-10.154,34.833-14.284l-5.692,102.056c-10.809,1.105-21.61,2.545-32.395,4.321
		c-2.998,0.494-5.027,3.323-4.533,6.32c0.494,2.998,3.325,5.026,6.32,4.533c67.313-11.085,135.267-8.818,201.973,6.74
		c65.712,15.326,126.987,42.763,182.122,81.549c0.962,0.677,2.066,1.002,3.16,1.002c1.729,0,3.433-0.814,4.503-2.336
		c1.748-2.484,1.15-5.915-1.334-7.663c-17.811-12.529-36.258-23.879-55.269-34.064c-28.839-23.912-27.567-54.039,4.111-97.596
		c6.498-8.935,7.963-17.045,4.355-24.104c-2.014-3.94-5.625-7.285-10.758-10.032c2.035-0.001,4.069,0.016,6.104,0.039
		c4.162,3.378,16.592,15.525,6.985,33.831c-1.859,3.543-3.903,7.119-5.879,10.577c-9.096,15.915-18.501,32.372-11.788,49.383
		c7.246,18.358,32.637,33.714,79.909,48.325c0.541,0.167,1.088,0.247,1.626,0.247c2.348,0,4.523-1.516,5.253-3.877
		c0.897-2.902-0.729-5.982-3.631-6.879c-43.229-13.361-67.083-27.052-72.925-41.854c-4.775-12.099,2.584-24.976,11.106-39.886
		c2.024-3.542,4.118-7.206,6.069-10.924c8.316-15.845,4.619-29.356-1.602-38.559c31.122,1.248,62.088,5.268,92.6,12.069
		c2.969,0.66,5.904-1.207,6.565-4.171C468.299,294.393,466.432,291.454,463.467,290.793z M417.99,131.928
		c-0.501,1.843-1.344,3.596-2.509,5.18c-1.166,1.584-2.588,2.911-4.198,3.937C412.306,137.289,414.709,134.024,417.99,131.928z
		 M318.609,107.071c-1.038-1.676-1.74-3.495-2.091-5.376c1.528,1.152,2.844,2.59,3.882,4.266s1.74,3.495,2.091,5.376
		C320.964,110.184,319.647,108.746,318.609,107.071z M117.71,168.837c2.451-1.729,5.2-2.858,8.072-3.349
		c-2.923,5.186-8.07,8.815-13.937,9.827C113.271,172.776,115.259,170.565,117.71,168.837z M78.588,127.096
		c1.398-2.653,3.335-4.909,5.67-6.65c-0.248,5.948-3.185,11.52-7.952,15.086C76.424,132.621,77.19,129.749,78.588,127.096z
		 M14.132,162.989c-1.615-2.527-2.618-5.325-2.978-8.216c5.048,3.156,8.439,8.463,9.183,14.37
		C17.865,167.602,15.747,165.516,14.132,162.989z M61.483,262.217l8.725,96.183c-4.715,0.254-9.429,0.578-14.143,0.959
		L61.483,262.217z M348.21,304.077c1.568,3.068,0.405,7.316-3.457,12.627c-17.185,23.629-25.943,43.938-26.777,62.087
		c-0.483,10.536,1.772,20.391,6.727,29.488c-33.736-15.856-69.111-28.141-105.849-36.71c-45.504-10.612-91.577-15.159-137.645-13.64
		l-7.148-78.805l28.708-15.364c2.678-1.433,3.688-4.766,2.254-7.444c-1.434-2.678-4.765-3.688-7.444-2.254l-24.597,13.164
		l-1.403-15.468c35.538-9.95,72.647-14.331,109.633-12.787c17.804,0.743,35.507,2.869,52.932,6.312v12.32c0,2.761,2.239,5,5,5
		s5-2.239,5-5v-10.189c29.216,6.665,57.539,17.068,84.118,30.957c-9.14,0.323-18.283,0.879-27.421,1.677
		c-54.905,4.794-108.415,17.974-159.042,39.173c-2.802,1.173-4.123,4.396-2.949,7.197c0.883,2.108,2.925,3.377,5.076,3.377
		c0.708,0,1.428-0.138,2.122-0.428c49.214-20.607,101.213-33.466,154.569-38.246c0.002,0,8.602,0.224,13.237,0.684
		C328.804,293.287,344.712,297.233,348.21,304.077z"/>
</g>
</svg>